<?xml version="1.0" encoding="UTF-8"?>
<svg version="1.1" xmlns="http://www.w3.org/2000/svg" width="457" height="95">
<path d="M0 0 C3.875 0.875 3.875 0.875 5 2 C6.21281485 11.9570602 6.11700961 21.98917813 6 32 C6.61875 32.103125 7.2375 32.20625 7.875 32.3125 C10 33 10 33 12 36 C11.625 38.6875 11.625 38.6875 11 41 C8.03 40.505 8.03 40.505 5 40 C5 40.99 5 41.98 5 43 C6.62600941 42.9129995 8.25089678 42.8048219 9.875 42.6875 C11.23238281 42.60048828 11.23238281 42.60048828 12.6171875 42.51171875 C15.36221601 42.2117961 15.36221601 42.2117961 17 39 C17.66 39 18.32 39 19 39 C19.33 38.01 19.66 37.02 20 36 C20.66 36 21.32 36 22 36 C22 34.68 22 33.36 22 32 C22.66 32 23.32 32 24 32 C24 31.01 24 30.02 24 29 C24.66 29 25.32 29 26 29 C26.20625 28.236875 26.4125 27.47375 26.625 26.6875 C28.48566417 23.05074731 30.19059076 22.36563727 34 21 C37.78567768 20.60150761 40.22450069 20.68275028 43.75 22.125 C46.49957148 24.41630957 47.48747108 26.79239557 49 30 C64.1685477 30.02336695 79.33709458 30.04099784 94.50565624 30.05181217 C101.54878021 30.05696705 108.59189298 30.06399438 115.63500977 30.07543945 C122.43011392 30.08647623 129.22520643 30.09228211 136.02031898 30.09487724 C138.6146901 30.09672702 141.20906057 30.10033908 143.80342674 30.10573006 C147.43301146 30.11297321 151.06254791 30.11398954 154.69213867 30.11352539 C155.7681987 30.11712067 156.84425873 30.12071594 157.95292664 30.12442017 C158.94425598 30.1230455 159.93558533 30.12167084 160.95695496 30.12025452 C161.81514422 30.12117631 162.67333349 30.1220981 163.5575285 30.12304783 C166.05641514 30.05717663 166.05641514 30.05717663 168.68628407 29.46123409 C171.22084633 28.95597478 172.54176186 29.36561597 175 30 C177.60502607 29.68423926 178.69320267 29.30679733 180.5625 27.4375 C181.036875 26.963125 181.51125 26.48875 182 26 C185 26 185 26 187.5625 28.25 C189.57275078 30.51797524 190.87225206 32.23189141 192 35 C188.25 38 188.25 38 186 38 C185.67 38.99 185.34 39.98 185 41 C183.35 40.67 181.7 40.34 180 40 C179.67 39.01 179.34 38.02 179 37 C175.1146983 36.92528266 171.75055095 37.02763494 168 38 C167.34 37.67 166.68 37.34 166 37 C164.42543727 36.89694333 162.84660665 36.85620031 161.26870728 36.84609985 C160.27045425 36.83749939 159.27220123 36.82889893 158.24369812 36.82003784 C157.14443497 36.81577789 156.04517181 36.81151794 154.91259766 36.80712891 C153.75805588 36.79895142 152.6035141 36.79077393 151.41398621 36.78234863 C147.58068365 36.75746748 143.74741813 36.74097346 139.9140625 36.7265625 C137.95499025 36.71857698 137.95499025 36.71857698 135.95634079 36.71043015 C130.46955881 36.68880373 124.98277977 36.67006614 119.49596596 36.65880775 C111.62996457 36.64256162 103.76445659 36.60936605 95.89864123 36.55240691 C90.36907236 36.51372861 84.83963559 36.49417773 79.30993497 36.48888719 C76.00640299 36.48523112 72.70351879 36.47069486 69.40010452 36.44078445 C65.71508099 36.40931708 62.0313129 36.40906896 58.34619141 36.41650391 C57.25097672 36.40009857 56.15576202 36.38369324 55.02735901 36.36679077 C49.11288588 36.26071831 49.11288588 36.26071831 44.41586304 39.47396851 C43.94862823 40.3075589 43.48139343 41.14114929 43 42 C40.15916359 43.42041821 38.14522722 43.31452272 35 43 C32.625 41.3125 32.625 41.3125 31 39 C30.75 36.25 30.75 36.25 31 34 C31.66 34 32.32 34 33 34 C33.66 32.68 34.32 31.36 35 30 C36.875 30.3125 36.875 30.3125 39 31 C39.99 32.485 39.99 32.485 41 34 C41 32.35 41 30.7 41 29 C39.02 28.01 39.02 28.01 37 27 C37 27.66 37 28.32 37 29 C35.68 28.67 34.36 28.34 33 28 C33 28.66 33 29.32 33 30 C32.34 30 31.68 30 31 30 C31 30.66 31 31.32 31 32 C30.34 32 29.68 32 29 32 C28.62875 33.051875 28.62875 33.051875 28.25 34.125 C26.82353651 37.40586602 25.1459762 40.1386984 23 43 C22.01 43.33 21.02 43.66 20 44 C19.67 44.99 19.34 45.98 19 47 C12.89955686 50.22287562 8.3123612 50.10108967 1.5390625 49.2265625 C-0.9911982 48.77687479 -0.9911982 48.77687479 -3 50 C-7.87303957 50.45330601 -11.89555293 49.6705791 -16 47 C-20.71952125 42.61022696 -24.19080889 37.40969141 -27.4453125 31.8828125 C-29.40151175 29.51374707 -31.08430977 28.87607594 -34 28 C-36.70886941 27.83201738 -36.70886941 27.83201738 -39 28 C-38.67 29.98 -38.34 31.96 -38 34 C-37.34 33.01 -36.68 32.02 -36 31 C-33.69 31.33 -31.38 31.66 -29 32 C-28.25 35.25 -28.25 35.25 -28 39 C-29.5625 41.4375 -29.5625 41.4375 -32 43 C-35.93474728 43.66974422 -37.47334208 43.35110528 -40.8125 41.125 C-43 39 -43 39 -44 37 C-60.62003521 36.9532913 -77.24004915 36.91801671 -93.86013412 36.89637566 C-101.57702579 36.88606052 -109.29387669 36.87199567 -117.01074219 36.84912109 C-123.73630432 36.82919446 -130.46183693 36.81628529 -137.18742776 36.81182301 C-140.74898956 36.80921439 -144.3104669 36.80307811 -147.87200165 36.78853989 C-151.84665009 36.77244674 -155.82121568 36.77201985 -159.79589844 36.77294922 C-160.97841187 36.76575867 -162.16092529 36.75856812 -163.37927246 36.75115967 C-164.46178284 36.753909 -165.54429321 36.75665833 -166.65960693 36.75949097 C-167.59983578 36.75764738 -168.54006462 36.75580379 -169.50878525 36.75390434 C-172.1569168 37.01550109 -173.76945602 37.5678276 -176 39 C-176.33 39.66 -176.66 40.32 -177 41 C-182.02692063 40.54300722 -185.14896261 38.00758252 -189 35 C-188.65234375 33.06640625 -188.65234375 33.06640625 -188 31 C-186.35448038 30.28272222 -184.68577711 29.61674772 -183 29 C-182.34 28.01 -181.68 27.02 -181 26 C-179.0625 26.3125 -179.0625 26.3125 -177 27 C-176.67 27.99 -176.34 28.98 -176 30 C-171.50551543 31.04522897 -169.18217566 30.85874474 -165 29 C-164.34 29.33 -163.68 29.66 -163 30 C-161.42915829 30.10427323 -159.85400994 30.1465201 -158.27975464 30.15821838 C-157.28413513 30.1680072 -156.28851563 30.17779602 -155.26272583 30.18788147 C-154.16652924 30.19363693 -153.07033264 30.1993924 -151.94091797 30.20532227 C-150.2140979 30.22017166 -150.2140979 30.22017166 -148.45239258 30.23532104 C-144.63234542 30.26700733 -140.8122858 30.29172165 -136.9921875 30.31640625 C-134.34945343 30.33696962 -131.70672269 30.35796592 -129.06399536 30.37937927 C-122.80962742 30.42932409 -116.55523384 30.47425626 -110.3008157 30.51740164 C-103.18116453 30.56675874 -96.06155974 30.62168252 -88.94195342 30.67708123 C-74.29467952 30.79092872 -59.64735947 30.89776173 -45 31 C-44.855625 30.401875 -44.71125 29.80375 -44.5625 29.1875 C-43.28722281 24.2280887 -43.28722281 24.2280887 -40.875 22.3125 C-37.22501127 20.6462008 -34.98549134 20.51899243 -31 21 C-24.42708676 23.65222815 -21.36717357 27.86451259 -18 34 C-17.67 34.99 -17.34 35.98 -17 37 C-12.25992554 41.57391509 -12.25992554 41.57391509 -6 43 C-5.01 42.34 -4.02 41.68 -3 41 C-4.65 41 -6.3 41 -8 41 C-9.125 36.25 -9.125 36.25 -8 34 C-7.34 34 -6.68 34 -6 34 C-6 33.34 -6 32.68 -6 32 C-5.34 32 -4.68 32 -4 32 C-3.92483154 30.75911621 -3.92483154 30.75911621 -3.84814453 29.49316406 C-3.6574741 26.41390137 -3.45903495 23.33526441 -3.25537109 20.25683594 C-3.12650495 18.27316602 -3.00655873 16.28892318 -2.88671875 14.3046875 C-2.80292969 13.05429687 -2.71914062 11.80390625 -2.6328125 10.515625 C-2.55949707 9.36352539 -2.48618164 8.21142578 -2.41064453 7.02441406 C-2.02760211 4.20329065 -1.45596417 2.4145171 0 0 Z M-3 30 C-2 32 -2 32 -2 32 Z M-2 39 C-1 41 -1 41 -1 41 Z " fill="#B1B1B1" transform="translate(219,20)"/>
<path d="M0 0 C2.74957148 2.29130957 3.73747108 4.66739557 5.25 7.875 C20.4185477 7.89836695 35.58709458 7.91599784 50.75565624 7.92681217 C57.79878021 7.93196705 64.84189298 7.93899438 71.88500977 7.95043945 C78.68011392 7.96147623 85.47520643 7.96728211 92.27031898 7.96987724 C94.8646901 7.97172702 97.45906057 7.97533908 100.05342674 7.98073006 C103.68301146 7.98797321 107.31254791 7.98898954 110.94213867 7.98852539 C112.0181987 7.99212067 113.09425873 7.99571594 114.20292664 7.99942017 C115.19425598 7.9980455 116.18558533 7.99667084 117.20695496 7.99525452 C118.06514422 7.99617631 118.92333349 7.9970981 119.8075285 7.99804783 C122.30641514 7.93217663 122.30641514 7.93217663 124.93628407 7.33623409 C127.47084633 6.83097478 128.79176186 7.24061597 131.25 7.875 C133.85502607 7.55923926 134.94320267 7.18179733 136.8125 5.3125 C137.286875 4.838125 137.76125 4.36375 138.25 3.875 C141.25 3.875 141.25 3.875 143.5 6.0625 C145.25 8.875 145.25 8.875 145.1875 11.5625 C144.25 13.875 144.25 13.875 141.25 15.875 C138.61565746 15.55373872 136.62289903 15.06144952 134.25 13.875 C132.47644238 13.76984853 130.69896677 13.72840446 128.92233276 13.71678162 C127.22696381 13.70209839 127.22696381 13.70209839 125.49734497 13.68711853 C124.25153656 13.68136307 123.00572815 13.6756076 121.72216797 13.66967773 C120.41489746 13.65977814 119.10762695 13.64987854 117.76074219 13.63967896 C114.17008572 13.6125997 110.57941606 13.59160653 106.98871374 13.57167697 C103.23839244 13.54983602 99.48811191 13.52243809 95.73782349 13.49562073 C88.63346934 13.44566823 81.5290926 13.4007389 74.42469418 13.35759836 C66.33771312 13.30824782 58.25077298 13.25332161 50.16383147 13.19791877 C33.52592534 13.08405947 16.88798174 12.97722905 0.25 12.875 C0.25 10.565 0.25 8.255 0.25 5.875 C-0.41 5.875 -1.07 5.875 -1.75 5.875 C-1.75 5.215 -1.75 4.555 -1.75 3.875 C-6.47983222 3.9883511 -9.77784987 4.13532055 -13.625 7.0625 C-15.76079133 9.88928264 -17.31992865 12.63852273 -18.75 15.875 C-19.41 15.875 -20.07 15.875 -20.75 15.875 C-20.41666667 14.54166667 -20.08333333 13.20833333 -19.75 11.875 C-19.58242187 11.1428125 -19.41484375 10.410625 -19.2421875 9.65625 C-18.12997105 5.54527273 -17.21816287 2.63843596 -13.5 0.3125 C-8.85685493 -1.82295491 -4.75523086 -1.94532172 0 0 Z " fill="#929292" transform="translate(262.75,42.125)"/>
<path d="M0 0 C2.125 0.375 2.125 0.375 4 1 C3.01 1.66 2.02 2.32 1 3 C0.42006301 5.19454681 0.42006301 5.19454681 0.3125 7.625 C0.21388672 8.85089844 0.21388672 8.85089844 0.11328125 10.1015625 C0.07589844 10.72804688 0.03851563 11.35453125 0 12 C0.99 12 1.98 12 3 12 C3.33 10.35 3.66 8.7 4 7 C6.31 7.33 8.62 7.66 11 8 C11.75 11.25 11.75 11.25 12 15 C10.4375 17.4375 10.4375 17.4375 8 19 C4.06525272 19.66974422 2.52665792 19.35110528 -0.8125 17.125 C-3 15 -3 15 -4 13 C-20.62003521 12.9532913 -37.24004915 12.91801671 -53.86013412 12.89637566 C-61.57702579 12.88606052 -69.29387669 12.87199567 -77.01074219 12.84912109 C-83.73630432 12.82919446 -90.46183693 12.81628529 -97.18742776 12.81182301 C-100.74898956 12.80921439 -104.3104669 12.80307811 -107.87200165 12.78853989 C-111.84665009 12.77244674 -115.82121568 12.77201985 -119.79589844 12.77294922 C-120.97841187 12.76575867 -122.16092529 12.75856812 -123.37927246 12.75115967 C-124.46178284 12.753909 -125.54429321 12.75665833 -126.65960693 12.75949097 C-127.59983578 12.75764738 -128.54006462 12.75580379 -129.50878525 12.75390434 C-132.1569168 13.01550109 -133.76945602 13.5678276 -136 15 C-136.33 15.66 -136.66 16.32 -137 17 C-142.02692063 16.54300722 -145.14896261 14.00758252 -149 11 C-148.65234375 9.06640625 -148.65234375 9.06640625 -148 7 C-146.35448038 6.28272222 -144.68577711 5.61674772 -143 5 C-142.34 4.01 -141.68 3.02 -141 2 C-139.0625 2.3125 -139.0625 2.3125 -137 3 C-136.67 3.99 -136.34 4.98 -136 6 C-135.22914063 6.06058594 -134.45828125 6.12117188 -133.6640625 6.18359375 C-132.15972656 6.30927734 -132.15972656 6.30927734 -130.625 6.4375 C-129.12839844 6.55931641 -129.12839844 6.55931641 -127.6015625 6.68359375 C-125 7 -125 7 -123 8 C-121.40381617 8.1043945 -119.80337823 8.14653064 -118.2038269 8.15821838 C-116.68515518 8.17290161 -116.68515518 8.17290161 -115.13580322 8.18788147 C-114.02090515 8.19363693 -112.90600708 8.1993924 -111.75732422 8.20532227 C-110.00124344 8.22017166 -110.00124344 8.22017166 -108.20968628 8.23532104 C-104.99504408 8.26154108 -101.78040726 8.28338982 -98.56572104 8.30332303 C-95.20777794 8.32516887 -91.84988031 8.3525644 -88.49197388 8.37937927 C-82.13135762 8.42932516 -75.77071614 8.47425694 -69.41005051 8.51740164 C-62.16948316 8.56675783 -54.92896142 8.62168194 -47.68843818 8.67708123 C-32.79233462 8.79093038 -17.89618812 8.89776301 -3 9 C-2.814375 7.329375 -2.814375 7.329375 -2.625 5.625 C-2 2 -2 2 0 0 Z " fill="#BABABA" transform="translate(179,44)"/>
<path d="M0 0 C4.47094399 2.28812765 6.67562973 4.97707708 9.13671875 9.30859375 C8.80671875 9.96859375 8.47671875 10.62859375 8.13671875 11.30859375 C7.73582031 10.74269531 7.33492187 10.17679688 6.921875 9.59375 C3.82943447 5.60373036 1.63165254 2.84426826 -3.55078125 2.18359375 C-6.86431903 1.98348667 -9.19720774 2.25431395 -11.86328125 4.30859375 C-12.58374888 6.62587994 -13.25440477 8.95951769 -13.86328125 11.30859375 C-29.40570999 11.33196869 -44.94813742 11.34959551 -60.49057961 11.36040592 C-67.70743015 11.36555911 -74.92426976 11.3725832 -82.14111328 11.3840332 C-88.43234082 11.39400989 -94.72356043 11.40045429 -101.01479566 11.40268224 C-104.34500511 11.40398428 -107.67518667 11.40756486 -111.00539017 11.41432381 C-114.72577512 11.42157485 -118.44611303 11.42258296 -122.16650391 11.42211914 C-123.26702087 11.42571442 -124.36753784 11.42930969 -125.50140381 11.43301392 C-130.40054904 11.42639797 -135.04966561 11.35429864 -139.86328125 10.30859375 C-139.86328125 9.64859375 -139.86328125 8.98859375 -139.86328125 8.30859375 C-136.11328125 7.18359375 -136.11328125 7.18359375 -133.86328125 8.30859375 C-132.29243954 8.41286698 -130.71729119 8.45511385 -129.14303589 8.46681213 C-128.14741638 8.47660095 -127.15179688 8.48638977 -126.12600708 8.49647522 C-125.02981049 8.50223068 -123.93361389 8.50798615 -122.80419922 8.51391602 C-121.07737915 8.52876541 -121.07737915 8.52876541 -119.31567383 8.54391479 C-115.49562667 8.57560108 -111.67556705 8.6003154 -107.85546875 8.625 C-105.21273468 8.64556337 -102.57000394 8.66655967 -99.92727661 8.68797302 C-93.67290867 8.73791784 -87.41851509 8.78285001 -81.16409695 8.82599539 C-74.04444578 8.87535249 -66.92484099 8.93027627 -59.80523467 8.98567498 C-45.15796077 9.09952247 -30.51064072 9.20635548 -15.86328125 9.30859375 C-15.71890625 8.71046875 -15.57453125 8.11234375 -15.42578125 7.49609375 C-14.15050406 2.53668245 -14.15050406 2.53668245 -11.73828125 0.62109375 C-7.66789975 -1.23712389 -4.26896121 -1.58407995 0 0 Z " fill="#E0E0E0" transform="translate(189.86328125,41.69140625)"/>
<path d="M0 0 C2.74957148 2.29130957 3.73747108 4.66739557 5.25 7.875 C20.4185477 7.89836695 35.58709458 7.91599784 50.75565624 7.92681217 C57.79878021 7.93196705 64.84189298 7.93899438 71.88500977 7.95043945 C78.68011392 7.96147623 85.47520643 7.96728211 92.27031898 7.96987724 C94.8646901 7.97172702 97.45906057 7.97533908 100.05342674 7.98073006 C103.68301146 7.98797321 107.31254791 7.98898954 110.94213867 7.98852539 C112.0181987 7.99212067 113.09425873 7.99571594 114.20292664 7.99942017 C115.19425598 7.9980455 116.18558533 7.99667084 117.20695496 7.99525452 C118.06514422 7.99617631 118.92333349 7.9970981 119.8075285 7.99804783 C122.37176662 7.86886559 124.74827789 7.43892021 127.25 6.875 C128.24 8.36 128.24 8.36 129.25 9.875 C127.27 9.545 125.29 9.215 123.25 8.875 C123.25 9.535 123.25 10.195 123.25 10.875 C83.32 10.875 43.39 10.875 2.25 10.875 C1.59 8.565 0.93 6.255 0.25 3.875 C-2.0497648 1.98590748 -3.67421608 1.88488486 -6.625 1.5 C-10.55047906 1.97105749 -12.61992627 3.52744471 -15.75 5.875 C-16.74 6.37 -16.74 6.37 -17.75 6.875 C-16.811813 3.40370808 -16.08978548 2.10415765 -13.0625 0.0625 C-8.32039047 -1.63750153 -4.70607525 -1.9252126 0 0 Z " fill="#E0E0E0" transform="translate(262.75,42.125)"/>
<path d="M0 0 C3.875 0.875 3.875 0.875 5 2 C6.21281485 11.9570602 6.11700961 21.98917813 6 32 C6.61875 32.103125 7.2375 32.20625 7.875 32.3125 C10 33 10 33 12 36 C11.625 38.6875 11.625 38.6875 11 41 C9.02 40.67 7.04 40.34 5 40 C5 40.99 5 41.98 5 43 C6.093125 42.79375 7.18625 42.5875 8.3125 42.375 C12 42 12 42 15 44 C14 45 14 45 11.96875 45.1328125 C11.1540625 45.13023438 10.339375 45.12765625 9.5 45.125 C8.6853125 45.12757812 7.870625 45.13015625 7.03125 45.1328125 C5 45 5 45 4 44 C3.95907063 41.66702567 3.95758277 39.33294775 4 37 C6.16874252 37.50603992 7.99967627 37.99983813 10 39 C9.28436734 36.9837767 9.28436734 36.9837767 8 35 C6.68 34.67 5.36 34.34 4 34 C3.67 23.77 3.34 13.54 3 3 C2.01 2.67 1.02 2.34 0 2 C0 7.94 0 13.88 0 20 C0.66 19.67 1.32 19.34 2 19 C2 23.29 2 27.58 2 32 C1.34 32 0.68 32 0 32 C0 35.63 0 39.26 0 43 C-0.66 43 -1.32 43 -2 43 C-2.66 42.34 -3.32 41.68 -4 41 C-6.57061311 40.35232207 -6.57061311 40.35232207 -9 40 C-8.505 37.03 -8.505 37.03 -8 34 C-7.34 34 -6.68 34 -6 34 C-6 33.34 -6 32.68 -6 32 C-5.34 32 -4.68 32 -4 32 C-3.9498877 31.17274414 -3.89977539 30.34548828 -3.84814453 29.49316406 C-3.6574741 26.41390137 -3.45903495 23.33526441 -3.25537109 20.25683594 C-3.12650495 18.27316602 -3.00655873 16.28892318 -2.88671875 14.3046875 C-2.76103516 12.42910156 -2.76103516 12.42910156 -2.6328125 10.515625 C-2.55949707 9.36352539 -2.48618164 8.21142578 -2.41064453 7.02441406 C-2.02760211 4.20329065 -1.45596417 2.4145171 0 0 Z M-3 30 C-2 32 -2 32 -2 32 Z M-2 39 C-1 41 -1 41 -1 41 Z " fill="#E5E5E5" transform="translate(219,20)"/>
<path d="M0 0 C1.32 0.33 2.64 0.66 4 1 C4 11.23 4 21.46 4 32 C5.65 32.33 7.3 32.66 9 33 C9.33 34.32 9.66 35.64 10 37 C8.02 36.34 6.04 35.68 4 35 C4.32504259 39.82194643 4.32504259 39.82194643 6.5625 43.9375 C7.036875 44.288125 7.51125 44.63875 8 45 C6.35 45 4.7 45 3 45 C3 44.34 3 43.68 3 43 C2.01 43 1.02 43 0 43 C0 43.66 0 44.32 0 45 C-1.41543415 45.19658808 -2.83244031 45.38187546 -4.25 45.5625 C-5.43335938 45.71912109 -5.43335938 45.71912109 -6.640625 45.87890625 C-9.00532874 46.00027349 -10.7511037 45.69633257 -13 45 C-13 44.34 -13 43.68 -13 43 C-13.5775 42.9175 -14.155 42.835 -14.75 42.75 C-17.75833512 41.74722163 -19.04707016 40.49166911 -21 38 C-21.75 34.75 -21.75 34.75 -22 32 C-17 37 -17 37 -14.8125 39.75 C-10.80650746 42.95479403 -7.00616838 42.89307213 -2 43 C-2 42.34 -2 41.68 -2 41 C-1.34 41 -0.68 41 0 41 C-0.185625 39.741875 -0.37125 38.48375 -0.5625 37.1875 C-1.00732761 34.17255732 -0.99843846 32.99531539 0 30 C0.66 30 1.32 30 2 30 C1.67 26.04 1.34 22.08 1 18 C0.67 21.63 0.34 25.26 0 29 C-0.33 29 -0.66 29 -1 29 C-1.02948491 25.85418698 -1.04695916 22.70841037 -1.0625 19.5625 C-1.07087891 18.68400391 -1.07925781 17.80550781 -1.08789062 16.90039062 C-1.10899107 11.18216923 -0.73280057 5.67199185 0 0 Z " fill="#9C9C9C" transform="translate(219,22)"/>
<path d="M0 0 C2.125 0.375 2.125 0.375 4 1 C3.01 1.66 2.02 2.32 1 3 C0.42006301 5.19454681 0.42006301 5.19454681 0.3125 7.625 C0.21388672 8.85089844 0.21388672 8.85089844 0.11328125 10.1015625 C0.07589844 10.72804688 0.03851563 11.35453125 0 12 C0.66 12 1.32 12 2 12 C2 12.66 2 13.32 2 14 C3.65 14 5.3 14 7 14 C7 13.01 7 12.02 7 11 C6.34 11 5.68 11 5 11 C5 10.34 5 9.68 5 9 C6.65 9.33 8.3 9.66 10 10 C10.22732116 12.80362763 10.34081872 14.46186517 8.8125 16.875 C7 18 7 18 4.5625 17.875 C1.8286315 16.94148393 0.11299936 15.96207084 -2 14 C-2.495 12.515 -2.495 12.515 -3 11 C-18.57697085 10.97664336 -34.15393852 10.95900722 -49.7309227 10.94818783 C-56.96352473 10.94303076 -64.19611589 10.93599925 -71.42871094 10.92456055 C-77.73237117 10.91459575 -84.03602352 10.90814228 -90.3396914 10.90591151 C-93.67766535 10.90460746 -97.01559892 10.90101727 -100.35356903 10.89426994 C-104.0791509 10.88703696 -107.8046857 10.88601002 -111.53027344 10.88647461 C-112.63798096 10.88287933 -113.74568848 10.87928406 -114.88696289 10.87557983 C-115.90216003 10.8769545 -116.91735718 10.87832916 -117.96331787 10.87974548 C-119.28516901 10.87836279 -119.28516901 10.87836279 -120.63372421 10.87695217 C-122.89143557 10.99435458 -124.83559051 11.36747414 -127 12 C-127.33 10.68 -127.66 9.36 -128 8 C-127.01 7.67 -126.02 7.34 -125 7 C-124.34 7.33 -123.68 7.66 -123 8 C-121.40381617 8.1043945 -119.80337823 8.14653064 -118.2038269 8.15821838 C-116.68515518 8.17290161 -116.68515518 8.17290161 -115.13580322 8.18788147 C-114.02090515 8.19363693 -112.90600708 8.1993924 -111.75732422 8.20532227 C-110.00124344 8.22017166 -110.00124344 8.22017166 -108.20968628 8.23532104 C-104.99504408 8.26154108 -101.78040726 8.28338982 -98.56572104 8.30332303 C-95.20777794 8.32516887 -91.84988031 8.3525644 -88.49197388 8.37937927 C-82.13135762 8.42932516 -75.77071614 8.47425694 -69.41005051 8.51740164 C-62.16948316 8.56675783 -54.92896142 8.62168194 -47.68843818 8.67708123 C-32.79233462 8.79093038 -17.89618812 8.89776301 -3 9 C-2.814375 7.329375 -2.814375 7.329375 -2.625 5.625 C-2 2 -2 2 0 0 Z " fill="#808080" transform="translate(179,44)"/>
<path d="M0 0 C0.99 0.66 1.98 1.32 3 2 C2.67 2.99 2.34 3.98 2 5 C0.33333333 5.66666667 -1.33333333 6.33333333 -3 7 C-3.33 7.99 -3.66 8.98 -4 10 C-5.65 9.67 -7.3 9.34 -9 9 C-9.33 8.01 -9.66 7.02 -10 6 C-13.8853017 5.92528266 -17.24944905 6.02763494 -21 7 C-21.99 6.505 -21.99 6.505 -23 6 C-24.57924869 5.90321672 -26.16254233 5.86932413 -27.74475098 5.86628723 C-29.24646599 5.85988976 -29.24646599 5.85988976 -30.77851868 5.85336304 C-32.43212654 5.85404282 -32.43212654 5.85404282 -34.11914062 5.85473633 C-35.85577217 5.84969841 -35.85577217 5.84969841 -37.62748718 5.84455872 C-41.47041891 5.8350272 -45.31330718 5.8331046 -49.15625 5.83203125 C-51.14475277 5.82963141 -53.13325555 5.82723004 -55.12175798 5.82457083 C-61.37560882 5.81642407 -67.62944525 5.81398685 -73.88330078 5.81469727 C-80.34192088 5.8152985 -86.80045758 5.80473821 -93.25905657 5.7889536 C-98.79878906 5.77589543 -104.33849424 5.77051262 -109.87824202 5.77115268 C-113.18931414 5.77140812 -116.50029515 5.7676189 -119.81135559 5.75797462 C-123.50126166 5.74823224 -127.19095017 5.75102981 -130.88085938 5.75708008 C-131.98326462 5.75146057 -133.08566986 5.74584106 -134.22148132 5.74005127 C-135.22262466 5.74424576 -136.22376801 5.74844025 -137.25524902 5.75276184 C-138.12835472 5.75221707 -139.00146042 5.75167231 -139.90102386 5.75111103 C-142.21902533 5.80640889 -142.21902533 5.80640889 -144 8 C-143.67 6.68 -143.34 5.36 -143 4 C-125.84115906 3.95330993 -108.68233789 3.91802587 -91.52344799 3.89637566 C-83.55654466 3.88605656 -75.58968076 3.87198417 -67.62280273 3.84912109 C-60.68007342 3.82920656 -53.73737265 3.81628817 -46.79461557 3.81182301 C-43.11739176 3.80921234 -39.44024965 3.80306305 -35.76305199 3.78853989 C-31.66125211 3.77247067 -27.5595949 3.77201907 -23.45776367 3.77294922 C-22.23425201 3.76575867 -21.01074036 3.75856812 -19.75015259 3.75115967 C-18.0779641 3.75528366 -18.0779641 3.75528366 -16.37199402 3.75949097 C-14.916022 3.75672559 -14.916022 3.75672559 -13.43063641 3.75390434 C-11 4 -11 4 -8 6 C-4.91004903 6.08223366 -4.91004903 6.08223366 -2 5 C-0.54708727 2.53744315 -0.54708727 2.53744315 0 0 Z " fill="#ECECEC" transform="translate(408,51)"/>
<path d="M0 0 C2.31 0.33 4.62 0.66 7 1 C7.75 4.25 7.75 4.25 8 8 C6.4375 10.4375 6.4375 10.4375 4 12 C0.06525272 12.66974422 -1.47334208 12.35110528 -4.8125 10.125 C-7 8 -7 8 -8 6 C-60.47 5.505 -60.47 5.505 -114 5 C-114 4.67 -114 4.34 -114 4 C-78.36 4 -42.72 4 -6 4 C-6 4.99 -6 5.98 -6 7 C-3.04288438 8.64284201 -0.37991574 9.6442194 3 10 C5.28728734 8.16116119 5.28728734 8.16116119 5.125 5.375 C5.08375 4.59125 5.0425 3.8075 5 3 C3.68 2.67 2.36 2.34 1 2 C1 2.66 1 3.32 1 4 C1.66 4 2.32 4 3 4 C3 4.99 3 5.98 3 7 C1.35 7 -0.3 7 -2 7 C-1.34 4.69 -0.68 2.38 0 0 Z " fill="#EAEAEA" transform="translate(183,51)"/>
<path d="M0 0 C3 0 3 0 5.25 2.1875 C7 5 7 5 6.9375 7.6875 C6 10 6 10 3 12 C0.875 11.75 0.875 11.75 -2 11 C-2.75539063 10.85175781 -3.51078125 10.70351563 -4.2890625 10.55078125 C-5.50722656 10.30908203 -5.50722656 10.30908203 -6.75 10.0625 C-7.52859375 9.90910156 -8.3071875 9.75570312 -9.109375 9.59765625 C-9.73328125 9.40042969 -10.3571875 9.20320313 -11 9 C-11.33 8.34 -11.66 7.68 -12 7 C-12.99 6.34 -13.98 5.68 -15 5 C-14.13375 5.04125 -13.2675 5.0825 -12.375 5.125 C-7.07401983 4.9286674 -3.64454917 3.81809913 0 0 Z " fill="#CECECE" transform="translate(401,46)"/>
<path d="M0 0 C0.66 0 1.32 0 2 0 C1.01 2.97 0.02 5.94 -1 9 C-0.34 9 0.32 9 1 9 C0.75 10.875 0.75 10.875 0 13 C-1.31647119 13.69937532 -2.65022151 14.36729133 -4 15 C-4.33 15.99 -4.66 16.98 -5 18 C-9.99450587 21.06979385 -14.42972358 21.27652168 -20 20 C-20 18 -20 18 -18 16 C-16.0509375 15.8453125 -16.0509375 15.8453125 -14.0625 15.6875 C-11.92704022 15.54297247 -11.92704022 15.54297247 -10 15 C-8.08255407 12.55690423 -8.08255407 12.55690423 -7 10 C-6.34 10 -5.68 10 -5 10 C-4.67 9.01 -4.34 8.02 -4 7 C-3.34 7 -2.68 7 -2 7 C-2 5.68 -2 4.36 -2 3 C-1.34 3 -0.68 3 0 3 C0 2.01 0 1.02 0 0 Z " fill="#C8C8C8" transform="translate(243,49)"/>
<path d="M0 0 C0.66 0.66 1.32 1.32 2 2 C2.66 1.67 3.32 1.34 4 1 C4 5.29 4 9.58 4 14 C3.34 14 2.68 14 2 14 C2 17.63 2 21.26 2 25 C1.34 25 0.68 25 0 25 C-0.66 24.34 -1.32 23.68 -2 23 C-4.57061311 22.35232207 -4.57061311 22.35232207 -7 22 C-6.67 20.02 -6.34 18.04 -6 16 C-5.34 16 -4.68 16 -4 16 C-4 15.34 -4 14.68 -4 14 C-3.34 14 -2.68 14 -2 14 C-1.93941406 13.15695313 -1.87882813 12.31390625 -1.81640625 11.4453125 C-1.73261719 10.34960938 -1.64882812 9.25390625 -1.5625 8.125 C-1.48128906 7.03445312 -1.40007812 5.94390625 -1.31640625 4.8203125 C-1 2 -1 2 0 0 Z M-1 12 C0 14 0 14 0 14 Z M0 21 C1 23 1 23 1 23 Z " fill="#B1B1B1" transform="translate(217,38)"/>
<path d="M0 0 C5 5 5 5 7.1875 7.75 C11.19349254 10.95479403 14.99383162 10.89307213 20 11 C20 10.34 20 9.68 20 9 C20.66 9 21.32 9 22 9 C21.67 6.36 21.34 3.72 21 1 C22.32 0.67 23.64 0.34 25 0 C25 3 25 3 24.6875 5.375 C25.1385127 9.16350666 27.21010364 10.55884069 30 13 C28.35 13 26.7 13 25 13 C25 12.34 25 11.68 25 11 C24.01 11 23.02 11 22 11 C22 11.66 22 12.32 22 13 C20.58456585 13.19658808 19.16755969 13.38187546 17.75 13.5625 C16.96109375 13.66691406 16.1721875 13.77132812 15.359375 13.87890625 C12.99467126 14.00027349 11.2488963 13.69633257 9 13 C9 12.34 9 11.68 9 11 C8.4225 10.9175 7.845 10.835 7.25 10.75 C4.24166488 9.74722163 2.95292984 8.49166911 1 6 C0.25 2.75 0.25 2.75 0 0 Z " fill="#7D7D7D" transform="translate(197,54)"/>
<path d="M0 0 C0.52736755 0.14014023 1.05473511 0.28028046 1.5980835 0.42466736 C4.86737627 1.20776321 8.08789072 1.17769065 11.43066406 1.20532227 C12.54344727 1.22017166 12.54344727 1.22017166 13.67871094 1.23532104 C16.12431679 1.26684147 18.56994205 1.29165595 21.015625 1.31640625 C22.7138519 1.33698395 24.41207377 1.35798064 26.11029053 1.37937927 C30.5752759 1.43451567 35.04030685 1.48396207 39.50537109 1.53222656 C44.06351772 1.58250322 48.62159834 1.63815709 53.1796875 1.69335938 C62.11973525 1.80083778 71.05984036 1.90230559 80 2 C80 2.33 80 2.66 80 3 C79.05674866 3.01030746 78.11349731 3.02061493 77.1416626 3.03123474 C68.25429374 3.12897264 59.36699484 3.23170713 50.47974014 3.33933926 C45.91067139 3.39451376 41.34159618 3.44792502 36.77246094 3.49731445 C32.36336483 3.54503872 27.95434563 3.59738444 23.54534149 3.65294075 C21.86285059 3.67332778 20.18033862 3.69204684 18.49781036 3.70907402 C16.1420175 3.73319897 13.78636914 3.76324232 11.43066406 3.79467773 C10.73438904 3.8004332 10.03811401 3.80618866 9.32073975 3.81211853 C6.07531154 3.86137461 3.10629667 4.01452031 0 5 C-0.5625 3.0625 -0.5625 3.0625 -1 1 C-0.67 0.67 -0.34 0.34 0 0 Z " fill="#7F7F7F" transform="translate(52,51)"/>
<path d="M0 0 C2.25 1.875 2.25 1.875 5.25 7.875 C21.09 8.37 21.09 8.37 37.25 8.875 C37.25 9.205 37.25 9.535 37.25 9.875 C25.7 9.875 14.15 9.875 2.25 9.875 C1.26 7.565 0.27 5.255 -0.75 2.875 C-5.65232657 1.87274657 -8.66812183 1.28488463 -13.1875 3.75 C-14.033125 4.45125 -14.87875 5.1525 -15.75 5.875 C-16.74 6.37 -16.74 6.37 -17.75 6.875 C-16.811813 3.40370808 -16.08978548 2.10415765 -13.0625 0.0625 C-8.32039047 -1.63750153 -4.70607525 -1.9252126 0 0 Z " fill="#EBEBEB" transform="translate(262.75,42.125)"/>
<path d="M0 0 C0.99 0.66 1.98 1.32 3 2 C2.67 2.99 2.34 3.98 2 5 C0.33333333 5.66666667 -1.33333333 6.33333333 -3 7 C-3.33 7.99 -3.66 8.98 -4 10 C-6.475 9.505 -6.475 9.505 -9 9 C-9.495 7.515 -9.495 7.515 -10 6 C-13.8853017 5.92528266 -17.24944905 6.02763494 -21 7 C-21.66 6.67 -22.32 6.34 -23 6 C-25.17674783 5.84530633 -27.3578348 5.74997894 -29.5390625 5.68359375 C-30.84101563 5.64169922 -32.14296875 5.59980469 -33.484375 5.55664062 C-34.86458045 5.51682701 -36.24478883 5.47711478 -37.625 5.4375 C-39.01303415 5.39430593 -40.40105528 5.35069135 -41.7890625 5.30664062 C-45.19260256 5.20028 -48.59621778 5.09825286 -52 5 C-52 4.67 -52 4.34 -52 4 C-46.21591441 3.9505991 -40.43195136 3.91428 -34.64770508 3.89013672 C-32.67958436 3.88007293 -30.71147862 3.86642066 -28.7434082 3.84912109 C-25.91614082 3.82488941 -23.08907095 3.81352077 -20.26171875 3.8046875 C-19.38037766 3.79436493 -18.49903656 3.78404236 -17.59098816 3.77340698 C-16.77036392 3.77325592 -15.94973969 3.77310486 -15.10424805 3.77294922 C-14.38254929 3.768508 -13.66085052 3.76406677 -12.9172821 3.75949097 C-11 4 -11 4 -8 6 C-4.91004903 6.08223366 -4.91004903 6.08223366 -2 5 C-0.54708727 2.53744315 -0.54708727 2.53744315 0 0 Z " fill="#E0E0E0" transform="translate(408,51)"/>
<path d="M0 0 C3.48330216 0.64505596 6.09432866 1.98217268 9 4 C9 4.66 9 5.32 9 6 C3.87931034 10.07327586 3.87931034 10.07327586 0.75 9.8125 C-0.50924644 9.22784987 -1.75822148 8.62088926 -3 8 C-3.625 5.4375 -3.625 5.4375 -4 3 C-2.68 2.67 -1.36 2.34 0 2 C0 1.34 0 0.68 0 0 Z " fill="#5A5A5A" transform="translate(38,49)"/>
<path d="M0 0 C0.66 0 1.32 0 2 0 C3.1482685 2.296537 3.11561175 3.58313167 3.09765625 6.1328125 C3.09282227 7.34130859 3.09282227 7.34130859 3.08789062 8.57421875 C3.07951172 9.41597656 3.07113281 10.25773437 3.0625 11.125 C3.05798828 11.97449219 3.05347656 12.82398438 3.04882812 13.69921875 C3.03702874 15.79950909 3.01909306 17.8997633 3 20 C2.34 19.34 1.68 18.68 1 18 C0.67 21.63 0.34 25.26 0 29 C-0.33 29 -0.66 29 -1 29 C-1.02948491 25.85418698 -1.04695916 22.70841037 -1.0625 19.5625 C-1.07506836 18.24475586 -1.07506836 18.24475586 -1.08789062 16.90039062 C-1.10899107 11.18216923 -0.73280057 5.67199185 0 0 Z " fill="#787878" transform="translate(219,22)"/>
<path d="M0 0 C0.7940625 0.05542969 1.588125 0.11085937 2.40625 0.16796875 C4.5 0.8125 4.5 0.8125 5.78125 2.86328125 C6.0184375 3.50652344 6.255625 4.14976563 6.5 4.8125 C5.51 4.8125 4.52 4.8125 3.5 4.8125 C3.5 4.1525 3.5 3.4925 3.5 2.8125 C-1.22983222 2.9258511 -4.52784987 3.07282055 -8.375 6 C-10.51079133 8.82678264 -12.06992865 11.57602273 -13.5 14.8125 C-14.16 14.8125 -14.82 14.8125 -15.5 14.8125 C-14.30266133 8.58633891 -11.70931698 4.41895021 -6.5 0.8125 C-4.05333494 -0.41083253 -2.70770626 -0.23296823 0 0 Z " fill="#888888" transform="translate(257.5,43.1875)"/>
<path d="M0 0 C1.9375 0.3125 1.9375 0.3125 4 1 C4.33 1.99 4.66 2.98 5 4 C5.66 4.33 6.32 4.66 7 5 C5.02 5.99 5.02 5.99 3 7 C3 7.66 3 8.32 3 9 C-0.14737182 8.30058404 -3.02588876 7.23921302 -6 6 C-6 5.34 -6 4.68 -6 4 C-4.02 3.34 -2.04 2.68 0 2 C0 1.34 0 0.68 0 0 Z " fill="#2B2B2B" transform="translate(400,49)"/>
<path d="M0 0 C0.33 0 0.66 0 1 0 C1 2.31 1 4.62 1 7 C1.66 7 2.32 7 3 7 C3 7.66 3 8.32 3 9 C4.65 9 6.3 9 8 9 C8 8.01 8 7.02 8 6 C7.34 6 6.68 6 6 6 C6 5.34 6 4.68 6 4 C7.65 4.33 9.3 4.66 11 5 C11.22732116 7.80362763 11.34081872 9.46186517 9.8125 11.875 C8 13 8 13 5.5625 12.875 C0.83755274 11.26160338 0.83755274 11.26160338 -1 9 C-1.03272742 5.92907675 -0.58054241 3.00998619 0 0 Z " fill="#949494" transform="translate(178,49)"/>
<path d="M0 0 C0.33 0 0.66 0 1 0 C1 4.29 1 8.58 1 13 C-0.65 13.66 -2.3 14.32 -4 15 C-4 16.32 -4 17.64 -4 19 C-3.01 18.34 -2.02 17.68 -1 17 C0.32 17 1.64 17 3 17 C3 18.98 3 20.96 3 23 C2.34 23 1.68 23 1 23 C0.34 22.34 -0.32 21.68 -1 21 C-3.57061311 20.35232207 -3.57061311 20.35232207 -6 20 C-5.67 18.02 -5.34 16.04 -5 14 C-4.34 14 -3.68 14 -3 14 C-3 13.34 -3 12.68 -3 12 C-2.34 12 -1.68 12 -1 12 C-0.67 8.04 -0.34 4.08 0 0 Z M1 19 C2 21 2 21 2 21 Z " fill="#F0F0F0" transform="translate(216,40)"/>
<path d="M0 0 C1.8125 0.9375 1.8125 0.9375 2.8125 3.9375 C4.235625 4.1540625 4.235625 4.1540625 5.6875 4.375 C8.8125 4.9375 8.8125 4.9375 10.8125 5.9375 C10.8125 6.9275 10.8125 7.9175 10.8125 8.9375 C9.4925 8.9375 8.1725 8.9375 6.8125 8.9375 C6.8125 8.2775 6.8125 7.6175 6.8125 6.9375 C6.07 6.64875 5.3275 6.36 4.5625 6.0625 C2.24510203 5.11447356 0.03332885 4.08904089 -2.1875 2.9375 C-2.1875 3.5975 -2.1875 4.2575 -2.1875 4.9375 C-3.5075 5.2675 -4.8275 5.5975 -6.1875 5.9375 C-5.8575 6.9275 -5.5275 7.9175 -5.1875 8.9375 C-6.1775 8.9375 -7.1675 8.9375 -8.1875 8.9375 C-6.80772285 4.79816856 -5.00869617 -0.1431056 0 0 Z " fill="#D1D1D1" transform="translate(40.1875,46.0625)"/>
<path d="M0 0 C0.66 0 1.32 0 2 0 C2.804375 0.969375 3.60875 1.93875 4.4375 2.9375 C6.70684377 6.19375327 6.70684377 6.19375327 10 7 C10 7.66 10 8.32 10 9 C14.29 9 18.58 9 23 9 C23 8.34 23 7.68 23 7 C23.99 7 24.98 7 26 7 C26.33 7.99 26.66 8.98 27 10 C20.54302146 12.06623313 15.28654779 13.1722184 8.8125 10.1953125 C5.2220365 7.82746372 2.53633811 4.43831853 0 1 C0 0.67 0 0.34 0 0 Z " fill="#E0E0E0" transform="translate(196,58)"/>
<path d="M0 0 C1.21236328 0.02707031 1.21236328 0.02707031 2.44921875 0.0546875 C3.37154297 0.08949219 3.37154297 0.08949219 4.3125 0.125 C5.7908226 3.08164519 5.37282783 5.86729737 5.3125 9.125 C4.9825 9.125 4.6525 9.125 4.3125 9.125 C4.044375 7.990625 3.77625 6.85625 3.5 5.6875 C3.108125 4.511875 2.71625 3.33625 2.3125 2.125 C1.3225 1.795 0.3325 1.465 -0.6875 1.125 C-0.6875 1.785 -0.6875 2.445 -0.6875 3.125 C-2.0075 2.795 -3.3275 2.465 -4.6875 2.125 C-4.6875 2.785 -4.6875 3.445 -4.6875 4.125 C-5.3475 4.125 -6.0075 4.125 -6.6875 4.125 C-6.6875 4.785 -6.6875 5.445 -6.6875 6.125 C-7.3475 6.125 -8.0075 6.125 -8.6875 6.125 C-8.97625 6.90875 -9.265 7.6925 -9.5625 8.5 C-10.6875 11.125 -10.6875 11.125 -12.6875 13.125 C-12.15510392 8.59963334 -10.41626727 5.73660373 -7.6875 2.125 C-4.48369983 -0.01086678 -3.66810033 -0.10632175 0 0 Z " fill="#E4E4E4" transform="translate(256.6875,45.875)"/>
<path d="M0 0 C1.23556641 0.01740234 1.23556641 0.01740234 2.49609375 0.03515625 C3.32238281 0.04417969 4.14867187 0.05320313 5 0.0625 C5.63808594 0.07410156 6.27617187 0.08570313 6.93359375 0.09765625 C6.93359375 0.75765625 6.93359375 1.41765625 6.93359375 2.09765625 C7.83078125 2.46890625 7.83078125 2.46890625 8.74609375 2.84765625 C11.27453878 4.29248198 12.48429992 5.5804617 13.93359375 8.09765625 C13.60359375 9.08765625 13.27359375 10.07765625 12.93359375 11.09765625 C12.63066406 10.61554687 12.32773438 10.1334375 12.015625 9.63671875 C9.44146677 5.75568019 7.69379845 3.16870231 2.93359375 2.09765625 C0.22472434 1.92967363 0.22472434 1.92967363 -2.06640625 2.09765625 C-1.73640625 4.73765625 -1.40640625 7.37765625 -1.06640625 10.09765625 C-1.72640625 10.09765625 -2.38640625 10.09765625 -3.06640625 10.09765625 C-3.09329841 8.61858733 -3.11275246 7.13938142 -3.12890625 5.66015625 C-3.14050781 4.83644531 -3.15210938 4.01273438 -3.1640625 3.1640625 C-3.03158405 0.36081842 -2.80324408 0.13247845 0 0 Z " fill="#EAEAEA" transform="translate(182.06640625,45.90234375)"/>
<path d="M0 0 C0.33 1.32 0.66 2.64 1 4 C-3.75 5.125 -3.75 5.125 -6 4 C-6 4.99 -6 5.98 -6 7 C-4.906875 6.79375 -3.81375 6.5875 -2.6875 6.375 C1 6 1 6 4 8 C3 9 3 9 0.96875 9.1328125 C0.1540625 9.13023438 -0.660625 9.12765625 -1.5 9.125 C-2.3146875 9.12757812 -3.129375 9.13015625 -3.96875 9.1328125 C-6 9 -6 9 -7 8 C-7.04092937 5.66702567 -7.04241723 3.33294775 -7 1 C-4.61435923 1.57584432 -2.33317216 2.22227595 0 3 C0 2.01 0 1.02 0 0 Z " fill="#F5F5F5" transform="translate(230,56)"/>
<path d="M0 0 C0.99 0.495 0.99 0.495 2 1 C2.33 1.99 2.66 2.98 3 4 C7.74697867 8.53366537 7.74697867 8.53366537 14 10 C14.99 9.67 15.98 9.34 17 9 C17.33 9.99 17.66 10.98 18 12 C9.12186713 12.62060735 9.12186713 12.62060735 5.0625 10.375 C2.43455119 7.34887713 0 4.14229208 0 0 Z " fill="#E8E8E8" transform="translate(199,53)"/>
<path d="M0 0 C2.0625 0.4375 2.0625 0.4375 4 1 C3.5978125 2.5778125 3.5978125 2.5778125 3.1875 4.1875 C2.5625 8.14583333 2.5625 8.14583333 5.4375 10.9375 C6.283125 11.618125 7.12875 12.29875 8 13 C6.35 13 4.7 13 3 13 C3 12.34 3 11.68 3 11 C1.68 10.67 0.36 10.34 -1 10 C-1.02689216 8.52093108 -1.04634621 7.04172517 -1.0625 5.5625 C-1.07410156 4.73878906 -1.08570313 3.91507813 -1.09765625 3.06640625 C-1 1 -1 1 0 0 Z " fill="#777777" transform="translate(219,54)"/>
<path d="M0 0 C-0.33 0.99 -0.66 1.98 -1 3 C-1.53463867 2.84152588 -2.06927734 2.68305176 -2.62011719 2.51977539 C-5.46704032 1.89799663 -8.16527157 1.7835446 -11.078125 1.68359375 C-12.23828125 1.64169922 -13.3984375 1.59980469 -14.59375 1.55664062 C-15.8003125 1.51732422 -17.006875 1.47800781 -18.25 1.4375 C-19.47203125 1.39431641 -20.6940625 1.35113281 -21.953125 1.30664062 C-24.9686392 1.20062645 -27.98423448 1.09856064 -31 1 C-31 0.67 -31 0.34 -31 0 C-26.58369908 -0.19688523 -22.16695334 -0.38088923 -17.75 -0.5625 C-16.49574219 -0.61857422 -15.24148438 -0.67464844 -13.94921875 -0.73242188 C-12.74394531 -0.78076172 -11.53867187 -0.82910156 -10.296875 -0.87890625 C-8.63156738 -0.94960327 -8.63156738 -0.94960327 -6.93261719 -1.02172852 C-4.38493859 -1.00285211 -2.41237207 -0.76220692 0 0 Z " fill="#6B6B6B" transform="translate(390,53)"/>
<path d="M0 0 C2.31 0.33 4.62 0.66 7 1 C6.67 1.99 6.34 2.98 6 4 C3.525 3.01 3.525 3.01 1 2 C1 2.66 1 3.32 1 4 C1.66 4 2.32 4 3 4 C3 4.99 3 5.98 3 7 C1.35 7 -0.3 7 -2 7 C-1.34 4.69 -0.68 2.38 0 0 Z " fill="#EAEAEA" transform="translate(183,51)"/>
<path d="M0 0 C0.99 0.33 1.98 0.66 3 1 C2.34 2.32 1.68 3.64 1 5 C5.64586892 4.51515724 5.64586892 4.51515724 10 3 C9.375 4.9375 9.375 4.9375 8 7 C2.81081081 8.40540541 2.81081081 8.40540541 0 7 C0 4.69 0 2.38 0 0 Z " fill="#797979" transform="translate(253,53)"/>
<path d="M0 0 C2.70583756 0.25560029 5.37210774 0.56759978 8.0625 0.9375 C9.20041992 1.08735352 9.20041992 1.08735352 10.36132812 1.24023438 C12.24154246 1.48856457 14.12086128 1.74365751 16 2 C16 2.33 16 2.66 16 3 C14.77023438 3.09087891 14.77023438 3.09087891 13.515625 3.18359375 C11.89914063 3.30927734 11.89914063 3.30927734 10.25 3.4375 C8.64898437 3.55931641 8.64898437 3.55931641 7.015625 3.68359375 C4.56320038 3.94090773 2.36078709 4.31812218 0 5 C-0.5625 3.0625 -0.5625 3.0625 -1 1 C-0.67 0.67 -0.34 0.34 0 0 Z " fill="#676767" transform="translate(52,51)"/>
<path d="M0 0 C-1.40945366 0.56016748 -2.8280031 1.09748502 -4.25 1.625 C-5.43335938 2.07746094 -5.43335938 2.07746094 -6.640625 2.5390625 C-9.49917715 3.09752136 -10.58959839 2.53690745 -13 1 C-10.7671123 -1.2328877 -10.08090185 -1.36778152 -7.0625 -1.75 C-6.37285156 -1.84796875 -5.68320313 -1.9459375 -4.97265625 -2.046875 C-3 -2 -3 -2 0 0 Z " fill="#939393" transform="translate(236,66)"/>
<path d="M0 0 C0.99 0.66 1.98 1.32 3 2 C2.67 2.99 2.34 3.98 2 5 C0.33333333 5.66666667 -1.33333333 6.33333333 -3 7 C-3.33 7.99 -3.66 8.98 -4 10 C-5.65 9.67 -7.3 9.34 -9 9 C-8.4225 8.731875 -7.845 8.46375 -7.25 8.1875 C-2.76038895 5.92551503 -2.76038895 5.92551503 -0.25 1.8125 C-0.1675 1.214375 -0.085 0.61625 0 0 Z " fill="#EDEDED" transform="translate(408,51)"/>
<path d="M0 0 C0.66 0 1.32 0 2 0 C2 1.65 2 3.3 2 5 C6.95 5 11.9 5 17 5 C17 5.33 17 5.66 17 6 C8.585 6.495 8.585 6.495 0 7 C0 4.69 0 2.38 0 0 Z " fill="#757575" transform="translate(263,48)"/>
<path d="M0 0 C0.66 0.33 1.32 0.66 2 1 C2 1.99 2 2.98 2 4 C-2.455 4.495 -2.455 4.495 -7 5 C-7 4.01 -7 3.02 -7 2 C-4.69 2 -2.38 2 0 2 C0 1.34 0 0.68 0 0 Z " fill="#8B8B8B" transform="translate(217,63)"/>
<path d="M0 0 C2.0625 0.4375 2.0625 0.4375 4 1 C3.0409375 1.7734375 3.0409375 1.7734375 2.0625 2.5625 C-0.55791681 5.65935623 -0.69389817 8.02067623 -1 12 C-1.99 11.01 -2.98 10.02 -4 9 C-3.52418802 7.68628013 -3.04424851 6.37405454 -2.5625 5.0625 C-2.29566406 4.33160156 -2.02882812 3.60070313 -1.75390625 2.84765625 C-1 1 -1 1 0 0 Z " fill="#797979" transform="translate(179,44)"/>
<path d="M0 0 C2.47368421 4.94736842 2.47368421 4.94736842 3 8 C2.67 8.33 2.34 8.66 2 9 C1.76636119 10.84891946 1.58696365 12.70488031 1.4375 14.5625 C1.35371094 15.57441406 1.26992187 16.58632813 1.18359375 17.62890625 C1.12300781 18.41136719 1.06242188 19.19382812 1 20 C0.67 20 0.34 20 0 20 C0 13.4 0 6.8 0 0 Z " fill="#8E8E8E" transform="translate(218,31)"/>
<path d="M0 0 C1.875 0.125 1.875 0.125 4 1 C5.75 3.5625 5.75 3.5625 7 6 C6 7 6 7 3.4375 7.0625 C2.2309375 7.0315625 2.2309375 7.0315625 1 7 C1 6.34 1 5.68 1 5 C1.66 5 2.32 5 3 5 C3 4.01 3 3.02 3 2 C1.68 1.67 0.36 1.34 -1 1 C-0.67 0.67 -0.34 0.34 0 0 Z " fill="#F6F6F6" transform="translate(254,50)"/>
<path d="M0 0 C1.2065625 0.0309375 1.2065625 0.0309375 2.4375 0.0625 C2.7675 1.3825 3.0975 2.7025 3.4375 4.0625 C1.7875 4.3925 0.1375 4.7225 -1.5625 5.0625 C-2.2225 3.7425 -2.8825 2.4225 -3.5625 1.0625 C-2.5625 0.0625 -2.5625 0.0625 0 0 Z " fill="#0B0B0B" transform="translate(39.5625,51.9375)"/>
<path d="M0 0 C2.475 0.495 2.475 0.495 5 1 C5 2.65 5 4.3 5 6 C3.68 6.33 2.36 6.66 1 7 C1.33 5.35 1.66 3.7 2 2 C1.34 2 0.68 2 0 2 C0 1.34 0 0.68 0 0 Z " fill="#828282" transform="translate(184,53)"/>
<path d="M0 0 C3.96 0 7.92 0 12 0 C11.67 0.66 11.34 1.32 11 2 C10.01 2 9.02 2 8 2 C8 2.66 8 3.32 8 4 C6.68 4 5.36 4 4 4 C3.67 3.34 3.34 2.68 3 2 C2.01 1.34 1.02 0.68 0 0 Z " fill="#BEBEBE" transform="translate(386,51)"/>
<path d="M0 0 C0 0.33 0 0.66 0 1 C-1.794375 1.37125 -1.794375 1.37125 -3.625 1.75 C-7.79449098 2.77382519 -10.5823753 4.43678148 -14 7 C-12.56521739 2.45652174 -12.56521739 2.45652174 -10.375 0.6875 C-6.86233535 -0.32932398 -3.65099493 -0.12169983 0 0 Z " fill="#DBDBDB" transform="translate(259,42)"/>
<path d="M0 0 C0 0.99 0 1.98 0 3 C-2.31 3.66 -4.62 4.32 -7 5 C-7 3.68 -7 2.36 -7 1 C-4.53721199 -0.231394 -2.7204945 -0.07159196 0 0 Z " fill="#8C8C8C" transform="translate(219,54)"/>
<path d="M0 0 C0.99 0.33 1.98 0.66 3 1 C0.525 5.455 0.525 5.455 -2 10 C-2.66 10 -3.32 10 -4 10 C-3.29445932 6.33118845 -1.72264494 3.29549466 0 0 Z " fill="#7C7C7C" transform="translate(246,48)"/>
<path d="M0 0 C2.97 0.495 2.97 0.495 6 1 C5.67 1.66 5.34 2.32 5 3 C2.03 3 -0.94 3 -4 3 C-4.33 2.34 -4.66 1.68 -5 1 C-3.35 1 -1.7 1 0 1 C0 0.67 0 0.34 0 0 Z " fill="#EAEAEA" transform="translate(228,62)"/>
<path d="M0 0 C1.98 0.495 1.98 0.495 4 1 C3.34 3.97 2.68 6.94 2 10 C1.67 10 1.34 10 1 10 C0 3.375 0 3.375 0 0 Z " fill="#404040" transform="translate(219,54)"/>
<path d="M0 0 C2.31 0 4.62 0 7 0 C7 0.99 7 1.98 7 3 C4.36 3 1.72 3 -1 3 C-0.67 2.01 -0.34 1.02 0 0 Z " fill="#DBDBDB" transform="translate(181,41)"/>
</svg>
