<?xml version="1.0" encoding="UTF-8"?>
<svg version="1.1" xmlns="http://www.w3.org/2000/svg" width="861" height="232">
<path d="M0 0 C6.18891835 -0.09969757 12.3773579 -0.17185698 18.56689453 -0.21972656 C20.66756343 -0.23970531 22.7681777 -0.26689789 24.86865234 -0.30175781 C53.2758603 -0.76102794 53.2758603 -0.76102794 65 9 C70.5995069 14.71677406 72.61994083 22.07272194 73.375 29.875 C72.94147948 38.44136538 71.07108627 46.13221922 64.984375 52.375 C61.87370306 54.92232191 58.70005488 56.44208216 55 58 C56.45412227 63.18181694 58.80003528 67.21698597 61.6875 71.6875 C62.13158203 72.38866943 62.57566406 73.08983887 63.03320312 73.81225586 C65.04074319 76.97601444 67.07736253 80.11695974 69.14453125 83.2421875 C69.75683594 84.17289062 70.36914062 85.10359375 71 86.0625 C71.53625 86.85785156 72.0725 87.65320313 72.625 88.47265625 C74 91 74 91 76 98 C63.13 97.505 63.13 97.505 50 97 C48.96359375 94.98777344 47.9271875 92.97554688 46.859375 90.90234375 C45.84362951 88.93283403 44.82735714 86.96359704 43.81103516 84.99438477 C43.1102896 83.63594451 42.41008368 82.27722573 41.71044922 80.91821289 C40.69904435 78.95383667 39.68563971 76.99050295 38.671875 75.02734375 C38.36441345 74.42913315 38.0569519 73.83092255 37.74017334 73.21458435 C36.83813256 71.4704723 35.91911846 69.7351731 35 68 C34.73529907 67.35346466 34.47059814 66.70692932 34.19787598 66.040802 C33.2756748 63.81188717 33.2756748 63.81188717 31 61 C28.03 60.67 25.06 60.34 22 60 C22 72.21 22 84.42 22 97 C14.74 97 7.48 97 0 97 C-0.74147956 92.55112261 -1.12837312 88.9072839 -1.1328125 84.47265625 C-1.13413177 83.83083908 -1.13545105 83.18902191 -1.1368103 82.52775574 C-1.1387505 80.37262416 -1.13229392 78.21761894 -1.125 76.0625 C-1.12367065 74.93938416 -1.12367065 74.93938416 -1.12231445 73.7935791 C-1.08899618 49.19315954 -0.50585684 24.59423889 0 0 Z M22 21 C22 27.6 22 34.2 22 41 C25.39631472 41.08107913 28.79068616 41.14053944 32.1875 41.1875 C33.62706055 41.22520508 33.62706055 41.22520508 35.09570312 41.26367188 C42.05038659 41.37512075 42.05038659 41.37512075 48 38 C50.32402951 34.79062591 50.47570691 31.88493979 50 28 C48.82528576 25.04881131 48.82528576 25.04881131 46 23 C38.2614445 20.41601867 30.04922167 20.82689846 22 21 Z " fill="#FDEFDB" transform="translate(212,41)"/>
<path d="M0 0 C6.0648333 -0.07471366 12.12939276 -0.12886656 18.19458008 -0.16479492 C20.25354689 -0.17978857 22.31248227 -0.20019033 24.37133789 -0.22631836 C40.19798668 -0.42199329 53.43184778 -0.50439948 65.78515625 10.60546875 C71.31785935 16.76348964 72.45186934 25.0129532 73 33 C72.56723392 36.98144795 71.58998788 40.33504723 70 44 C69.57654297 45.01513672 69.57654297 45.01513672 69.14453125 46.05078125 C65.92684332 52.61261646 60.51462267 55.44395018 54 58 C57.22170556 64.06324832 60.57256551 70.03206918 64.12109375 75.91015625 C64.47329987 76.49509857 64.82550598 77.08004089 65.18838501 77.68270874 C66.6437331 80.09738462 68.10098046 82.51078221 69.5690918 84.91772461 C70.65616815 86.70260719 71.73314632 88.49325009 72.80859375 90.28515625 C73.44595459 91.33582275 74.08331543 92.38648926 74.73999023 93.46899414 C75.15579346 94.30422607 75.57159668 95.13945801 76 96 C75.67 96.66 75.34 97.32 75 98 C62.13 97.505 62.13 97.505 49 97 C46.75609376 92.53518884 44.51344449 88.06979055 42.27392578 83.6027832 C41.51228292 82.08451467 40.74992122 80.56660652 39.98681641 79.04907227 C38.88773765 76.8630949 37.79128209 74.67581876 36.6953125 72.48828125 C36.3556546 71.81412674 36.0159967 71.13997223 35.66604614 70.44538879 C33.95074018 67.01518151 32.35782341 63.58767117 31 60 C28.03 60 25.06 60 22 60 C22 72.21 22 84.42 22 97 C14.74 97 7.48 97 0 97 C-1.12704122 85.7295878 -1.12704122 85.7295878 -1.1328125 79.94140625 C-1.13413177 79.29431198 -1.13545105 78.64721771 -1.1368103 77.98051453 C-1.13872942 75.84112837 -1.13234 73.70187313 -1.125 71.5625 C-1.12411377 70.81730103 -1.12322754 70.07210205 -1.12231445 69.30432129 C-1.09085159 46.19968967 -0.51766743 23.09778816 0 0 Z M22 21 C20.82455641 24.71290911 20.86691201 28.25085256 20.875 32.125 C20.87242187 33.36507812 20.86984375 34.60515625 20.8671875 35.8828125 C20.78331189 38.90723573 20.78331189 38.90723573 22 41 C25.3956697 41.08745946 28.79104773 41.14054444 32.1875 41.1875 C33.62706055 41.22520508 33.62706055 41.22520508 35.09570312 41.26367188 C42.04814283 41.371631 42.04814283 41.371631 48 38 C50.11599827 35.30691129 49.99897448 33.98085699 49.8125 30.5 C48.87765283 26.13898968 48.87765283 26.13898968 46 23 C38.15100258 20.38366753 30.18100824 20.80598399 22 21 Z " fill="#FDEFDB" transform="translate(298,41)"/>
<path d="M0 0 C0.87454834 0.00523682 1.74909668 0.01047363 2.65014648 0.01586914 C3.50036377 0.0183667 4.35058105 0.02086426 5.2265625 0.0234375 C6.85742798 0.03709351 6.85742798 0.03709351 8.52124023 0.05102539 C11.96561523 0.07165039 15.40999023 0.09227539 18.95874023 0.11352539 C19.45374023 18.42852539 19.45374023 18.42852539 19.95874023 37.11352539 C32.16874023 37.11352539 44.37874023 37.11352539 56.95874023 37.11352539 C56.91913806 25.31089036 56.91913806 25.31089036 56.86865234 13.50830078 C56.86573314 12.0342618 56.86318459 10.56022202 56.86108398 9.08618164 C56.85596802 8.31399292 56.85085205 7.5418042 56.84558105 6.74621582 C56.8452705 4.86827352 56.89640455 2.99043286 56.95874023 1.11352539 C58.58074538 -0.50847976 60.37897054 -0.01638211 62.61499023 -0.01928711 C63.5547168 -0.02057617 64.49444336 -0.02186523 65.46264648 -0.02319336 C66.45135742 -0.01932617 67.44006836 -0.01545898 68.45874023 -0.01147461 C69.94180664 -0.01727539 69.94180664 -0.01727539 71.45483398 -0.02319336 C72.86442383 -0.02125977 72.86442383 -0.02125977 74.30249023 -0.01928711 C75.17067383 -0.01815918 76.03885742 -0.01703125 76.93334961 -0.01586914 C78.95874023 0.11352539 78.95874023 0.11352539 79.95874023 1.11352539 C80.05402244 4.09650753 80.08426198 7.05628884 80.07226562 10.03955078 C80.07241165 10.97603958 80.07255768 11.91252838 80.07270813 12.87739563 C80.07200861 15.98868078 80.06421438 19.09990688 80.05639648 22.21118164 C80.05453244 24.36209582 80.05310848 26.51301042 80.05210876 28.66392517 C80.04828248 34.33734297 80.03845126 40.01073534 80.02740479 45.68414307 C80.01719304 51.46854305 80.01261165 57.25294712 80.00756836 63.03735352 C79.99682908 74.39609047 79.9792314 85.75480184 79.95874023 97.11352539 C72.69874023 97.11352539 65.43874023 97.11352539 57.95874023 97.11352539 C57.95874023 83.91352539 57.95874023 70.71352539 57.95874023 57.11352539 C45.08874023 57.11352539 32.21874023 57.11352539 18.95874023 57.11352539 C18.95874023 70.31352539 18.95874023 83.51352539 18.95874023 97.11352539 C0.95874023 98.11352539 0.95874023 98.11352539 -3.04125977 97.11352539 C-3.0643812 84.61395439 -3.08217383 72.11438844 -3.09307194 59.61480045 C-3.09830121 53.81138926 -3.10539964 48.00799264 -3.11669922 42.20458984 C-3.12752655 36.60901686 -3.13353627 31.01345794 -3.13613701 25.41787529 C-3.13799154 23.27793595 -3.14161267 21.13799743 -3.14698982 18.99806404 C-3.15419821 16.01187573 -3.15525079 13.02574632 -3.15478516 10.03955078 C-3.15838043 9.14547516 -3.16197571 8.25139954 -3.16567993 7.33023071 C-3.15352432 0.17538438 -3.15352432 0.17538438 0 0 Z " fill="#FDEFDB" transform="translate(495.041259765625,40.886474609375)"/>
<path d="M0 0 C0.66 0 1.32 0 2 0 C2.495 3.465 2.495 3.465 3 7 C4.32 7.33 5.64 7.66 7 8 C7.33 7.34 7.66 6.68 8 6 C8.99 6.99 8.99 6.99 10 8 C9.9765625 11.0390625 9.9765625 11.0390625 9.625 14.625 C9.51414062 15.81351563 9.40328125 17.00203125 9.2890625 18.2265625 C9.19367188 19.14179687 9.09828125 20.05703125 9 21 C9.61359375 20.33484375 10.2271875 19.6696875 10.859375 18.984375 C11.56578125 18.32953125 12.2721875 17.6746875 13 17 C15.25 17.25 15.25 17.25 17 18 C18.25438478 25.40087022 18.25438478 25.40087022 17.01168823 28.3276825 C15.95085775 31.12980649 15.77841832 33.01997482 15.83642578 35.99536133 C15.84948761 36.96439896 15.86254944 37.93343658 15.87600708 38.93183899 C15.89887787 39.97140244 15.92174866 41.01096588 15.9453125 42.08203125 C15.97063762 44.31705073 15.99535707 46.55207715 16.01953125 48.78710938 C16.06879808 52.28432229 16.12439517 55.78116599 16.19189453 59.27807617 C16.82046935 94.05509138 16.82046935 94.05509138 7.671875 104.3359375 C7.12015625 104.88507813 6.5684375 105.43421875 6 106 C5.44828125 106.61101562 4.8965625 107.22203125 4.328125 107.8515625 C-3.23068898 115.4426791 -13.54603455 118.4474485 -24.0625 118.5625 C-33.74111455 118.39780236 -43.35384087 116.1169273 -51 110 C-52.299375 109.0409375 -52.299375 109.0409375 -53.625 108.0625 C-61.15983529 101.51909041 -63.62727038 92.6782846 -65 83 C-65.08301288 80.87709919 -65.11786114 78.75196022 -65.11352539 76.62744141 C-65.11344986 75.38660797 -65.11337433 74.14577454 -65.11329651 72.86734009 C-65.10819113 71.52874714 -65.10297515 70.19015461 -65.09765625 68.8515625 C-65.09578906 67.47008312 -65.09436658 66.08860308 -65.09336853 64.7071228 C-65.08956702 61.08711897 -65.07975716 57.46715583 -65.06866455 53.84716797 C-65.05839935 50.14681549 -65.05386 46.44645639 -65.04882812 42.74609375 C-65.03813258 35.49737736 -65.02108485 28.2486944 -65 21 C-61.70880065 20.8035969 -58.41703066 20.61939255 -55.125 20.4375 C-54.18785156 20.38142578 -53.25070313 20.32535156 -52.28515625 20.26757812 C-51.38925781 20.21923828 -50.49335938 20.17089844 -49.5703125 20.12109375 C-48.74289551 20.0739624 -47.91547852 20.02683105 -47.06298828 19.97827148 C-45 20 -45 20 -43 21 C-42.99635437 21.75897583 -42.99270874 22.51795166 -42.98895264 23.29992676 C-42.95096637 30.47919618 -42.89399454 37.65795274 -42.81609726 44.83689117 C-42.77671524 48.52702013 -42.74448186 52.21691378 -42.72900391 55.90722656 C-42.71377536 59.47369583 -42.67922247 63.03951781 -42.63169098 66.60569763 C-42.6097991 68.61728038 -42.6075316 70.62904608 -42.60565186 72.64074707 C-42.47158085 81.07640161 -41.8273324 87.1726676 -35.625 93.375 C-30.44124071 96.58399385 -26.22931425 97.46928082 -20.24609375 96.6015625 C-15.21278122 95.2535101 -11.99185074 92.66480857 -9.34765625 88.2265625 C-5.32214579 78.5886737 -6.95329243 65.98174494 -7.01879883 55.6640625 C-7.05515127 47.07633252 -6.64351093 38.56099362 -6 30 C-6.66 30 -7.32 30 -8 30 C-10.19671115 24.14210361 -9.88178944 20.9589999 -8 15 C-5 16 -5 16 -4 18 C-3.01 18 -2.02 18 -1 18 C-0.93004887 14.50244327 -0.93727147 11.31364266 -1.625 7.875 C-2.05317282 4.59234172 -1.46195327 2.92390654 0 0 Z " fill="#FDEFDC" transform="translate(179,23)"/>
<path d="M0 0 C1.22952393 0.00303635 1.22952393 0.00303635 2.48388672 0.00613403 C3.74821533 0.00469894 3.74821533 0.00469894 5.03808594 0.00323486 C6.8304044 0.00255245 8.62272531 0.00441099 10.41503906 0.00857544 C13.132057 0.01386989 15.84890558 0.00866034 18.56591797 0.00222778 C20.30940791 0.00288959 22.05289775 0.00417288 23.79638672 0.00613403 C24.59987549 0.0041098 25.40336426 0.00208557 26.23120117 0 C34.21518614 0.0323938 41.38649213 0.233406 48.54638672 4.07644653 C49.54412109 4.60109497 50.54185547 5.12574341 51.56982422 5.66629028 C53.48165766 6.74851432 55.34346558 7.92033244 57.17138672 9.13894653 C57.17138672 9.79894653 57.17138672 10.45894653 57.17138672 11.13894653 C57.83138672 11.13894653 58.49138672 11.13894653 59.17138672 11.13894653 C64.78947607 20.12788949 66.17351873 28.58484741 65.17138672 39.13894653 C63.52940393 46.21815378 60.19773431 51.96600602 54.17138672 56.13894653 C45.0199377 60.55967596 35.73421265 61.26226735 25.73388672 61.70144653 C24.8115625 61.74463013 23.88923828 61.78781372 22.93896484 61.83230591 C20.68322509 61.93749584 18.42739173 62.03963761 16.17138672 62.13894653 C16.17924194 63.67603271 16.17924194 63.67603271 16.18725586 65.24417114 C16.20530641 69.0328993 16.21681891 72.82162362 16.22631836 76.61038208 C16.23135846 78.25264118 16.2381905 79.89489577 16.24682617 81.53713989 C16.25890597 83.89270132 16.2646181 86.24820362 16.26904297 88.60379028 C16.27420425 89.34233749 16.27936554 90.0808847 16.28468323 90.84181213 C16.28487922 92.60792741 16.23333391 94.37391799 16.17138672 96.13894653 C15.17138672 97.13894653 15.17138672 97.13894653 13.03833008 97.25247192 C12.12188721 97.24723511 11.20544434 97.24199829 10.26123047 97.23660278 C9.271875 97.23338013 8.28251953 97.23015747 7.26318359 97.22683716 C6.22226562 97.21845825 5.18134766 97.21007935 4.10888672 97.20144653 C3.06410156 97.19693481 2.01931641 97.1924231 0.94287109 97.18777466 C-1.64767988 97.17594566 -4.23811887 97.15946343 -6.82861328 97.13894653 C-6.85173471 84.63937554 -6.86952734 72.13980958 -6.88042545 59.6402216 C-6.88565472 53.8368104 -6.89275316 48.03341379 -6.90405273 42.23001099 C-6.91488007 36.634438 -6.92088979 31.03887908 -6.92349052 25.44329643 C-6.92534505 23.3033571 -6.92896619 21.16341857 -6.93434334 19.02348518 C-6.94155172 16.03729688 -6.94260431 13.05116746 -6.94213867 10.06497192 C-6.94573395 9.1708963 -6.94932922 8.27682068 -6.95303345 7.35565186 C-6.94058613 0.02910508 -6.94058613 0.02910508 0 0 Z M15.17138672 23.13894653 C14.89452607 25.17362087 14.89452607 25.17362087 14.97607422 27.49050903 C14.98251953 28.34129028 14.98896484 29.19207153 14.99560547 30.06863403 C15.01236328 30.95808716 15.02912109 31.84754028 15.04638672 32.76394653 C15.05541016 33.66113403 15.06443359 34.55832153 15.07373047 35.48269653 C15.09733702 37.70171239 15.13026362 39.92019731 15.17138672 42.13894653 C18.40038098 42.22645923 21.62906788 42.27950799 24.85888672 42.32644653 C25.77089844 42.35158325 26.68291016 42.37671997 27.62255859 42.40261841 C34.39707089 42.48217729 34.39707089 42.48217729 40.17138672 39.13894653 C42.65524731 35.41315565 42.55180792 33.55183251 42.17138672 29.13894653 C41.15284765 26.15123193 40.20112468 24.71255896 37.42529297 23.16629028 C31.42582102 20.79952612 20.07956373 18.23076952 15.17138672 23.13894653 Z " fill="#FDEFDB" transform="translate(708.82861328125,40.861053466796875)"/>
<path d="M0 0 C0.64894237 2.06152389 1.2940264 4.12426258 1.9375 6.1875 C2.47697266 7.91033203 2.47697266 7.91033203 3.02734375 9.66796875 C3.83756036 12.44353006 4.49134307 15.15687548 5 18 C-0.33333333 20 -5.66666667 22 -11 24 C-10.39478515 27.28857706 -9.2729301 29.22023119 -7.1875 31.8125 C0.02567374 41.15330053 2.35914143 49.18723195 2.375 60.875 C2.39949219 61.81730469 2.42398438 62.75960937 2.44921875 63.73046875 C2.4769198 70.40642197 1.13475561 75.14107916 -2 81 C-2.48984375 82.01191406 -2.9796875 83.02382812 -3.484375 84.06640625 C-3.90203125 84.89011719 -4.3196875 85.71382813 -4.75 86.5625 C-5.17796875 87.40941406 -5.6059375 88.25632812 -6.046875 89.12890625 C-6.51867187 90.05509766 -6.51867187 90.05509766 -7 91 C-8.051875 90.71125 -9.10375 90.4225 -10.1875 90.125 C-11.445625 90.08375 -12.70375 90.0425 -14 90 C-16.38575852 92.38156477 -16.38575852 92.38156477 -17.6953125 94.30078125 C-19.94177355 97.22656136 -22.73448623 99.30755093 -26 101 C-27.134375 101.12375 -28.26875 101.2475 -29.4375 101.375 C-33.30805244 102.05404429 -33.97403043 102.63744459 -36.6875 105.25 C-41.32831094 109.62795251 -46.76112606 112.56290766 -53 114 C-54.21623047 113.47599609 -54.21623047 113.47599609 -55.45703125 112.94140625 C-58.09727734 111.65546898 -58.09727734 111.65546898 -61.15625 113.1171875 C-62.2596875 113.69726562 -63.363125 114.27734375 -64.5 114.875 C-68.57035005 116.9957665 -71.36766471 118.43212083 -76 118 C-77.7899856 111.6753842 -78.54240047 105.5508985 -79 99 C-79.804375 98.773125 -80.60875 98.54625 -81.4375 98.3125 C-84 97 -84 97 -84.80078125 94.91015625 C-85.06300948 91.07956742 -85.18420448 87.27677615 -85.1875 83.4375 C-85.19974609 82.68275391 -85.21199219 81.92800781 -85.22460938 81.15039062 C-85.23481923 77.28766107 -85.19359668 74.26871916 -83 71 C-84.32 70.67 -85.64 70.34 -87 70 C-87.24991456 63.34949576 -86.73955334 57.43013467 -85 51 C-86.32 50.01 -87.64 49.02 -89 48 C-85.43688035 36.20365242 -77.79792177 25.92350823 -66.90161133 20.05786133 C-54.57962615 13.80772123 -43.39967742 12.37496649 -30 16 C-29.566875 15.07960938 -29.566875 15.07960938 -29.125 14.140625 C-27.77472301 11.57134794 -26.17752696 9.90533609 -24 8 C-23.34 8 -22.68 8 -22 8 C-22 7.34 -22 6.68 -22 6 C-19.08666921 4.99009308 -16.16884681 3.99384048 -13.25 3 C-12.0125 2.57074219 -12.0125 2.57074219 -10.75 2.1328125 C-9.95078125 1.86210937 -9.1515625 1.59140625 -8.328125 1.3125 C-7.5949707 1.06113281 -6.86181641 0.80976563 -6.10644531 0.55078125 C-4 0 -4 0 0 0 Z M-22 16 C-22 16.66 -22 17.32 -22 18 C-22.99 18.495 -22.99 18.495 -24 19 C-21.525 19.99 -21.525 19.99 -19 21 C-18.63261719 20.55011719 -18.26523437 20.10023437 -17.88671875 19.63671875 C-15.38931428 17.4702333 -12.957838 16.79330432 -9.8125 15.8125 C-8.72582031 15.46832031 -7.63914062 15.12414062 -6.51953125 14.76953125 C-5.27236328 14.38861328 -5.27236328 14.38861328 -4 14 C-4.33 12.35 -4.66 10.7 -5 9 C-11.67173052 9 -17.16679816 11.31783572 -22 16 Z M-70 31 C-70.33 31.99 -70.66 32.98 -71 34 C-71.99 34.33 -72.98 34.66 -74 35 C-75.45644757 37.08812458 -75.45644757 37.08812458 -76.6875 39.5625 C-77.12449219 40.38878906 -77.56148437 41.21507813 -78.01171875 42.06640625 C-78.33785156 42.70449219 -78.66398438 43.34257813 -79 44 C-76.36451539 46.63548461 -74.67645078 46.64649512 -71 47 C-65.10101699 46.87176124 -61.24805514 43.82223577 -57 40 C-56.67 39.34 -56.34 38.68 -56 38 C-54.35 38.66 -52.7 39.32 -51 40 C-51.33 41.2375 -51.66 42.475 -52 43.75 C-54.02611533 53.07306691 -54.06284803 60.77287196 -49 69 C-42.41743107 69.54854741 -37.4180806 68.97033436 -32 65 C-29.41670202 62.51492628 -27.04333343 59.95006265 -25 57 C-25 56.34 -25 55.68 -25 55 C-22.69 55.66 -20.38 56.32 -18 57 C-18.33 57.639375 -18.66 58.27875 -19 58.9375 C-20.52960878 63.6219269 -20.98310497 68.28450466 -19.27734375 72.99609375 C-17.19791448 76.91080877 -14.61003658 79.49303015 -11 82 C-10.18247697 80.41925436 -9.37118003 78.83528777 -8.5625 77.25 C-8.11003906 76.36828125 -7.65757812 75.4865625 -7.19140625 74.578125 C-3.24399253 66.03618055 -3.8905648 55.05668445 -6.9609375 46.3046875 C-11.9272313 35.28922381 -19.7626432 27.40545688 -31 23 C-44.90995755 18.64321069 -58.75701401 21.71873576 -70 31 Z M-77 53 C-78.485 58.445 -78.485 58.445 -80 64 C-75.3279679 66.33601605 -72.12092688 66.6102659 -67 66 C-63.54653852 64.65253476 -63.54653852 64.65253476 -61 63 C-61 59.7 -61 56.4 -61 53 C-66.28 53 -71.56 53 -77 53 Z M-59 70 C-60.71216126 71.71216126 -60.17191224 73.91807056 -60.1875 76.25 C-60.20167969 77.20390625 -60.21585938 78.1578125 -60.23046875 79.140625 C-59.9897641 82.12699459 -59.249438 84.29370741 -58 87 C-51.99455031 85.55869208 -47.46063351 83.46063351 -43 79 C-43.33 78.01 -43.66 77.02 -44 76 C-44.60328125 75.98582031 -45.2065625 75.97164063 -45.828125 75.95703125 C-52.46648872 75.56087083 -52.46648872 75.56087083 -55.4375 72.4375 C-55.953125 71.633125 -56.46875 70.82875 -57 70 C-57.66 70 -58.32 70 -59 70 Z M-36 75 C-36.81784722 78.71748735 -36.51892517 81.00917725 -34.75 84.38671875 C-32.41498498 88.01182957 -30.62225379 90.58516414 -27 93 C-24.69 90.36 -22.38 87.72 -20 85 C-22.31 80.71 -24.62 76.42 -27 72 C-31.3064427 72 -32.78102913 72.22810842 -36 75 Z M-76.71484375 74.59765625 C-78.41101641 77.76831336 -78.33011552 80.11034223 -78.25 83.6875 C-78.23453125 84.84636719 -78.2190625 86.00523438 -78.203125 87.19921875 C-78.31389277 89.90414266 -78.31389277 89.90414266 -77 91 C-74.9590495 90.93521484 -74.9590495 90.93521484 -72.625 90.625 C-71.83351563 90.53476563 -71.04203125 90.44453125 -70.2265625 90.3515625 C-67.83581507 90.03660446 -67.83581507 90.03660446 -65 89 C-65.13277344 88.34773438 -65.26554688 87.69546875 -65.40234375 87.0234375 C-66.34482822 82.3591713 -67.25768703 77.70131546 -68 73 C-72.76603627 72.41958196 -72.76603627 72.41958196 -76.71484375 74.59765625 Z M-48.9296875 91.02734375 C-50.94750079 91.97533528 -52.82515573 92.53674842 -55 93 C-54.56453143 99.60718405 -54.56453143 99.60718405 -51 105 C-45.63798075 103.69219043 -41.60581527 101.15215091 -38 97 C-37.09851567 95.03127555 -37.09851567 95.03127555 -37 93 C-38.71767582 90.20688307 -38.71767582 90.20688307 -41 88 C-44.05473924 88 -46.26928999 89.61622035 -48.9296875 91.02734375 Z M-70 97 C-70.92844389 101.33273814 -70.92844389 104.66726186 -70 109 C-65.56909529 107.79157144 -63.01887244 106.48331435 -60 103 C-60.99 100.69 -61.98 98.38 -63 96 C-65.62113708 96 -67.50935112 96.31292445 -70 97 Z " fill="#FAEFDF" transform="translate(682,25)"/>
<path d="M0 0 C0.75410156 -0.00515625 1.50820313 -0.0103125 2.28515625 -0.015625 C9.80765216 0.2655898 16.6794177 4.15560864 23 8 C23.99 9.485 23.99 9.485 25 11 C24.51789063 11.54269531 24.03578125 12.08539063 23.5390625 12.64453125 C22.59160156 13.71767578 22.59160156 13.71767578 21.625 14.8125 C20.99851562 15.52019531 20.37203125 16.22789063 19.7265625 16.95703125 C17.859401 19.08803819 17.859401 19.08803819 16 22 C15.34 22 14.68 22 14 22 C13.34 23.32 12.68 24.64 12 26 C9.42415397 25.504645 7.62905155 24.79295901 5.3125 23.5 C-0.32989036 20.94495531 -5.50876997 20.20561034 -11.4375 22.25 C-15.17241784 23.71453247 -15.17241784 23.71453247 -17 27 C-16.99510849 30.53462587 -16.99510849 30.53462587 -16 34 C-13.21983877 36.57301964 -10.44036156 37.70253865 -6.859375 38.83203125 C-5.87066406 39.15623047 -4.88195312 39.48042969 -3.86328125 39.81445312 C-1.80532695 40.47418628 0.25455394 41.12794273 2.31640625 41.77539062 C10.68261547 44.53699924 18.14399435 48.34245263 23 56 C26.14532582 63.70604825 26.2331073 72.50034005 23.375 80.3125 C18.59406524 90.56203823 11.22726192 94.89518059 1 99 C-2.10324624 99.90553743 -4.7774291 100.09221983 -8 100 C-9.13050781 99.99742187 -10.26101563 99.99484375 -11.42578125 99.9921875 C-23.69165458 99.61631804 -34.18647686 96.81352314 -43 88 C-41.01727184 83.69551588 -38.20343273 80.68764597 -35 77.25 C-34.4534375 76.64800781 -33.906875 76.04601562 -33.34375 75.42578125 C-31.93997089 73.90846118 -30.47416237 72.4490346 -29 71 C-28.34 71 -27.68 71 -27 71 C-27 71.66 -27 72.32 -27 73 C-16.01321699 78.73274087 -16.01321699 78.73274087 -4 78 C0.26312467 75.81718829 0.26312467 75.81718829 3 72.0625 C3 69.2712373 2.24510999 67.49407481 1 65 C-4.08501706 61.14609233 -10.6147084 59.41284063 -16.625 57.5 C-25.61254994 54.62175109 -32.65339484 51.03693515 -38 43 C-41.25143385 36.45259211 -41.08354933 28.37312723 -39.34765625 21.3671875 C-36.1570142 13.50697918 -31.14042763 7.70434952 -23.4375 4.125 C-21.63221231 3.39848178 -19.82048436 2.68755296 -18 2 C-17.030625 1.566875 -16.06125 1.13375 -15.0625 0.6875 C-10.05309115 -0.43706117 -5.10761857 -0.18597311 0 0 Z " fill="#FDEFDC" transform="translate(822,41)"/>
<path d="M0 0 C10.35359699 -0.38408505 21.3519462 1.814422 29.734375 8.16015625 C31.93783689 10.35904664 33.89185056 12.65287789 35.734375 15.16015625 C34.17348474 16.57859634 32.6105861 17.9948265 31.046875 19.41015625 C30.17675781 20.1990625 29.30664062 20.98796875 28.41015625 21.80078125 C25.91016637 24.00515189 23.35491772 26.10149566 20.734375 28.16015625 C17.75267021 27.10778985 15.6159356 26.06709672 13.109375 24.09765625 C7.53042453 20.89492543 2.02396403 20.42722029 -4.24609375 21.82421875 C-13.13178573 24.77412459 -18.07482646 29.91621313 -22.265625 38.16015625 C-25.59549853 46.99976897 -24.80981722 55.53950826 -21.265625 64.16015625 C-17.19652421 72.03941505 -13.10351983 75.2787527 -4.890625 78.47265625 C2.01072248 79.7815325 7.58757032 78.62734835 13.8125 75.48828125 C16.43640544 73.67501326 18.53066537 71.45505386 20.734375 69.16015625 C21.62640625 69.84722656 22.5184375 70.53429687 23.4375 71.2421875 C24.61978168 72.15235673 25.8020739 73.06251225 26.984375 73.97265625 C27.57089844 74.42447266 28.15742187 74.87628906 28.76171875 75.34179688 C31.73895348 77.63326405 34.72157055 79.91546778 37.734375 82.16015625 C36.16894322 86.0025797 33.74906208 88.35579618 30.734375 91.16015625 C30.033125 91.84078125 29.331875 92.52140625 28.609375 93.22265625 C18.23711755 100.21265584 4.08627249 101.51857222 -8.1328125 99.66015625 C-22.06158961 96.39480191 -32.51773888 89.70208896 -40.765625 78.0390625 C-48.00290401 66.30002363 -49.19138773 50.8510913 -46.5390625 37.50390625 C-42.42884682 23.20169234 -34.87996711 12.71670037 -21.7421875 5.375 C-14.68205828 1.91175049 -7.80116322 0.55146154 0 0 Z " fill="#FDEFDB" transform="translate(66.265625,40.83984375)"/>
<path d="M0 0 C5.06168582 -0.41529961 10.10431119 -0.65105752 15.18359375 -0.53515625 C16.43354126 -0.51014038 16.43354126 -0.51014038 17.70874023 -0.48461914 C20.62709414 0.13263525 21.76135337 1.26421071 23.6875 3.5 C24.49763186 5.31630986 25.26179032 7.15328897 26 9 C27.09362578 11.0294412 28.24482958 13.01962035 29.40161133 15.01367188 C30.57616101 17.04071351 31.71889127 19.0821346 32.8515625 21.1328125 C34.86816304 24.7744585 36.92765412 28.38980469 39 32 C42.22194466 28.94605138 44.37816156 25.38346486 46.6875 21.625 C47.36365356 20.56829102 47.36365356 20.56829102 48.0534668 19.49023438 C50.21129033 16.08793962 52.16693475 12.78756551 53.6953125 9.0546875 C55.47395482 5.1451114 56.67253688 2.74757328 60 0 C66.86512251 -1.56273524 74.06768842 -0.79417073 81 0 C80.52552222 5.19906509 77.8257475 8.64657092 74.9375 12.8125 C74.41889404 13.57860596 73.90028809 14.34471191 73.3659668 15.1340332 C70.88889559 18.79262719 68.38918054 22.43533833 65.88183594 26.07324219 C63.68145392 29.27087051 61.49682857 32.47889148 59.3125 35.6875 C58.60536865 36.70239502 57.8982373 37.71729004 57.16967773 38.76293945 C52.45077744 45.71215138 51 49.64739115 51 58 C47.37 58.33 43.74 58.66 40 59 C40.33 59.66 40.66 60.32 41 61 C41.928125 60.649375 42.85625 60.29875 43.8125 59.9375 C47 59 47 59 50 60 C50.33 72.21 50.66 84.42 51 97 C36.87755102 98.17687075 36.87755102 98.17687075 31 96 C26.7602548 89.6403822 27.95912274 82.2630102 29 75 C29.495 73.515 29.495 73.515 30 72 C29.67 71.01 29.34 70.02 29 69 C28.91978001 67.59175107 28.89234023 66.18002769 28.90234375 64.76953125 C28.90556641 63.96708984 28.90878906 63.16464844 28.91210938 62.33789062 C28.92048828 61.50451172 28.92886719 60.67113281 28.9375 59.8125 C28.94201172 58.96751953 28.94652344 58.12253906 28.95117188 57.25195312 C28.96294597 55.16793845 28.9808811 53.08396023 29 51 C34.28 51.33 39.56 51.66 45 52 C45 51.34 45 50.68 45 50 C43.99839844 50.11601563 42.99679687 50.23203125 41.96484375 50.3515625 C40.62258318 50.44542688 39.28011966 50.53642 37.9375 50.625 C36.62652344 50.74101563 35.31554687 50.85703125 33.96484375 50.9765625 C31.16688124 50.69581572 30.21340213 50.21806425 28.22314453 48.18432617 C26.33262695 45.52895704 24.65780075 42.80659366 23 40 C22.3618335 38.98260742 21.72366699 37.96521484 21.06616211 36.91699219 C19.01606281 33.64862382 17.00442548 30.35905033 15 27.0625 C13.64666949 24.84454167 12.29251013 22.62708885 10.9375 20.41015625 C9.96103516 18.80744873 9.96103516 18.80744873 8.96484375 17.17236328 C6.46988311 13.14409308 3.87404415 9.1852084 1.25 5.23999023 C0 3 0 3 0 0 Z M46 49 C46 49.99 46 50.98 46 52 C46.99 52 47.98 52 49 52 C49 51.34 49 50.68 49 50 C48.01 49.67 47.02 49.34 46 49 Z M39 76 C38.95875 77.2375 38.9175 78.475 38.875 79.75 C38.85179687 80.44609375 38.82859375 81.1421875 38.8046875 81.859375 C38.90751009 84.42184168 38.90751009 84.42184168 41 88 C41 84.04 41 80.08 41 76 C40.34 76 39.68 76 39 76 Z " fill="#FCEFDC" transform="translate(375,41)"/>
<path d="M0 0 C2.64 0 5.28 0 8 0 C8.2673999 0.69150146 8.5347998 1.38300293 8.81030273 2.09545898 C10.01663873 5.21053788 11.227013 8.32403193 12.4375 11.4375 C13.06881836 13.07041992 13.06881836 13.07041992 13.71289062 14.73632812 C14.11572266 15.77080078 14.51855469 16.80527344 14.93359375 17.87109375 C15.30540771 18.82943115 15.67722168 19.78776855 16.06030273 20.77514648 C16.80707816 22.93250011 16.80707816 22.93250011 18 24 C20.07561597 19.84876806 20.18180768 17.47398623 19 13 C17.99623677 10.399156 16.94466541 7.8291003 15.83984375 5.26953125 C15 3 15 3 15 0 C17.75 -0.375 17.75 -0.375 21 0 C23.375 3 23.375 3 25 6 C25.99 4.02 26.98 2.04 28 0 C29.98 0 31.96 0 34 0 C33.14552064 4.43323996 32.30437861 8.61237219 30.3125 12.6875 C28.83885467 16.40670011 28.93890838 18.19775504 30 22 C30.33 22.66 30.66 23.32 31 24 C34.11995486 18.10675193 36.54814942 12.11282977 38.8515625 5.85546875 C40 3 40 3 42 0 C45.125 -0.1875 45.125 -0.1875 48 0 C45.918385 8.69002217 42.82202434 16.76843405 39.375 25 C38.38215353 27.39556033 37.389935 29.79138103 36.3984375 32.1875 C35.96192871 33.23292969 35.52541992 34.27835938 35.07568359 35.35546875 C34.32035341 37.21242212 33.63394002 39.09817994 33 41 C32.01 41 31.02 41 30 41 C27.525 34.565 27.525 34.565 25 28 C24.38125 29.4025 23.7625 30.805 23.125 32.25 C21.82047874 35.20691485 20.46652017 38.11980724 19 41 C18.34 41 17.68 41 17 41 C12.88668381 33.33110542 9.90337203 25.24120522 6.8125 17.125 C5.99477281 14.98769832 5.17591108 12.85083768 4.35612488 10.71432495 C3.84941445 9.39270877 3.34408047 8.07056383 2.84028625 6.74783325 C1.96369888 4.45409661 1.09893042 2.19786085 0 0 Z " fill="#EEAB53" transform="translate(355,167)"/>
<path d="M0 0 C0.66 0 1.32 0 2 0 C2.33 2.31 2.66 4.62 3 7 C4.32 7.33 5.64 7.66 7 8 C7.33 7.34 7.66 6.68 8 6 C8.66 6.66 9.32 7.32 10 8 C9.9765625 11.0390625 9.9765625 11.0390625 9.625 14.625 C9.45871094 16.40777344 9.45871094 16.40777344 9.2890625 18.2265625 C9.19367188 19.14179687 9.09828125 20.05703125 9 21 C9.61359375 20.33484375 10.2271875 19.6696875 10.859375 18.984375 C11.56578125 18.32953125 12.2721875 17.6746875 13 17 C15.25 17.25 15.25 17.25 17 18 C18.25506073 25.4048583 18.25506073 25.4048583 17.0625 28.1875 C15.55047747 32.18991259 15.53586975 36.06620885 15.375 40.3125 C15.33632812 41.14845703 15.29765625 41.98441406 15.2578125 42.84570312 C15.16404841 44.89679259 15.08095755 46.94836515 15 49 C14.01 49 13.02 49 12 49 C11.67 47.68 11.34 46.36 11 45 C10.29875 45.33 9.5975 45.66 8.875 46 C4.84318715 47.40236969 1.60102951 47.67411769 -2.375 46 C-2.91125 45.67 -3.4475 45.34 -4 45 C-4 45.99 -4 46.98 -4 48 C-4.99 47.67 -5.98 47.34 -7 47 C-6.67 41.39 -6.34 35.78 -6 30 C-6.66 30 -7.32 30 -8 30 C-10.19671115 24.14210361 -9.88178944 20.9589999 -8 15 C-5 16 -5 16 -4 18 C-3.01 18 -2.02 18 -1 18 C-0.93004887 14.50244327 -0.93727147 11.31364266 -1.625 7.875 C-2.05317282 4.59234172 -1.46195327 2.92390654 0 0 Z " fill="#EFAA51" transform="translate(179,23)"/>
<path d="M0 0 C1.734375 1.60546875 1.734375 1.60546875 3 3 C2.34 4.32 1.68 5.64 1 7 C-3 7 -3 7 -6 5 C-10.89997259 3.66364384 -14.28249231 4.16541368 -19 6 C-22.27318289 8.21161006 -23.36872961 10.49187227 -24.4375 14.1875 C-25.36604557 19.30294194 -24.69421592 23.52455828 -22 28 C-18.78274829 31.07665202 -15.744882 31.91010045 -11.375 32.4375 C-7.80104354 31.97420935 -5.9364632 31.01357476 -3 29 C-2.34 29 -1.68 29 -1 29 C-0.690625 28.05125 -0.38125 27.1025 -0.0625 26.125 C1 23 1 23 2 21 C-2.62 21 -7.24 21 -12 21 C-13 19 -13 19 -12 15 C-5.4 15 1.2 15 8 15 C9.00197268 23.01578144 9.12385601 24.89931142 5 31 C1.04852555 35.8058473 -3.13869299 38.48263533 -9.390625 39.3203125 C-15.37036246 39.59545379 -20.20567601 38.71637106 -25 35 C-30.88945808 28.50748195 -32.35847109 24.07547921 -32.28125 15.33984375 C-31.79065118 9.51398274 -29.77700875 5.8263701 -25.75 1.6875 C-17.29999714 -3.49772903 -9.02625875 -4.7682193 0 0 Z " fill="#E5AA5B" transform="translate(491,169)"/>
<path d="M0 0 C46.86 0 93.72 0 142 0 C142.33 1.32 142.66 2.64 143 4 C142 5 142 5 139.67490292 5.12304783 C138.11661188 5.12166514 138.11661188 5.12166514 136.52684021 5.12025452 C134.74518463 5.12231651 134.74518463 5.12231651 132.92753601 5.12442017 C130.95524773 5.11902725 130.95524773 5.11902725 128.94311523 5.11352539 C127.55382286 5.11324352 126.16453033 5.11340125 124.77523804 5.1139679 C120.99234711 5.11425588 117.20948762 5.10835901 113.42660403 5.10139394 C109.47744323 5.09516055 105.52828178 5.09455661 101.57911682 5.09336853 C94.09574925 5.09025517 86.61239621 5.08204172 79.12903506 5.07201904 C70.61164267 5.06085805 62.0942496 5.05534749 53.57685173 5.05032361 C36.05122606 5.03985911 18.52561457 5.02225958 1 5 C0.67 3.35 0.34 1.7 0 0 Z " fill="#EDB15D" transform="translate(617,185)"/>
<path d="M0 0 C-0.33 1.65 -0.66 3.3 -1 5 C-47.53 5 -94.06 5 -142 5 C-142 3.35 -142 1.7 -142 0 C-123.78085476 -0.15380592 -105.56167228 -0.30184177 -87.34242439 -0.4429636 C-78.88336872 -0.50862067 -70.4243362 -0.57618284 -61.96533203 -0.64819336 C-54.59451192 -0.7109355 -47.22367345 -0.77014046 -39.85279071 -0.82505554 C-35.94812957 -0.85427099 -32.04350105 -0.88528632 -28.13888931 -0.92053413 C-24.46675584 -0.95362751 -20.79461667 -0.98200563 -17.12241745 -1.00670624 C-15.12605793 -1.02137979 -13.1297376 -1.04110783 -11.13342285 -1.06095886 C-9.95269196 -1.06799835 -8.77196106 -1.07503784 -7.55545044 -1.08229065 C-6.52488588 -1.09058679 -5.49432133 -1.09888292 -4.43252754 -1.10743046 C-2 -1 -2 -1 0 0 Z " fill="#F7AF4B" transform="translate(249,185)"/>
<path d="M0 0 C0.99 0 1.98 0 3 0 C4.3671875 1.44140625 4.3671875 1.44140625 5.875 3.5625 C9.3408863 8.23098909 13.05606718 12.62068597 16.875 17 C17.45878418 17.6710376 18.04256836 18.3420752 18.64404297 19.03344727 C21.25511169 22.07853437 21.25511169 22.07853437 24 25 C23.99214478 24.12263184 23.99214478 24.12263184 23.98413086 23.22753906 C23.96329842 20.56837037 23.95031993 17.90921889 23.9375 15.25 C23.92912109 14.32960937 23.92074219 13.40921875 23.91210938 12.4609375 C23.90727539 11.12675781 23.90727539 11.12675781 23.90234375 9.765625 C23.89448853 8.54020996 23.89448853 8.54020996 23.88647461 7.29003906 C23.99700979 5.06031865 24.37944433 3.13866245 25 1 C26.98 1 28.96 1 31 1 C31 14.53 31 28.06 31 42 C30.01 42 29.02 42 28 42 C26.125 40.05078125 26.125 40.05078125 24 37.3125 C22.82630859 35.8275 22.82630859 35.8275 21.62890625 34.3125 C21.20883301 33.77882812 20.78875977 33.24515625 20.35595703 32.6953125 C17.94572063 29.68186605 15.43856536 26.75060133 12.9375 23.8125 C12.44830078 23.23604736 11.95910156 22.65959473 11.45507812 22.06567383 C10.3042751 20.70969365 9.15227439 19.35473007 8 18 C7.98541748 18.65597168 7.97083496 19.31194336 7.95581055 19.98779297 C7.88148586 22.95080031 7.78477631 25.91266117 7.6875 28.875 C7.66494141 29.90753906 7.64238281 30.94007813 7.61914062 32.00390625 C7.58369141 32.99003906 7.54824219 33.97617188 7.51171875 34.9921875 C7.48553467 35.90339355 7.45935059 36.81459961 7.43237305 37.75341797 C7.28968994 38.49479004 7.14700684 39.23616211 7 40 C6.01 40.66 5.02 41.32 4 42 C2.68 41.67 1.36 41.34 0 41 C0 27.47 0 13.94 0 0 Z " fill="#F0AA4B" transform="translate(422,166)"/>
<path d="M0 0 C4.80451474 2.94822496 7.38003902 6.66365796 9 12 C9.85735376 18.44314342 9.73845582 24.53191636 6.41015625 30.24609375 C3.11966461 34.3386997 -1.03431564 37.34477188 -6 39 C-12.84704566 39.74186463 -18.36101069 39.11428404 -24 35 C-28.48210086 30.97606945 -31.07619914 27.05602789 -32 21 C-32.21143152 12.93917334 -29.86744041 7.3746457 -24.5703125 1.3828125 C-17.47309975 -4.86697186 -7.94714616 -3.87297629 0 0 Z M-23 9 C-25.60059866 13.25552508 -25.68576122 18.14823937 -25 23 C-22.63683712 27.81721665 -19.79678945 30.60160527 -15 33 C-10.13245784 33.69536317 -7.32123869 33.56977902 -3.1875 30.875 C1.23098374 27.27363312 2.77061807 23.77770998 3.5 18.125 C3.31597704 13.34040299 1.15083015 9.53224643 -2 6 C-9.07712565 1.37728176 -17.68376037 2.86587735 -23 9 Z " fill="#E7AA55" transform="translate(591,169)"/>
<path d="M0 0 C17 0 17 0 23 5 C23.83984375 7.28125 23.83984375 7.28125 23.9375 9.5 C23.98003906 10.27859375 24.02257812 11.0571875 24.06640625 11.859375 C24 14 24 14 23.375 16.75 C22.72468749 19.12476326 22.72468749 19.12476326 24.4375 21.3125 C26.50855682 24.87471773 26.70877292 28.01996746 26 32 C23.71063381 36.41520623 22.50950852 37.74524574 18 40 C12.06 40 6.12 40 0 40 C0 26.8 0 13.6 0 0 Z M6 6 C5.97310784 7.47906892 5.95365379 8.95827483 5.9375 10.4375 C5.92589844 11.26121094 5.91429687 12.08492187 5.90234375 12.93359375 C5.76732652 14.99163938 5.76732652 14.99163938 7 16 C12.32673036 16.33856828 12.32673036 16.33856828 17 14 C16.74438677 11.6568787 16.40729228 9.32156597 16 7 C13.71294169 5.85647084 12.40735238 5.89665561 9.875 5.9375 C7.956875 5.9684375 7.956875 5.9684375 6 6 Z M6 22 C6 25.96 6 29.92 6 34 C7.588125 34.061875 9.17625 34.12375 10.8125 34.1875 C11.70582031 34.22230469 12.59914063 34.25710937 13.51953125 34.29296875 C16.03460078 34.2029198 16.03460078 34.2029198 17.80078125 32.67578125 C19.65747311 30.08125093 19.38675552 28.09404418 19 25 C17.86066675 23.2247245 17.86066675 23.2247245 16 22 C13.48710325 21.63786432 13.48710325 21.63786432 10.8125 21.8125 C9.224375 21.874375 7.63625 21.93625 6 22 Z " fill="#E9AA56" transform="translate(266,167)"/>
<path d="M0 0 C2.87602455 -0.10852923 5.74790832 -0.1875515 8.625 -0.25 C9.43324219 -0.28351563 10.24148438 -0.31703125 11.07421875 -0.3515625 C16.56425126 -0.44083132 19.66645903 0.30177754 24 4 C26.9224897 8.38373454 27.559524 11.77777599 27 17 C25.44651488 20.77274959 23.46301771 23.77806927 21 27 C21.3609375 27.68707031 21.721875 28.37414062 22.09375 29.08203125 C22.5578125 29.98308594 23.021875 30.88414062 23.5 31.8125 C24.19609375 33.15248047 24.19609375 33.15248047 24.90625 34.51953125 C26 37 26 37 26 40 C23.3125 40.5 23.3125 40.5 20 40 C16.86024696 36.51138551 14.95834002 32.57530076 14 28 C11.36 28 8.72 28 6 28 C6.02320313 28.77085937 6.04640625 29.54171875 6.0703125 30.3359375 C6.09738281 31.84027344 6.09738281 31.84027344 6.125 33.375 C6.14820313 34.37273437 6.17140625 35.37046875 6.1953125 36.3984375 C6 39 6 39 4 41 C1.375 40.625 1.375 40.625 -1 40 C-1.02953635 35.77084853 -1.04697584 31.54172428 -1.0625 27.3125 C-1.07087891 26.13365234 -1.07925781 24.95480469 -1.08789062 23.74023438 C-1.10970358 15.77850456 -0.73348042 7.92770775 0 0 Z M6 6 C5.505 13.425 5.505 13.425 5 21 C8.49018601 22.745093 12.26865797 21.72240902 16 21 C18.65844217 20.15479867 18.65844217 20.15479867 20 18 C20.45364183 14.82450719 20.67895138 13.01284677 20 10 C18.18775608 7.28264098 18.18775608 7.28264098 15 6 C11.91539515 5.69050787 9.11572331 5.81398667 6 6 Z " fill="#F1AD46" transform="translate(299,167)"/>
<path d="M0 0 C2.4375 1.6875 2.4375 1.6875 4 3 C3.34 4.32 2.68 5.64 2 7 C-2 7 -2 7 -3.94140625 6.01953125 C-7.73972676 4.13838959 -11.86473089 4.58378785 -16 5 C-19.81957576 6.38154868 -20.74976338 7.59128019 -22.875 11.0625 C-24.60221829 15.71118466 -24.18316166 20.25125594 -23 25 C-21.22691402 28.03957597 -19.79656266 29.4845771 -16.875 31.375 C-12.5407619 32.31722567 -8.30765503 32.04364325 -4 31 C-1.73523787 29.54380436 -1.73523787 29.54380436 0 28 C1.32 28.99 2.64 29.98 4 31 C2.2608059 35.13928196 0.33706137 36.41134155 -3.65625 38.234375 C-9.34156945 40.09157935 -14.86039479 39.81869311 -20.3125 37.375 C-25.99987954 34.09558357 -29.50293226 29.30370322 -31.55859375 23.13671875 C-32.83319323 16.96675488 -31.22417504 11.21447967 -28.23046875 5.7890625 C-21.43311991 -4.09406692 -10.08986962 -5.23897076 0 0 Z " fill="#E1AA5E" transform="translate(553,169)"/>
<path d="M0 0 C0.80566406 0.04833984 1.61132812 0.09667969 2.44140625 0.14648438 C3.28316406 0.20255859 4.12492187 0.25863281 4.9921875 0.31640625 C6.26642578 0.3947168 6.26642578 0.3947168 7.56640625 0.47460938 C9.66697874 0.60442003 11.76712941 0.74102365 13.8671875 0.87890625 C13.8671875 2.85890625 13.8671875 4.83890625 13.8671875 6.87890625 C9.2471875 6.87890625 4.6271875 6.87890625 -0.1328125 6.87890625 C0.1971875 9.51890625 0.5271875 12.15890625 0.8671875 14.87890625 C1.57746094 14.86730469 2.28773438 14.85570312 3.01953125 14.84375 C3.93863281 14.83472656 4.85773438 14.82570312 5.8046875 14.81640625 C6.72121094 14.80480469 7.63773437 14.79320312 8.58203125 14.78125 C10.8671875 14.87890625 10.8671875 14.87890625 11.8671875 15.87890625 C11.9921875 18.37890625 11.9921875 18.37890625 11.8671875 20.87890625 C10.8671875 21.87890625 10.8671875 21.87890625 8.36328125 21.9765625 C5.53125 21.94401042 2.69921875 21.91145833 -0.1328125 21.87890625 C-0.1328125 26.16890625 -0.1328125 30.45890625 -0.1328125 34.87890625 C3.05375 34.84796875 3.05375 34.84796875 6.3046875 34.81640625 C8.49218361 34.79516842 10.68079297 34.80631679 12.8671875 34.87890625 C13.8671875 35.87890625 13.8671875 35.87890625 13.9296875 38.44140625 C13.9090625 39.24578125 13.8884375 40.05015625 13.8671875 40.87890625 C11.5706505 42.02717475 10.28405583 41.994518 7.734375 41.9765625 C6.92871094 41.97333984 6.12304688 41.97011719 5.29296875 41.96679688 C4.03033203 41.95422852 4.03033203 41.95422852 2.7421875 41.94140625 C1.89269531 41.93689453 1.04320312 41.93238281 0.16796875 41.92773438 C-1.93232159 41.91593499 -4.0325758 41.89799931 -6.1328125 41.87890625 C-7.31087104 38.34473063 -7.26235621 35.52586333 -7.265625 31.796875 C-7.26706009 30.75917717 -7.26706009 30.75917717 -7.26852417 29.70051575 C-7.26920417 28.23711048 -7.26736244 26.77370219 -7.26318359 25.31030273 C-7.25785713 23.08505351 -7.263122 20.86000837 -7.26953125 18.63476562 C-7.26886996 17.20963498 -7.26758775 15.78450445 -7.265625 14.359375 C-7.26449707 13.06926514 -7.26336914 11.77915527 -7.26220703 10.44995117 C-7.14236114 7.14243057 -6.89806856 4.09898014 -6.1328125 0.87890625 C-3.77622853 -0.29938574 -2.60708014 -0.16523747 0 0 Z " fill="#ECAB4D" transform="translate(339.1328125,166.12109375)"/>
<path d="M0 0 C-0.33 1.65 -0.66 3.3 -1 5 C-47.53 5 -94.06 5 -142 5 C-142 3.35 -142 1.7 -142 0 C-123.78085476 -0.15380592 -105.56167228 -0.30184177 -87.34242439 -0.4429636 C-78.88336872 -0.50862067 -70.4243362 -0.57618284 -61.96533203 -0.64819336 C-54.59451192 -0.7109355 -47.22367345 -0.77014046 -39.85279071 -0.82505554 C-35.94812957 -0.85427099 -32.04350105 -0.88528632 -28.13888931 -0.92053413 C-24.46675584 -0.95362751 -20.79461667 -0.98200563 -17.12241745 -1.00670624 C-15.12605793 -1.02137979 -13.1297376 -1.04110783 -11.13342285 -1.06095886 C-9.95269196 -1.06799835 -8.77196106 -1.07503784 -7.55545044 -1.08229065 C-6.52488588 -1.09058679 -5.49432133 -1.09888292 -4.43252754 -1.10743046 C-2 -1 -2 -1 0 0 Z M-141 1 C-141 1.99 -141 2.98 -141 4 C-95.13 4 -49.26 4 -2 4 C-2 3.01 -2 2.02 -2 1 C-47.87 1 -93.74 1 -141 1 Z " fill="#E1B573" transform="translate(249,185)"/>
<path d="M0 0 C1.92179686 -0.02709937 3.84370418 -0.04644098 5.765625 -0.0625 C6.83586914 -0.07410156 7.90611328 -0.08570313 9.00878906 -0.09765625 C12.3146642 0.01027307 14.97699686 0.65644305 18 2 C18.33 3.98 18.66 5.96 19 8 C17.68 8 16.36 8 15 8 C15 7.34 15 6.68 15 6 C11.7 5.67 8.4 5.34 5 5 C5.33 8.63 5.66 12.26 6 16 C8.97 16.33 11.94 16.66 15 17 C15 16.34 15 15.68 15 15 C16.65 14.67 18.3 14.34 20 14 C19.67 16.97 19.34 19.94 19 23 C18.34 22.67 17.68 22.34 17 22 C14.795636 21.77049681 12.58607827 21.58924067 10.375 21.4375 C9.18648438 21.35371094 7.99796875 21.26992187 6.7734375 21.18359375 C5.40058594 21.09271484 5.40058594 21.09271484 4 21 C4 24.63 4 28.26 4 32 C3.01 31.67 2.02 31.34 1 31 C-0.18135474 24.51650193 -0.11322974 18.13785493 -0.0625 11.5625 C-0.05798828 10.44939453 -0.05347656 9.33628906 -0.04882812 8.18945312 C-0.03711193 5.45957899 -0.02070699 2.72981826 0 0 Z " fill="#EEAA50" transform="translate(267,168)"/>
<path d="M0 0 C3.47914941 -0.02887814 6.95826831 -0.04675687 10.4375 -0.0625 C11.92733398 -0.07506836 11.92733398 -0.07506836 13.44726562 -0.08789062 C14.39150391 -0.09111328 15.33574219 -0.09433594 16.30859375 -0.09765625 C17.62041626 -0.10551147 17.62041626 -0.10551147 18.95874023 -0.11352539 C21 0 21 0 22 1 C22.0952822 3.98298214 22.12552175 6.94276345 22.11352539 9.92602539 C22.11367142 10.86251419 22.11381744 11.79900299 22.1139679 12.76387024 C22.11326837 15.87515539 22.10547415 18.98638149 22.09765625 22.09765625 C22.09579221 24.24857043 22.09436824 26.39948503 22.09336853 28.55039978 C22.08954225 34.22381758 22.07971102 39.89720995 22.06866455 45.57061768 C22.0584528 51.35501766 22.05387142 57.13942173 22.04882812 62.92382812 C22.03808885 74.28256328 22.02101111 85.64127953 22 97 C20.68 96.67 19.36 96.34 18 96 C18.99 96 19.98 96 21 96 C20.83890747 95.34887741 20.67781494 94.69775482 20.51184082 94.02690125 C19.86503106 90.20182673 19.83121329 86.43695946 19.81054688 82.56958008 C19.80225357 81.73325546 19.79396027 80.89693085 19.78541565 80.03526306 C19.76806283 78.22540453 19.75288316 76.41552414 19.73963928 74.60563087 C19.71856196 71.74400176 19.69154611 68.88248317 19.66296387 66.0209198 C19.59323498 58.91807576 19.53364766 51.81515334 19.47393799 44.71221924 C19.42305803 38.70233547 19.36826676 32.69251287 19.30812073 26.68271446 C19.28150071 23.85862912 19.26071865 21.03453815 19.2401123 18.21040344 C19.22351559 16.48767826 19.20664431 14.76495568 19.18945312 13.04223633 C19.18526871 12.25311859 19.18108429 11.46400085 19.17677307 10.65097046 C19.21231626 6.69602733 19.21231626 6.69602733 18 3 C15.20865148 2.80574127 12.41716313 2.61930483 9.625 2.4375 C8.8309375 2.38142578 8.036875 2.32535156 7.21875 2.26757812 C2.98409115 1.84647196 2.98409115 1.84647196 -1 3 C-0.67 2.01 -0.34 1.02 0 0 Z " fill="#F8F4E9" transform="translate(553,41)"/>
<path d="M0 0 C0.83265381 0.00523682 1.66530762 0.01047363 2.52319336 0.01586914 C3.42231445 0.0190918 4.32143555 0.02231445 5.24780273 0.02563477 C6.66609375 0.03820313 6.66609375 0.03820313 8.11303711 0.05102539 C9.06243164 0.05553711 10.01182617 0.06004883 10.98999023 0.06469727 C13.34356776 0.07652429 15.69702188 0.09300514 18.05053711 0.11352539 C18.05053711 0.44352539 18.05053711 0.77352539 18.05053711 1.11352539 C12.11053711 1.11352539 6.17053711 1.11352539 0.05053711 1.11352539 C-0.08241699 8.47020104 -0.21320678 15.8269085 -0.34061432 23.18368244 C-0.39991089 26.60310994 -0.4600045 30.02251874 -0.5222168 33.44189453 C-0.85171584 51.66857146 -1.02267589 69.88391197 -0.94946289 88.11352539 C-1.93946289 88.60852539 -1.93946289 88.60852539 -2.94946289 89.11352539 C-2.9725853 77.65702523 -2.99037746 66.20053058 -3.00127506 54.74401188 C-3.00650411 49.42487326 -3.01360216 44.10575055 -3.02490234 38.78662109 C-3.03573044 33.65788554 -3.04173956 28.52916533 -3.04434013 23.40041924 C-3.04619452 21.43910925 -3.0498154 19.47780015 -3.05519295 17.51649666 C-3.06240235 14.77937092 -3.06345388 12.04230942 -3.06298828 9.30517578 C-3.06658356 8.48590607 -3.07017883 7.66663635 -3.07388306 6.82254028 C-3.06157062 0.17828808 -3.06157062 0.17828808 0 0 Z " fill="#FEFAE3" transform="translate(494.949462890625,40.886474609375)"/>
<path d="M0 0 C0.80566406 0.04833984 1.61132812 0.09667969 2.44140625 0.14648438 C3.28316406 0.20255859 4.12492187 0.25863281 4.9921875 0.31640625 C6.26642578 0.3947168 6.26642578 0.3947168 7.56640625 0.47460938 C9.66697874 0.60442003 11.76712941 0.74102365 13.8671875 0.87890625 C13.8671875 2.85890625 13.8671875 4.83890625 13.8671875 6.87890625 C9.2471875 6.87890625 4.6271875 6.87890625 -0.1328125 6.87890625 C-0.1328125 7.86890625 -0.1328125 8.85890625 -0.1328125 9.87890625 C-1.1228125 10.20890625 -2.1128125 10.53890625 -3.1328125 10.87890625 C-3.4628125 17.14890625 -3.7928125 23.41890625 -4.1328125 29.87890625 C-4.7928125 29.54890625 -5.4528125 29.21890625 -6.1328125 28.87890625 C-6.33094108 25.337751 -6.51441213 21.79598009 -6.6953125 18.25390625 C-6.75138672 17.25488281 -6.80746094 16.25585938 -6.86523438 15.2265625 C-7.35842537 5.29698378 -7.35842537 5.29698378 -6.1328125 0.87890625 C-3.77622853 -0.29938574 -2.60708014 -0.16523747 0 0 Z " fill="#DFAD67" transform="translate(339.1328125,166.12109375)"/>
<path d="M0 0 C2.87602455 -0.10852923 5.74790832 -0.1875515 8.625 -0.25 C9.43324219 -0.28351563 10.24148438 -0.31703125 11.07421875 -0.3515625 C16.56425126 -0.44083132 19.66645903 0.30177754 24 4 C26.9224897 8.38373454 27.559524 11.77777599 27 17 C24.69767442 22.65116279 24.69767442 22.65116279 22 24 C21.67 23.01 21.34 22.02 21 21 C20.34 20.67 19.68 20.34 19 20 C19 20.66 19 21.32 19 22 C15.7 22 12.4 22 9 22 C9 21.67 9 21.34 9 21 C9.95712891 20.80083984 9.95712891 20.80083984 10.93359375 20.59765625 C11.75988281 20.42105469 12.58617187 20.24445313 13.4375 20.0625 C14.26121094 19.88847656 15.08492188 19.71445313 15.93359375 19.53515625 C17.97661204 19.19247006 17.97661204 19.19247006 19 18 C19.07179964 16.48071962 19.08392007 14.95832518 19.0625 13.4375 C19.05347656 12.61121094 19.04445313 11.78492188 19.03515625 10.93359375 C19.02355469 10.29550781 19.01195312 9.65742188 19 9 C20.32 9 21.64 9 23 9 C22.73323796 7.01508358 22.73323796 7.01508358 22 5 C21.01 4.67 20.02 4.34 19 4 C19 3.34 19 2.68 19 2 C13.39 2 7.78 2 2 2 C2 5.63 2 9.26 2 13 C1.01 13 0.02 13 -1 13 C-0.67 8.71 -0.34 4.42 0 0 Z " fill="#E3AC63" transform="translate(299,167)"/>
<path d="M0 0 C3.125 -0.1875 3.125 -0.1875 6 0 C3.947367 8.82272079 0.7122911 16.77048736 -3 25 C-4.32 24.34 -5.64 23.68 -7 23 C-7.99 24.32 -8.98 25.64 -10 27 C-9.360541 21.56021867 -7.57252224 16.86007112 -5.5625 11.8125 C-5.24990234 11.00619141 -4.93730469 10.19988281 -4.61523438 9.36914062 C-3.27453458 5.9592847 -2.04519188 3.06778782 0 0 Z " fill="#F0AA4B" transform="translate(397,167)"/>
<path d="M0 0 C5.61 0 11.22 0 17 0 C17.99 0.99 18.98 1.98 20 3 C13.73 2.34 7.46 1.68 1 1 C1.14141733 4.85437451 1.28797937 8.70843839 1.4375 12.5625 C1.47681641 13.64853516 1.51613281 14.73457031 1.55664062 15.85351562 C1.82196115 23.97793106 1.82196115 23.97793106 3 32 C3.66 32.33 4.32 32.66 5 33 C5 29.37 5 25.74 5 22 C5.33 22 5.66 22 6 22 C6 25.96 6 29.92 6 34 C7.60875 33.87625 9.2175 33.7525 10.875 33.625 C11.77992188 33.55539063 12.68484375 33.48578125 13.6171875 33.4140625 C16.17941903 33.20431868 16.17941903 33.20431868 18 31 C18.34490322 26.94738713 18.30163882 25.45245824 16 22 C17.32 22.66 18.64 23.32 20 24 C20.486618 31.29927007 20.486618 31.29927007 18.4375 34.25 C15.09606843 36.64897651 12.81703913 36.40063108 8.75 36.25 C7.48671875 36.21390625 6.2234375 36.1778125 4.921875 36.140625 C3.95765625 36.09421875 2.9934375 36.0478125 2 36 C1.67 36.99 1.34 37.98 1 39 C6.61 39 12.22 39 18 39 C18 39.33 18 39.66 18 40 C12.06 40 6.12 40 0 40 C0 26.8 0 13.6 0 0 Z " fill="#D4A66E" transform="translate(266,167)"/>
<path d="M0 0 C13.53 0 27.06 0 41 0 C41.495 0.99 41.495 0.99 42 2 C37.88050802 3.16377536 33.97764633 3.02864485 29.734375 2.87890625 C29.03070801 2.85824097 28.32704102 2.83757568 27.60205078 2.81628418 C24.98451075 2.73778053 22.36726919 2.64956688 19.75 2.5625 C13.8925 2.376875 8.035 2.19125 2 2 C1.67 22.13 1.34 42.26 1 63 C0.67 63 0.34 63 0 63 C-1.10746436 56.01961855 -1.04306684 49.24191061 -0.87890625 42.1875 C-0.84348976 40.37330566 -0.84348976 40.37330566 -0.80735779 38.52246094 C-0.73114029 34.68150861 -0.64693653 30.84077956 -0.5625 27 C-0.50923733 24.38672946 -0.45649726 21.77344822 -0.40429688 19.16015625 C-0.27655887 12.77325586 -0.1380109 6.38671963 0 0 Z " fill="#F8F0E7" transform="translate(212,41)"/>
<path d="M0 0 C0.66 0.33 1.32 0.66 2 1 C0.71034824 2.37562854 -0.62689293 3.70766393 -2 5 C-2.66 5 -3.32 5 -4 5 C-4.33 5.99 -4.66 6.98 -5 8 C-6.423125 8.928125 -6.423125 8.928125 -7.875 9.875 C-11.07364004 12.05007523 -12.16319438 13.69374989 -14 17 C-14.66 17 -15.32 17 -16 17 C-16.33 19.31 -16.66 21.62 -17 24 C-17.66 24 -18.32 24 -19 24 C-20.53877128 29.58750553 -21.42771997 34.84475164 -21.75 40.625 C-21.80542969 41.34945312 -21.86085938 42.07390625 -21.91796875 42.8203125 C-22.19110934 47.38920961 -21.64469904 50.66286771 -20 55 C-19.73788562 56.61719629 -19.52332474 58.24342789 -19.375 59.875 C-19.30023437 60.65617187 -19.22546875 61.43734375 -19.1484375 62.2421875 C-19.07496094 63.11230469 -19.07496094 63.11230469 -19 64 C-19.99 64.495 -19.99 64.495 -21 65 C-25.84805924 48.40694011 -25.61518264 32.96373588 -17.8125 17.25 C-13.53320821 10.07822395 -7.16138671 4.22338191 0 0 Z " fill="#F7EFE8" transform="translate(43,47)"/>
<path d="M0 0 C1.98 0 3.96 0 6 0 C6 13.53 6 27.06 6 41 C5.01 41 4.02 41 3 41 C-2 35.65116279 -2 35.65116279 -2 33 C-1.01 33.33 -0.02 33.66 1 34 C1 34.66 1 35.32 1 36 C1.99 36 2.98 36 4 36 C4 24.78 4 13.56 4 2 C3.34 2 2.68 2 2 2 C0.99740493 5.00778521 0.69685358 7.53820647 0.4375 10.6875 C0.31181641 12.17830078 0.31181641 12.17830078 0.18359375 13.69921875 C0.12300781 14.45847656 0.06242187 15.21773437 0 16 C-0.33 16 -0.66 16 -1 16 C-1.02712153 14.083412 -1.04645097 12.1667127 -1.0625 10.25 C-1.07410156 9.18265625 -1.08570313 8.1153125 -1.09765625 7.015625 C-1.01510087 4.46631499 -0.74617558 2.42066409 0 0 Z " fill="#E7AC5C" transform="translate(447,167)"/>
<path d="M0 0 C0.99 0.33 1.98 0.66 3 1 C-5.96035234 9.56211446 -15.21299241 13 -27.4375 13 C-36.35118685 12.70774797 -47.35528609 11.64471391 -54 5 C-50.6875 4.8125 -50.6875 4.8125 -47 5 C-45.5 6.375 -45.5 6.375 -44 8 C-40.49895468 9.31001496 -40.49895468 9.31001496 -37 10 C-36.34 9.67 -35.68 9.34 -35 9 C-34.34 9.33 -33.68 9.66 -33 10 C-22.71719065 10.8430798 -14.62773442 9.75182295 -6 4 C-5.01 4 -4.02 4 -3 4 C-3 3.34 -3 2.68 -3 2 C-2.01 1.34 -1.02 0.68 0 0 Z " fill="#F8F2E9" transform="translate(838,128)"/>
<path d="M0 0 C0.99 0.33 1.98 0.66 3 1 C2.67 1.66 2.34 2.32 2 3 C3.0008053 5.3751033 3.0008053 5.3751033 4.4375 7.9375 C7 12.67847411 7 12.67847411 7 16 C4.3125 16.5 4.3125 16.5 1 16 C-2.13975304 12.51138551 -4.04165998 8.57530076 -5 4 C-7.64 4 -10.28 4 -13 4 C-13 3.34 -13 2.68 -13 2 C-8.71 2.33 -4.42 2.66 0 3 C0 2.01 0 1.02 0 0 Z " fill="#F3A94D" transform="translate(318,191)"/>
<path d="M0 0 C6.16529701 0.31616908 10.17268433 3.49215061 15 7 C12.58880952 11.42051588 9.62693572 15.4942989 6 19 C5.34 19 4.68 19 4 19 C3.34 20.32 2.68 21.64 2 23 C-0.57584603 22.504645 -2.37094845 21.79295901 -4.6875 20.5 C-10.68262451 17.78522664 -16.59220181 17.52127734 -23 19 C-22.505 17.515 -22.505 17.515 -22 16 C-12.86383442 15.65354428 -6.20652942 15.89673529 2 20 C2.3403125 18.8553125 2.3403125 18.8553125 2.6875 17.6875 C4.28367034 14.41915121 5.83319161 13.6625744 9 12 C9.66 11.34 10.32 10.68 11 10 C11 9.01 11 8.02 11 7 C10.34 6.67 9.68 6.34 9 6 C9 5.34 9 4.68 9 4 C7.88625 3.8453125 7.88625 3.8453125 6.75 3.6875 C3.82985982 2.95746496 2.26812446 1.93210602 0 0 Z " fill="#F7F0E6" transform="translate(832,44)"/>
<path d="M0 0 C0.33 0 0.66 0 1 0 C1.33 11.55 1.66 23.1 2 35 C-12.12244898 36.17687075 -12.12244898 36.17687075 -18 34 C-22.09728318 27.85407523 -21.40097244 20.04140933 -20 13 C-19.34 12.67 -18.68 12.34 -18 12 C-16.73735399 16.29299643 -17.37049588 18.87831311 -19 23 C-18.34 23.33 -17.68 23.66 -17 24 C-16.66073053 26.33247761 -16.32759934 28.66585471 -16 31 C-15.34 31.66 -14.68 32.32 -14 33 C-9.71 33 -5.42 33 -1 33 C-0.67 22.11 -0.34 11.22 0 0 Z " fill="#F4EEE5" transform="translate(424,103)"/>
<path d="M0 0 C1.875 0.1875 1.875 0.1875 4 1 C6.11498931 4.70957116 6.24450695 8.04185066 6.1875 12.25 C6.18105469 13.30703125 6.17460937 14.3640625 6.16796875 15.453125 C6 18 6 18 5 19 C2.5 19.125 2.5 19.125 0 19 C-1 18 -1 18 -1.1328125 16.25 C-1.11374984 10.75995455 -0.69169796 5.44712142 0 0 Z " fill="#E9B263" transform="translate(408,189)"/>
<path d="M0 0 C6.96530882 -0.4353318 12.14919637 1.05902732 17.9375 5 C20 7 20 7 21 10 C20.34 10 19.68 10 19 10 C19 9.34 19 8.68 19 8 C17.68 8 16.36 8 15 8 C15.66 8.9075 16.32 9.815 17 10.75 C19.98500994 15.84764022 19.33808145 21.28078883 19 27 C18.34 27 17.68 27 17 27 C17.04640625 26.35933594 17.0928125 25.71867187 17.140625 25.05859375 C17.40353522 18.75813814 17.11318761 14.9157608 13 10 C10.07735429 8.59149605 7.16032197 7.7090466 4 7 C4 6.67 4 6.34 4 6 C6.64 6 9.28 6 12 6 C12 5.01 12 4.02 12 3 C8.7 3.66 5.4 4.32 2 5 C2 4.01 2 3.02 2 2 C1.34 1.34 0.68 0.68 0 0 Z " fill="#E4AC63" transform="translate(576,166)"/>
<path d="M0 0 C12.87 0 25.74 0 39 0 C38.67 0.66 38.34 1.32 38 2 C34.11632938 3.11694774 30.32899553 3.12891433 26.30859375 3.1328125 C25.03435547 3.13410156 23.76011719 3.13539062 22.44726562 3.13671875 C21.78895752 3.13462402 21.13064941 3.1325293 20.45239258 3.13037109 C18.44019058 3.12500717 16.42821084 3.13033628 14.41601562 3.13671875 C13.14306641 3.13542969 11.87011719 3.13414063 10.55859375 3.1328125 C9.39642334 3.13168457 8.23425293 3.13055664 7.03686523 3.12939453 C4.49534549 3.02110564 2.41549324 2.74693742 0 2 C0 1.34 0 0.68 0 0 Z " fill="#F9F2E6" transform="translate(703,41)"/>
<path d="M0 0 C1.94921875 0.73046875 1.94921875 0.73046875 4 2 C4.64453125 3.98828125 4.64453125 3.98828125 4.8125 6.3125 C4.87050781 7.11429688 4.92851562 7.91609375 4.98828125 8.7421875 C5.00141873 11.27334266 4.59520667 13.54477247 4 16 C4.33 16.66 4.66 17.32 5 18 C4.01 18 3.02 18 2 18 C1 15 1 15 2 12 C0.35 12.33 -1.3 12.66 -3 13 C-3 13.66 -3 14.32 -3 15 C-5.97 15 -8.94 15 -12 15 C-12 14.01 -12 13.02 -12 12 C-10.88625 12.020625 -9.7725 12.04125 -8.625 12.0625 C-5.16784079 12.26380718 -5.16784079 12.26380718 -3 11 C-2.34444881 8.47266765 -2.34444881 8.47266765 -2 6 C-1.01 6 -0.02 6 1 6 C0.67 4.02 0.34 2.04 0 0 Z " fill="#E7AA58" transform="translate(285,170)"/>
<path d="M0 0 C0 0.99 0 1.98 0 3 C0.33 3.33 0.66 3.66 1 4 C1.33 4 1.66 4 2 4 C2.33 9.61 2.66 15.22 3 21 C3.99 21 4.98 21 6 21 C6.33 21.99 6.66 22.98 7 24 C3.84859577 23.65930765 2.39218439 23.41923159 0.1875 21.0625 C-1 19 -1 19 -1 17 C-1.66 17 -2.32 17 -3 17 C-3.08126087 14.91731407 -3.13930839 12.83371342 -3.1875 10.75 C-3.22230469 9.58984375 -3.25710938 8.4296875 -3.29296875 7.234375 C-2.97982934 3.77731593 -2.34290892 2.48434437 0 0 Z " fill="#F1AA4A" transform="translate(463,178)"/>
<path d="M0 0 C1.32 0 2.64 0 4 0 C4 0.66 4 1.32 4 2 C4.66 2 5.32 2 6 2 C7.74301123 7.2290337 8.37440428 11.47753685 8 17 C7.34 17.66 6.68 18.32 6 19 C6 20.32 6 21.64 6 23 C5.34 23 4.68 23 4 23 C4 23.66 4 24.32 4 25 C3.34 25 2.68 25 2 25 C2.33 23.35 2.66 21.7 3 20 C2.34 19.67 1.68 19.34 1 19 C1.99 19 2.98 19 4 19 C3.91227545 17.10333474 3.80408699 15.20761007 3.6875 13.3125 C3.62949219 12.25675781 3.57148437 11.20101562 3.51171875 10.11328125 C2.96006867 6.75705899 1.84127215 4.81867667 0 2 C0 1.34 0 0.68 0 0 Z " fill="#F3AA4A" transform="translate(591,174)"/>
<path d="M0 0 C0.99 0 1.98 0 3 0 C4.6875 2 4.6875 2 6 4 C5.67 4.66 5.34 5.32 5 6 C3.68 5.01 2.36 4.02 1 3 C1 13.56 1 24.12 1 35 C1.66 35 2.32 35 3 35 C3 35.66 3 36.32 3 37 C3.66 37 4.32 37 5 37 C5.495 34.03 5.495 34.03 6 31 C6.33 31 6.66 31 7 31 C7.08096803 32.45742463 7.13917774 33.91612807 7.1875 35.375 C7.22230469 36.18710938 7.25710938 36.99921875 7.29296875 37.8359375 C7.19628906 38.55007812 7.09960938 39.26421875 7 40 C6.01 40.66 5.02 41.32 4 42 C2.68 41.67 1.36 41.34 0 41 C0 27.47 0 13.94 0 0 Z " fill="#E2AF6C" transform="translate(422,166)"/>
<path d="M0 0 C0.33 0 0.66 0 1 0 C1.03738281 0.90363281 1.07476563 1.80726563 1.11328125 2.73828125 C1.17902344 3.91777344 1.24476563 5.09726563 1.3125 6.3125 C1.37050781 7.48425781 1.42851563 8.65601563 1.48828125 9.86328125 C1.73929837 13.32332832 1.73929837 13.32332832 5 16 C5 11.71 5 7.42 5 3 C5.33 3 5.66 3 6 3 C6.09796875 3.66386719 6.1959375 4.32773438 6.296875 5.01171875 C7.35131533 11.2383707 8.4979193 15.37343948 13.75 19.3125 C17.19790709 20.36602717 20.46419394 20.57116867 24 20 C27.14344435 18.25364203 29.46862726 16.53137274 32 14 C31.69895795 16.80972581 30.95275592 18.05669289 29.125 20.25 C24.49075572 22.8451768 20.19754867 22.79375193 15 22 C12.65328404 20.9045511 11.04449753 19.63559803 9 18 C8.01 18 7.02 18 6 18 C5.34 18.66 4.68 19.32 4 20 C-1.13518168 12.87700605 -1.18870462 8.39408338 0 0 Z " fill="#D8A763" transform="translate(560,181)"/>
<path d="M0 0 C0.66 0 1.32 0 2 0 C1.34309381 3.78239671 0.279869 7.21841526 -1.0625 10.8125 C-1.42472656 11.78832031 -1.78695313 12.76414063 -2.16015625 13.76953125 C-2.43730469 14.50558594 -2.71445312 15.24164063 -3 16 C-3.99 16 -4.98 16 -6 16 C-7.65 11.38 -9.3 6.76 -11 2 C-9.68 2.33 -8.36 2.66 -7 3 C-7.33 4.32 -7.66 5.64 -8 7 C-7.01 7 -6.02 7 -5 7 C-5.33 6.34 -5.66 5.68 -6 5 C-5.67 4.34 -5.34 3.68 -5 3 C-3.66666667 2.66666667 -2.33333333 2.33333333 -1 2 C-0.67 1.34 -0.34 0.68 0 0 Z " fill="#E6AC56" transform="translate(391,192)"/>
<path d="M0 0 C0.33 0 0.66 0 1 0 C1.13535156 0.60328125 1.27070313 1.2065625 1.41015625 1.828125 C2.95600003 7.58014663 2.95600003 7.58014663 7.1875 11.5 C11.03387226 13.30812371 14.78910416 13.70449854 19 14 C19 14.33 19 14.66 19 15 C15.7 15 12.4 15 9 15 C9.33 15.99 9.66 16.98 10 18 C8.25390625 18.66015625 8.25390625 18.66015625 6 19 C0.65185081 16.36185347 -2.87434592 12.57984197 -5 7 C-4.34 7 -3.68 7 -3 7 C-2.360625 7.99 -1.72125 8.98 -1.0625 10 C-0.0415625 11.485 -0.0415625 11.485 1 13 C1.99 13 2.98 13 4 13 C4 12.34 4 11.68 4 11 C3.01 11 2.02 11 1 11 C0.67 7.37 0.34 3.74 0 0 Z " fill="#DFA85E" transform="translate(465,188)"/>
<path d="M0 0 C0.33 0.66 0.66 1.32 1 2 C1.66 2 2.32 2 3 2 C3 2.66 3 3.32 3 4 C2.01 4.495 2.01 4.495 1 5 C-1.07351958 9.8788696 -1.5587029 14.77411334 -2 20 C-3.32 19.67 -4.64 19.34 -6 19 C-7.60317339 7.84277977 -7.60317339 7.84277977 -5 4 C-2.9375 3.375 -2.9375 3.375 -1 3 C-0.67 2.01 -0.34 1.02 0 0 Z " fill="#EDAC50" transform="translate(529,172)"/>
<path d="M0 0 C6.93 0 13.86 0 21 0 C20.14958207 4.25208964 19.73239716 5.83972382 17.49609375 9.20703125 C17.00302734 9.95791016 16.50996094 10.70878906 16.00195312 11.48242188 C15.48568359 12.25134766 14.96941406 13.02027344 14.4375 13.8125 C13.65729492 14.99489258 13.65729492 14.99489258 12.86132812 16.20117188 C11.58123434 18.13892853 10.2940192 20.07152677 9 22 C8.01 21.01 7.02 20.02 6 19 C7.28965176 17.62437146 8.62689293 16.29233607 10 15 C10.66 15 11.32 15 12 15 C12.33 13.35 12.66 11.7 13 10 C13.66 10 14.32 10 15 10 C15.38063221 7.6739143 15.71269945 5.33944736 16 3 C14.83722968 1.60843516 14.83722968 1.60843516 11.62109375 1.90234375 C10.22652923 1.90901631 8.83198257 1.92097468 7.4375 1.9375 C6.72658203 1.94201172 6.01566406 1.94652344 5.28320312 1.95117188 C3.52209987 1.96299136 1.76103964 1.98092737 0 2 C0 1.34 0 0.68 0 0 Z " fill="#F7F0E9" transform="translate(435,41)"/>
<path d="M0 0 C5.61 0 11.22 0 17 0 C17 0.66 17 1.32 17 2 C17.639375 2.12375 18.27875 2.2475 18.9375 2.375 C19.9584375 2.684375 19.9584375 2.684375 21 3 C21.33 3.66 21.66 4.32 22 5 C21.67 5.66 21.34 6.32 21 7 C19.35 7 17.7 7 16 7 C16.33 6.01 16.66 5.02 17 4 C14.02119115 3.00706372 11.98398802 2.86593589 8.875 2.875 C7.54082031 2.87113281 7.54082031 2.87113281 6.1796875 2.8671875 C4.02208912 2.75698015 4.02208912 2.75698015 3 4 C2.76924918 5.34747084 2.58846937 6.70377565 2.4375 8.0625 C2.2209375 10.0115625 2.2209375 10.0115625 2 12 C1.34 11.67 0.68 11.34 0 11 C0 7.37 0 3.74 0 0 Z " fill="#F3AA48" transform="translate(301,169)"/>
<path d="M0 0 C2 2 2 2 2.24291992 3.90771484 C2.23675659 5.04781006 2.23675659 5.04781006 2.23046875 6.2109375 C2.22853516 7.04367188 2.22660156 7.87640625 2.22460938 8.734375 C2.21236328 9.60578125 2.20011719 10.4771875 2.1875 11.375 C2.18685547 12.23867187 2.18621094 13.10234375 2.18554688 13.9921875 C2.14056151 20.47007996 2.14056151 20.47007996 1.4543457 23.05712891 C0.81125761 25.25683545 0.81125761 25.25683545 1.5625 28.5625 C2 32 2 32 0 35 C-0.98095748 36.01868662 -1.97702078 37.02351983 -3 38 C-3.99 37.67 -4.98 37.34 -6 37 C-5.36578125 36.16339844 -4.7315625 35.32679687 -4.078125 34.46484375 C-0.64810784 28.46231371 -1.05197849 21.30118156 -0.75 14.5625 C-0.6735157 13.14899881 -0.59540518 11.73558462 -0.515625 10.32226562 C-0.32496432 6.88231323 -0.15642641 3.44169889 0 0 Z " fill="#FBF3E4" transform="translate(173,78)"/>
<path d="M0 0 C0 0.99 0 1.98 0 3 C0.66 3.33 1.32 3.66 2 4 C1.67 4.33 1.34 4.66 1 5 C0.92741054 7.18639453 0.91626217 9.37500389 0.9375 11.5625 C0.94652344 12.76003906 0.95554687 13.95757812 0.96484375 15.19140625 C0.97644531 16.11824219 0.98804688 17.04507813 1 18 C0.01 18 -0.98 18 -2 18 C-4.42479736 14.36280395 -4.38662577 12.14296518 -4.625 7.8125 C-4.69976563 6.54019531 -4.77453125 5.26789063 -4.8515625 3.95703125 C-4.90054688 2.98121094 -4.94953125 2.00539062 -5 1 C-2 0 -2 0 0 0 Z " fill="#F2AB48" transform="translate(565,179)"/>
<path d="M0 0 C1.98 0 3.96 0 6 0 C5.14098886 4.4567519 4.26678769 8.43678154 2.3125 12.5625 C0.62880727 16.97217143 1.11608308 19.41970325 2 24 C1.34 23.67 0.68 23.34 0 23 C-0.93493027 17.98537403 -1.13112344 14.02721527 0 9 C0.66 9 1.32 9 2 9 C1.67 8.34 1.34 7.68 1 7 C-1.02463255 6.34786708 -1.02463255 6.34786708 -3 6 C-2.01 4.02 -1.02 2.04 0 0 Z " fill="#EEA84D" transform="translate(383,167)"/>
<path d="M0 0 C0.33 0 0.66 0 1 0 C1 3.96 1 7.92 1 12 C3.413125 11.814375 3.413125 11.814375 5.875 11.625 C6.77992188 11.55539063 7.68484375 11.48578125 8.6171875 11.4140625 C11.17941903 11.20431868 11.17941903 11.20431868 13 9 C13.34490322 4.94738713 13.30163882 3.45245824 11 0 C12.32 0.66 13.64 1.32 15 2 C15.48574969 9.28624535 15.48574969 9.28624535 13.46875 12.25 C10.1142417 14.6278793 7.19504925 14.44389656 3.25 14.25 C2.55261719 14.23195312 1.85523438 14.21390625 1.13671875 14.1953125 C-0.57611539 14.14838554 -2.28823824 14.07664605 -4 14 C-4 10.37 -4 6.74 -4 3 C-3.67 3 -3.34 3 -3 3 C-2.87625 4.134375 -2.7525 5.26875 -2.625 6.4375 C-2.41875 7.613125 -2.2125 8.78875 -2 10 C-1.34 10.33 -0.68 10.66 0 11 C0 7.37 0 3.74 0 0 Z " fill="#DFA85E" transform="translate(271,189)"/>
<path d="M0 0 C1.65 0 3.3 0 5 0 C4.00956295 4.83628305 3.04301154 9.47618873 1 14 C-0.32 13.34 -1.64 12.68 -3 12 C-3.99 13.32 -4.98 14.64 -6 16 C-5.67 14.02 -5.34 12.04 -5 10 C-4.01 9.67 -3.02 9.34 -2 9 C-1.19436362 6.89415562 -1.19436362 6.89415562 -0.8125 4.4375 C-0.65394531 3.61121094 -0.49539063 2.78492188 -0.33203125 1.93359375 C-0.22246094 1.29550781 -0.11289062 0.65742188 0 0 Z " fill="#E7A959" transform="translate(393,178)"/>
<path d="M0 0 C2.64 0 5.28 0 8 0 C8.66 2.31 9.32 4.62 10 7 C8.68 7 7.36 7 6 7 C6 8.32 6 9.64 6 11 C6.66 11 7.32 11 8 11 C8.625 12.875 8.625 12.875 9 15 C8.34 15.66 7.68 16.32 7 17 C6.57847656 15.94039062 6.15695312 14.88078125 5.72265625 13.7890625 C5.16931638 12.40102351 4.61592847 11.01300367 4.0625 9.625 C3.78470703 8.92632812 3.50691406 8.22765625 3.22070312 7.5078125 C1.71533804 3.70767754 1.71533804 3.70767754 0 0 Z " fill="#E1AB5B" transform="translate(355,167)"/>
<path d="M0 0 C11.38587599 2.19626034 19.095613 5.77109997 26.1015625 15.16796875 C27 17 27 17 26 20 C25.443125 19.030625 24.88625 18.06125 24.3125 17.0625 C22.31964195 13.81008721 22.31964195 13.81008721 19.25 13.125 C18.5075 13.08375 17.765 13.0425 17 13 C16.938125 12.21625 16.87625 11.4325 16.8125 10.625 C16.544375 9.75875 16.27625 8.8925 16 8 C13.52363988 6.62533375 13.52363988 6.62533375 11 6 C11 5.34 11 4.68 11 4 C7.37 3.67 3.74 3.34 0 3 C0 2.01 0 1.02 0 0 Z " fill="#F8F2E7" transform="translate(341,41)"/>
<path d="M0 0 C1.64510941 0.00015915 3.29022379 0.00585551 4.93530273 0.01586914 C6.23164894 0.01799156 6.23164894 0.01799156 7.55418396 0.02015686 C10.32578941 0.025773 13.09731528 0.0383282 15.86889648 0.05102539 C17.74324428 0.05603831 19.61759334 0.06060158 21.49194336 0.06469727 C26.09679192 0.07574767 30.70158069 0.09302309 35.30639648 0.11352539 C34.97639648 0.77352539 34.64639648 1.43352539 34.30639648 2.11352539 C33.26185303 2.10305176 32.21730957 2.09257813 31.14111328 2.08178711 C27.26663641 2.04559367 23.39217449 2.02262734 19.51757812 2.00366211 C17.84046923 1.99360303 16.16337788 1.97995417 14.48632812 1.96264648 C12.07604646 1.93839387 9.66599663 1.92704149 7.25561523 1.91821289 C6.50551682 1.90789032 5.7554184 1.89756775 4.98258972 1.88693237 C1.20338869 1.88611739 -0.4677475 1.96295472 -3.69360352 4.11352539 C-4.02360352 3.12352539 -4.35360352 2.13352539 -4.69360352 1.11352539 C-3.69360352 0.11352539 -3.69360352 0.11352539 0 0 Z " fill="#F8F0EA" transform="translate(303.693603515625,40.886474609375)"/>
<path d="M0 0 C1.65 0 3.3 0 5 0 C5.90761769 4.62885021 6.48984886 7.85025191 4 12 C1.875 13.3125 1.875 13.3125 0 14 C-1.39151652 9.20699867 -0.68662689 4.84864218 0 0 Z " fill="#EAAE5B" transform="translate(408,167)"/>
<path d="M0 0 C2.57905793 0.93132647 4.68780654 1.741633 6.8125 3.5 C9.49128451 5.33688081 11.95324404 5.88228373 15.09765625 6.5703125 C17 7 17 7 20 8 C22.39490986 8.06970052 24.79167691 8.08448003 27.1875 8.0625 C28.45980469 8.05347656 29.73210937 8.04445312 31.04296875 8.03515625 C32.01878906 8.02355469 32.99460938 8.01195312 34 8 C34.495 8.99 34.495 8.99 35 10 C25.89332495 13.03555835 16.6373538 10.41070709 8 7 C4.40264272 5.18784811 2.27363843 3.41045765 0 0 Z " fill="#F9F1E9" transform="translate(126,130)"/>
<path d="M0 0 C0 0.66 0 1.32 0 2 C3.01970788 3.56629708 6.08650414 4.87625164 9.25 6.125 C10.14203125 6.47820312 11.0340625 6.83140625 11.953125 7.1953125 C12.62859375 7.46085937 13.3040625 7.72640625 14 8 C14 8.33 14 8.66 14 9 C8.28758534 8.61271765 5.26311718 8.12989477 1 4 C0.443125 4.28875 -0.11375 4.5775 -0.6875 4.875 C-3.08494645 6.0413253 -5.51596939 7.0339881 -8 8 C-8 8.99 -8 9.98 -8 11 C-9.65 11.66 -11.3 12.32 -13 13 C-3.61290323 0 -3.61290323 0 0 0 Z " fill="#F7EEE6" transform="translate(795,112)"/>
<path d="M0 0 C1.97909398 -0.02686553 3.95828971 -0.04633375 5.9375 -0.0625 C7.03964844 -0.07410156 8.14179688 -0.08570313 9.27734375 -0.09765625 C12 0 12 0 13 1 C13.04063832 2.66617115 13.042721 4.33388095 13 6 C10.59454362 7.20272819 9.05003047 7.10071472 6.375 7.0625 C5.14910156 7.04896484 5.14910156 7.04896484 3.8984375 7.03515625 C2.95871094 7.01775391 2.95871094 7.01775391 2 7 C2 6.34 2 5.68 2 5 C3.98 5 5.96 5 8 5 C7.34 4.67 6.68 4.34 6 4 C6 3.34 6 2.68 6 2 C4.02 2 2.04 2 0 2 C0 1.34 0 0.68 0 0 Z " fill="#DFA661" transform="translate(340,201)"/>
<path d="M0 0 C2.97 0.495 2.97 0.495 6 1 C5.67 4.3 5.34 7.6 5 11 C3.68 11 2.36 11 1 11 C1 11.66 1 12.32 1 13 C-0.32 12.67 -1.64 12.34 -3 12 C-2.50886719 11.60167969 -2.01773438 11.20335937 -1.51171875 10.79296875 C0.43183425 8.4878245 0.316536 7.2803281 0.1875 4.3125 C0.16042969 3.50425781 0.13335937 2.69601563 0.10546875 1.86328125 C0.07066406 1.24839844 0.03585938 0.63351563 0 0 Z " fill="#F1AA45" transform="translate(181,33)"/>
<path d="M0 0 C4.62 0 9.24 0 14 0 C14.33 1.32 14.66 2.64 15 4 C10.05 4 5.1 4 0 4 C0 2.68 0 1.36 0 0 Z " fill="#F4AB49" transform="translate(480,185)"/>
<path d="M0 0 C1.06605469 0.00257813 2.13210938 0.00515625 3.23046875 0.0078125 C4.81794922 0.00394531 4.81794922 0.00394531 6.4375 0 C8.95485892 0.11217589 11.0222013 0.4019004 13.41796875 1.1328125 C13.41796875 1.7928125 13.41796875 2.4528125 13.41796875 3.1328125 C10.71234132 4.48562621 8.4990322 4.33890612 5.48046875 4.3828125 C4.41957031 4.40859375 3.35867188 4.434375 2.265625 4.4609375 C-0.58203125 4.1328125 -0.58203125 4.1328125 -2.4609375 2.6171875 C-2.83089844 2.12734375 -3.20085938 1.6375 -3.58203125 1.1328125 C-2.58203125 0.1328125 -2.58203125 0.1328125 0 0 Z " fill="#EBAA4C" transform="translate(538.58203125,202.8671875)"/>
<path d="M0 0 C0.87785156 0.00515625 1.75570313 0.0103125 2.66015625 0.015625 C3.53542969 0.01046875 4.41070312 0.0053125 5.3125 0 C7.72265625 0.265625 7.72265625 0.265625 10.72265625 2.265625 C10.72265625 2.925625 10.72265625 3.585625 10.72265625 4.265625 C6.43265625 3.605625 2.14265625 2.945625 -2.27734375 2.265625 C-2.27734375 6.885625 -2.27734375 11.505625 -2.27734375 16.265625 C-2.93734375 16.265625 -3.59734375 16.265625 -4.27734375 16.265625 C-4.33118896 13.97421214 -4.37006462 11.68244312 -4.40234375 9.390625 C-4.42554688 8.11445313 -4.44875 6.83828125 -4.47265625 5.5234375 C-4.24795877 1.77548361 -3.87153235 0.4515681 0 0 Z " fill="#DEAC66" transform="translate(307.27734375,170.734375)"/>
<path d="M0 0 C1.98 0 3.96 0 6 0 C6 6.27 6 12.54 6 19 C5.67 19 5.34 19 5 19 C4.00749455 13.29309366 3.89522488 7.78591511 4 2 C3.34 2 2.68 2 2 2 C0.99740493 5.00778521 0.69685358 7.53820647 0.4375 10.6875 C0.35371094 11.68136719 0.26992188 12.67523438 0.18359375 13.69921875 C0.12300781 14.45847656 0.06242187 15.21773437 0 16 C-0.33 16 -0.66 16 -1 16 C-1.02712153 14.083412 -1.04645097 12.1667127 -1.0625 10.25 C-1.07410156 9.18265625 -1.08570313 8.1153125 -1.09765625 7.015625 C-1.01510087 4.46631499 -0.74617558 2.42066409 0 0 Z " fill="#DFB472" transform="translate(447,167)"/>
<path d="M0 0 C3.22393501 3.22393501 3.20611516 6.31452323 3.3125 10.6875 C3.25797266 16.32426424 2.41498329 20.46123626 -1 25 C-3.75 27.5 -3.75 27.5 -6 29 C-6.33 28.34 -6.66 27.68 -7 27 C-6.505 25.515 -6.505 25.515 -6 24 C-4.68 24 -3.36 24 -2 24 C-2 23.01 -2 22.02 -2 21 C-1.34 21 -0.68 21 0 21 C-0.33 19.35 -0.66 17.7 -1 16 C-0.01 15.67 0.98 15.34 2 15 C1.34 10.05 0.68 5.1 0 0 Z " fill="#DAA561" transform="translate(597,176)"/>
<path d="M0 0 C1.48285242 0.95262034 2.96118201 1.91228405 4.4375 2.875 C5.67306641 3.67550781 5.67306641 3.67550781 6.93359375 4.4921875 C9 6 9 6 10 8 C8.35 8.33 6.7 8.66 5 9 C4.67 7.68 4.34 6.36 4 5 C0.152294 4.54951691 0.152294 4.54951691 -1.5 6.375 C-1.995 6.91125 -2.49 7.4475 -3 8 C-5.36176324 9.52371822 -6.34226228 10.13999555 -9.12890625 9.546875 C-9.74636719 9.36640625 -10.36382812 9.1859375 -11 9 C-10.45730469 8.68546875 -9.91460937 8.3709375 -9.35546875 8.046875 C-8.64003906 7.61890625 -7.92460938 7.1909375 -7.1875 6.75 C-6.47980469 6.33234375 -5.77210937 5.9146875 -5.04296875 5.484375 C-2.84621023 3.88825983 -1.51547627 2.23735929 0 0 Z " fill="#F5EFE5" transform="translate(86,110)"/>
<path d="M0 0 C9.23510853 -0.54324168 18.99933972 1.19960383 27 6 C26.67 6.99 26.34 7.98 26 9 C26 8.34 26 7.68 26 7 C25.22914062 6.96261719 24.45828125 6.92523438 23.6640625 6.88671875 C22.66117188 6.82097656 21.65828125 6.75523438 20.625 6.6875 C19.62726563 6.62949219 18.62953125 6.57148437 17.6015625 6.51171875 C16.74304688 6.34285156 15.88453125 6.17398438 15 6 C14.34 5.01 13.68 4.02 13 3 C10.57478506 2.41810734 10.57478506 2.41810734 7.875 2.3125 C6.96492188 2.24675781 6.05484375 2.18101563 5.1171875 2.11328125 C4.41851562 2.07589844 3.71984375 2.03851563 3 2 C2.67 2.99 2.34 3.98 2 5 C2 4.01 2 3.02 2 2 C1.34 2 0.68 2 0 2 C0 1.34 0 0.68 0 0 Z " fill="#F8F2E7" transform="translate(66,41)"/>
<path d="M0 0 C3.24931927 -0.17455021 6.49743448 -0.28091753 9.75 -0.375 C11.13058594 -0.45041016 11.13058594 -0.45041016 12.5390625 -0.52734375 C19.24249411 -0.67307052 19.24249411 -0.67307052 21.53320312 1.36230469 C22.640625 3.0234375 22.640625 3.0234375 24 6 C23.01 6 22.02 6 21 6 C21 5.34 21 4.68 21 4 C17.29677301 2.96197425 13.55522811 2.4660039 9.75 1.9375 C8.48671875 1.76089844 7.2234375 1.58429687 5.921875 1.40234375 C4.95765625 1.26957031 3.9934375 1.13679688 3 1 C3.33 2.65 3.66 4.3 4 6 C3.34 6 2.68 6 2 6 C0 3 0 3 0 0 Z " fill="#F7F2EB" transform="translate(375,41)"/>
<path d="M0 0 C0.99 0.33 1.98 0.66 3 1 C2.67 1.66 2.34 2.32 2 3 C2.39938767 5.09821215 2.39938767 5.09821215 3 7 C2.34 7 1.68 7 1 7 C1 6.34 1 5.68 1 5 C0.01 5 -0.98 5 -2 5 C-1.67 7.31 -1.34 9.62 -1 12 C-3.15377564 9.37801226 -4.40072174 7.35595828 -5 4 C-7.64 4 -10.28 4 -13 4 C-13 3.34 -13 2.68 -13 2 C-8.71 2.33 -4.42 2.66 0 3 C0 2.01 0 1.02 0 0 Z " fill="#DBA460" transform="translate(318,191)"/>
<path d="M0 0 C0.66 0.99 1.32 1.98 2 3 C-4.52538258 8.81798491 -11.34961717 13.91969484 -20 16 C-20.99 15.34 -21.98 14.68 -23 14 C-23 13.34 -23 12.68 -23 12 C-21.205625 12.0928125 -21.205625 12.0928125 -19.375 12.1875 C-14.54279387 12.1875 -11.03151331 10.79710793 -7.375 7.5625 C-6.92125 7.046875 -6.4675 6.53125 -6 6 C-4.70644173 4.62804426 -3.37701298 3.28817344 -2 2 C-1.34 2 -0.68 2 0 2 C0 1.34 0 0.68 0 0 Z " fill="#F6EFE8" transform="translate(649,123)"/>
<path d="M0 0 C1.98 0 3.96 0 6 0 C7.32 2.64 8.64 5.28 10 8 C9.01 8.495 9.01 8.495 8 9 C7.67 7.68 7.34 6.36 7 5 C6.34 5 5.68 5 5 5 C5 4.34 5 3.68 5 3 C4.34 3 3.68 3 3 3 C3 4.32 3 5.64 3 7 C3.66 7 4.32 7 5 7 C5 8.98 5 10.96 5 13 C2.79970166 10.79970166 2.31417391 9.4218744 1.375 6.5 C0.98441406 5.30890625 0.98441406 5.30890625 0.5859375 4.09375 C0 2 0 2 0 0 Z " fill="#E4AA5F" transform="translate(370,167)"/>
<path d="M0 0 C3.14395378 4.71593067 2.42036091 9.83581929 1.39453125 15.1171875 C-0.61204867 23.61204867 -0.61204867 23.61204867 -3 26 C-3.25 19.375 -3.25 19.375 -1 16 C-1.26216731 14.06651612 -1.52892837 12.13327714 -1.83984375 10.20703125 C-2.10559865 6.54479902 -1.05980423 3.49111982 0 0 Z " fill="#F8F1E8" transform="translate(283,63)"/>
<path d="M0 0 C0.83265381 0.00523682 1.66530762 0.01047363 2.52319336 0.01586914 C3.42231445 0.0190918 4.32143555 0.02231445 5.24780273 0.02563477 C6.66609375 0.03820313 6.66609375 0.03820313 8.11303711 0.05102539 C9.06243164 0.05553711 10.01182617 0.06004883 10.98999023 0.06469727 C13.34356776 0.07652429 15.69702188 0.09300514 18.05053711 0.11352539 C18.05053711 0.44352539 18.05053711 0.77352539 18.05053711 1.11352539 C12.11053711 1.11352539 6.17053711 1.11352539 0.05053711 1.11352539 C-0.63075168 4.51996934 -1.10402539 7.35933781 -1.26586914 10.75805664 C-1.32871094 12.01972656 -1.32871094 12.01972656 -1.39282227 13.30688477 C-1.43213867 14.17120117 -1.47145508 15.03551758 -1.51196289 15.92602539 C-1.55514648 16.80967773 -1.59833008 17.69333008 -1.64282227 18.60375977 C-1.74837825 20.77352162 -1.8493736 22.9435045 -1.94946289 25.11352539 C-2.27946289 25.11352539 -2.60946289 25.11352539 -2.94946289 25.11352539 C-2.97833273 21.1343738 -2.99621695 17.15524886 -3.01196289 13.17602539 C-3.0203418 12.0397168 -3.0287207 10.9034082 -3.03735352 9.73266602 C-3.04057617 8.65307617 -3.04379883 7.57348633 -3.04711914 6.46118164 C-3.05235596 5.46094971 -3.05759277 4.46071777 -3.06298828 3.43017578 C-2.92181148 0.5492583 -2.87670244 0.16752243 0 0 Z " fill="#F7F5EC" transform="translate(494.949462890625,40.886474609375)"/>
<path d="M0 0 C3.99926986 2.97088618 6.92118304 6.12948725 10 10 C9.67 10.66 9.34 11.32 9 12 C7.68 12 6.36 12 5 12 C5.33 12.99 5.66 13.98 6 15 C5.34 15 4.68 15 4 15 C2.2734375 13.03125 2.2734375 13.03125 0.375 10.5 C-0.57246094 9.24703125 -0.57246094 9.24703125 -1.5390625 7.96875 C-2.02117187 7.3190625 -2.50328125 6.669375 -3 6 C-2.34 5.67 -1.68 5.34 -1 5 C-0.67 5.66 -0.34 6.32 0 7 C2.02463255 7.65213292 2.02463255 7.65213292 4 8 C3.525625 7.236875 3.05125 6.47375 2.5625 5.6875 C1 3 1 3 0 0 Z " fill="#E6AA60" transform="translate(435,180)"/>
<path d="M0 0 C1.32 0.33 2.64 0.66 4 1 C3.67 1.99 3.34 2.98 3 4 C2.01 4 1.02 4 0 4 C0 4.99 0 5.98 0 7 C-5.625 7.25 -5.625 7.25 -9 5 C-8 3 -8 3 -6 2 C-4.00039988 1.960008 -1.99952758 1.95653201 0 2 C0 1.34 0 0.68 0 0 Z " fill="#F2A94A" transform="translate(318,187)"/>
<path d="M0 0 C0.99 0.33 1.98 0.66 3 1 C3 1.66 3 2.32 3 3 C7.455 2.505 7.455 2.505 12 2 C12.33 3.32 12.66 4.64 13 6 C6.90218999 6.22084624 1.78357065 6.01167675 -4 4 C-3.67 3.34 -3.34 2.68 -3 2 C-2.01 2 -1.02 2 0 2 C0 1.34 0 0.68 0 0 Z " fill="#F0AA49" transform="translate(576,167)"/>
<path d="M0 0 C0.66 0 1.32 0 2 0 C3.43991093 1.9948766 4.73055989 3.96286446 6 6.0625 C6.35578125 6.62388672 6.7115625 7.18527344 7.078125 7.76367188 C9.54359898 11.78846615 10.89132605 15.46714038 12 20 C11.01 19.67 10.02 19.34 9 19 C9 18.01 9 17.02 9 16 C8.01 15.67 7.02 15.34 6 15 C6 13.35 6 11.7 6 10 C5.34 10 4.68 10 4 10 C3.32845067 8.71086513 2.66291141 7.41859796 2 6.125 C1.62875 5.40570313 1.2575 4.68640625 0.875 3.9453125 C0 2 0 2 0 0 Z " fill="#F7F1E6" transform="translate(276,119)"/>
<path d="M0 0 C1 3 1 3 0 6 C1.32 6 2.64 6 4 6 C4 4.68 4 3.36 4 2 C4.66 2 5.32 2 6 2 C5.5205537 6.21912747 4.83374881 8.79663178 2 12 C2 11.01 2 10.02 2 9 C0.68 8.67 -0.64 8.34 -2 8 C-2.66 10.97 -3.32 13.94 -4 17 C-4.66 17 -5.32 17 -6 17 C-4.33846988 11.14340094 -2.52958084 5.5409866 0 0 Z " fill="#DDAA66" transform="translate(395,170)"/>
<path d="M0 0 C-0.55728913 3.34373475 -1.35173889 6.03312999 -3 9 C-3.66 9 -4.32 9 -5 9 C-5 8.01 -5 7.02 -5 6 C-6.32 6.33 -7.64 6.66 -9 7 C-8.62607279 4.28902773 -8.18642373 3.17999533 -6.1875 1.25 C-4 0 -4 0 0 0 Z " fill="#E7A957" transform="translate(570,173)"/>
<path d="M0 0 C0.66 0.33 1.32 0.66 2 1 C2.05399736 2.45792884 2.09279177 3.91642712 2.125 5.375 C2.14820313 6.18710938 2.17140625 6.99921875 2.1953125 7.8359375 C2 10 2 10 0 12 C-2.625 11.625 -2.625 11.625 -5 11 C-4.67 9.68 -4.34 8.36 -4 7 C-3.01 7 -2.02 7 -1 7 C-0.67 4.69 -0.34 2.38 0 0 Z " fill="#DEAA5F" transform="translate(303,196)"/>
<path d="M0 0 C0.99 0.33 1.98 0.66 3 1 C2.67 4.3 2.34 7.6 2 11 C1.01 10.34 0.02 9.68 -1 9 C-1.99 9.495 -1.99 9.495 -3 10 C-3 7.36 -3 4.72 -3 2 C-2.01 1.67 -1.02 1.34 0 1 C0 0.67 0 0.34 0 0 Z " fill="#ECA34E" transform="translate(426,182)"/>
<path d="M0 0 C0.33 0.66 0.66 1.32 1 2 C0.34 2 -0.32 2 -1 2 C-1.33 2.99 -1.66 3.98 -2 5 C-2.56589844 4.81695312 -3.13179687 4.63390625 -3.71484375 4.4453125 C-6.33388742 3.93493476 -7.98462742 4.23816515 -10.5625 4.875 C-11.70912109 5.14957031 -11.70912109 5.14957031 -12.87890625 5.4296875 C-14.60314807 5.8932958 -16.30614397 6.43538132 -18 7 C-17 4 -17 4 -15.21484375 3.0859375 C-10.11951906 1.49528725 -5.31938404 0.48358037 0 0 Z " fill="#F9F2E8" transform="translate(64,41)"/>
<path d="M0 0 C3.40062014 1.40715316 4.89229698 3.02868228 7 6 C5.38050958 7.50594681 3.75424026 9.00460668 2.125 10.5 C1.22007813 11.3353125 0.31515625 12.170625 -0.6171875 13.03125 C-3 15 -3 15 -5 15 C-5 14.34 -5 13.68 -5 13 C-4.34 13 -3.68 13 -3 13 C-2.67 12.01 -2.34 11.02 -2 10 C0.0625 8.3125 0.0625 8.3125 2 7 C1.34414811 3.39007621 1.34414811 3.39007621 0 0 Z " fill="#F5F0E7" transform="translate(95,50)"/>
<path d="M0 0 C5.28 0 10.56 0 16 0 C16 0.66 16 1.32 16 2 C12.04 2 8.08 2 4 2 C4 2.66 4 3.32 4 4 C2.68 4 1.36 4 0 4 C0 2.68 0 1.36 0 0 Z " fill="#F4AA48" transform="translate(335,169)"/>
<path d="M0 0 C-0.33 0.66 -0.66 1.32 -1 2 C-1.64066406 1.91621094 -2.28132813 1.83242188 -2.94140625 1.74609375 C-8.23075314 1.12335395 -12.77045499 0.97682815 -18 2 C-18.33 1.34 -18.66 0.68 -19 0 C-12.56619852 -3.21690074 -6.49234959 -2.59693984 0 0 Z " fill="#F9F4E8" transform="translate(76,61)"/>
<path d="M0 0 C1.9195604 0.76359871 3.83554712 1.53618478 5.75 2.3125 C7.35101562 2.95638672 7.35101562 2.95638672 8.984375 3.61328125 C11.68299445 4.85422672 13.80364569 6.01155302 16 8 C16 8.66 16 9.32 16 10 C16.66 10 17.32 10 18 10 C17.67 10.66 17.34 11.32 17 12 C15.125 11.75 15.125 11.75 13 11 C12.690625 10.360625 12.38125 9.72125 12.0625 9.0625 C10.5833988 6.19130355 9.01200013 6.02681823 6 5 C3.99248185 4.01517978 1.99065541 3.01847486 0 2 C0 1.34 0 0.68 0 0 Z " fill="#FAF3EA" transform="translate(750,42)"/>
<path d="M0 0 C1.32 0 2.64 0 4 0 C3.44739574 3.31562557 2.83174295 6.15062207 1 9 C0.01 9.33 -0.98 9.66 -2 10 C-2.33 8.35 -2.66 6.7 -3 5 C-2.34 5 -1.68 5 -1 5 C-0.67 3.35 -0.34 1.7 0 0 Z " fill="#F1AC49" transform="translate(493,193)"/>
<path d="M0 0 C4.29 0 8.58 0 13 0 C13 0.99 13 1.98 13 3 C9.7 3.33 6.4 3.66 3 4 C3 3.34 3 2.68 3 2 C2.34 2 1.68 2 1 2 C0.67 2.66 0.34 3.32 0 4 C0 2.68 0 1.36 0 0 Z " fill="#F5A94F" transform="translate(470,168)"/>
<path d="M0 0 C1.32 0 2.64 0 4 0 C4.28571429 7.42857143 4.28571429 7.42857143 2 11 C1.34 11 0.68 11 0 11 C0 7.37 0 3.74 0 0 Z " fill="#FAAF4B" transform="translate(409,197)"/>
<path d="M0 0 C0.33 0 0.66 0 1 0 C1.25 2.1875 1.25 2.1875 1 5 C0.0409375 6.0209375 0.0409375 6.0209375 -0.9375 7.0625 C-4.13767312 11.62032232 -3.82620998 16.55168277 -4 22 C-4.33 22 -4.66 22 -5 22 C-5.44810509 13.83452941 -5.44220114 7.9998321 -1 1 C-0.67 0.67 -0.34 0.34 0 0 Z " fill="#DCAA6E" transform="translate(464,172)"/>
<path d="M0 0 C0 0.33 0 0.66 0 1 C-5.94 1 -11.88 1 -18 1 C-17 -1 -17 -1 -15.375 -1.625 C-9.78123798 -2.50822558 -5.27034088 -2.05671839 0 0 Z " fill="#DBAE62" transform="translate(489,168)"/>
<path d="M0 0 C1.32 0 2.64 0 4 0 C4.33 1.65 4.66 3.3 5 5 C6.32 5 7.64 5 9 5 C9 5.99 9 6.98 9 8 C6.03 7.505 6.03 7.505 3 7 C2.67 5.35 2.34 3.7 2 2 C1.34 2 0.68 2 0 2 C0 1.34 0 0.68 0 0 Z " fill="#F2A94A" transform="translate(525,195)"/>
<path d="M0 0 C0.99 0 1.98 0 3 0 C3.96891192 5.37305699 3.96891192 5.37305699 4 8 C2.5625 10 2.5625 10 1 11 C-0.17571451 7.32589215 -0.07366746 3.83070817 0 0 Z " fill="#F6AA49" transform="translate(287,190)"/>
<path d="M0 0 C0.66 0 1.32 0 2 0 C2 0.66 2 1.32 2 2 C2.66 2 3.32 2 4 2 C8 6.35294118 8 6.35294118 8 10 C6.68 10 5.36 10 4 10 C4 9.01 4 8.02 4 7 C3.34 6.67 2.68 6.34 2 6 C2 5.01 2 4.02 2 3 C1.01 3 0.02 3 -1 3 C-0.67 2.01 -0.34 1.02 0 0 Z " fill="#F3A944" transform="translate(431,178)"/>
<path d="M0 0 C1.87184371 3.74368742 2.23999767 4.8400791 2.125 8.75 C2.10695313 9.54921875 2.08890625 10.3484375 2.0703125 11.171875 C2.03550781 12.07679688 2.03550781 12.07679688 2 13 C0.02 13.99 0.02 13.99 -2 15 C-2.33 13.68 -2.66 12.36 -3 11 C-2.34 11 -1.68 11 -1 11 C-0.67 7.37 -0.34 3.74 0 0 Z " fill="#F5B041" transform="translate(335,184)"/>
<path d="M0 0 C2 3 2 3 2 5 C2.66 5 3.32 5 4 5 C4 5.66 4 6.32 4 7 C7.96 7 11.92 7 16 7 C16 7.33 16 7.66 16 8 C10.72 8 5.44 8 0 8 C0 5.36 0 2.72 0 0 Z " fill="#F1EAE0" transform="translate(298,130)"/>
<path d="M0 0 C0.33 0 0.66 0 1 0 C1 6.93 1 13.86 1 21 C0.01 21 -0.98 21 -2 21 C-2.66 19.68 -3.32 18.36 -4 17 C-2.68 17.33 -1.36 17.66 0 18 C0 12.06 0 6.12 0 0 Z " fill="#D7B074" transform="translate(452,187)"/>
<path d="M0 0 C2.50298434 2.93828597 3.46930939 5.17902761 4 9 C2.02 9 0.04 9 -2 9 C-2.66 7.68 -3.32 6.36 -4 5 C-1.525 5.99 -1.525 5.99 1 7 C0.67 4.69 0.34 2.38 0 0 Z " fill="#DAAA6B" transform="translate(321,198)"/>
<path d="M0 0 C0.66 0 1.32 0 2 0 C2 4.62 2 9.24 2 14 C1.01 14.495 1.01 14.495 0 15 C-1.14229879 11.57310364 -0.90861076 9.38897782 -0.5625 5.8125 C-0.46066406 4.72582031 -0.35882813 3.63914063 -0.25390625 2.51953125 C-0.17011719 1.68808594 -0.08632813 0.85664063 0 0 Z " fill="#E0AB65" transform="translate(299,186)"/>
<path d="M0 0 C0.99 0 1.98 0 3 0 C4.4783226 2.95664519 4.06032783 5.74229737 4 9 C2.68 8.67 1.36 8.34 0 8 C0 5.36 0 2.72 0 0 Z " fill="#F3A948" transform="translate(523,183)"/>
<path d="M0 0 C0.33 0 0.66 0 1 0 C1.25 5.625 1.25 5.625 -1 9 C-3.1640625 9.29296875 -3.1640625 9.29296875 -5.625 9.1875 C-6.44226563 9.16042969 -7.25953125 9.13335937 -8.1015625 9.10546875 C-8.72804688 9.07066406 -9.35453125 9.03585938 -10 9 C-10 8.01 -10 7.02 -10 6 C-8.88625 6.020625 -7.7725 6.04125 -6.625 6.0625 C-3.16784079 6.26380718 -3.16784079 6.26380718 -1 5 C-0.34444881 2.47266765 -0.34444881 2.47266765 0 0 Z " fill="#DEAE66" transform="translate(283,176)"/>
<path d="M0 0 C1.23792114 3.71376341 0.22925938 4.64318601 -1.36328125 8.015625 C-2.4777373 11.48889907 -1.68166204 14.46775125 -1 18 C-1.66 17.67 -2.32 17.34 -3 17 C-3.93493027 11.98537403 -4.13112344 8.02721527 -3 3 C-2.34 3 -1.68 3 -1 3 C-0.67 2.01 -0.34 1.02 0 0 Z " fill="#E2AD6A" transform="translate(386,173)"/>
<path d="M0 0 C7.42857143 -0.14285714 7.42857143 -0.14285714 11 1 C11 1.66 11 2.32 11 3 C8.03 3.66 5.06 4.32 2 5 C2 4.01 2 3.02 2 2 C1.34 1.34 0.68 0.68 0 0 Z " fill="#EBAB5E" transform="translate(576,166)"/>
<path d="M0 0 C0.33 0 0.66 0 1 0 C1 2.97 1 5.94 1 9 C-2 10 -2 10 -5 9 C-5 7.35 -5 5.7 -5 4 C-4.34 4 -3.68 4 -3 4 C-3 4.66 -3 5.32 -3 6 C-2.34 6 -1.68 6 -1 6 C-0.67 4.02 -0.34 2.04 0 0 Z " fill="#D8AB59" transform="translate(428,197)"/>
<path d="M0 0 C-0.33 2.97 -0.66 5.94 -1 9 C-2.32 8.34 -3.64 7.68 -5 7 C-5 5.02 -5 3.04 -5 1 C-2 0 -2 0 0 0 Z " fill="#F3A846" transform="translate(287,182)"/>
<path d="M0 0 C0.99 0.33 1.98 0.66 3 1 C-7.13836478 9 -7.13836478 9 -13 9 C-13 8.34 -13 7.68 -13 7 C-11.783125 6.5875 -10.56625 6.175 -9.3125 5.75 C-6.36252055 4.66590861 -4.70290283 3.76232227 -2.1875 1.75 C-1.1046875 0.88375 -1.1046875 0.88375 0 0 Z " fill="#F5F0E7" transform="translate(97,129)"/>
<path d="M0 0 C0.99 0 1.98 0 3 0 C3.433125 1.2065625 3.433125 1.2065625 3.875 2.4375 C4.73262568 5.1326468 4.73262568 5.1326468 7 6 C7 6.99 7 7.98 7 9 C7.99 9.33 8.98 9.66 10 10 C9.67 10.66 9.34 11.32 9 12 C8.34 12 7.68 12 7 12 C5.2734375 9.62890625 5.2734375 9.62890625 3.375 6.5625 C2.74335938 5.55316406 2.11171875 4.54382813 1.4609375 3.50390625 C0 1 0 1 0 0 Z " fill="#F8F1E7" transform="translate(23,113)"/>
<path d="M0 0 C0.93423645 3.01031744 1.04449911 3.86650268 0 7 C-0.99 7.495 -0.99 7.495 -2 8 C-2.309375 8.825 -2.61875 9.65 -2.9375 10.5 C-3.4634375 11.7375 -3.4634375 11.7375 -4 13 C-4.99 13.33 -5.98 13.66 -7 14 C-5.23570801 9.02790438 -2.6060834 4.56561939 0 0 Z " fill="#F7F1E7" transform="translate(431,47)"/>
<path d="M0 0 C0.33 0 0.66 0 1 0 C1 1.65 1 3.3 1 5 C3.97 5.495 3.97 5.495 7 6 C6.67 6.66 6.34 7.32 6 8 C2.9375 8.625 2.9375 8.625 0 9 C-1.15941038 5.52176885 -0.70820884 3.54104422 0 0 Z " fill="#DFA862" transform="translate(333,199)"/>
<path d="M0 0 C3.51098025 4.01254885 5.76537994 8.20983041 8 13 C7.34 13 6.68 13 6 13 C6 12.34 6 11.68 6 11 C5.01 11 4.02 11 3 11 C2.49384702 9.73160474 1.99530901 8.46016898 1.5 7.1875 C1.2215625 6.47980469 0.943125 5.77210937 0.65625 5.04296875 C0 3 0 3 0 0 Z " fill="#F9F2EB" transform="translate(360,115)"/>
<path d="M0 0 C0.66 0.33 1.32 0.66 2 1 C1.67 2.32 1.34 3.64 1 5 C0.34 5 -0.32 5 -1 5 C-1 5.66 -1 6.32 -1 7 C-4.6441774 9.4294516 -6.71241272 9.16179575 -11 9 C-10.46375 8.7525 -9.9275 8.505 -9.375 8.25 C-3.37874094 5.32869404 -3.37874094 5.32869404 0 0 Z " fill="#F6EFE7" transform="translate(825,112)"/>
<path d="M0 0 C0.99 0.33 1.98 0.66 3 1 C3 2.32 3 3.64 3 5 C3.99 5 4.98 5 6 5 C5.67 5.99 5.34 6.98 5 8 C2 7 2 7 0 4 C-0.99 3.34 -1.98 2.68 -3 2 C-2.01 1.34 -1.02 0.68 0 0 Z " fill="#FEE6BA" transform="translate(188,67)"/>
<path d="M0 0 C4.24990638 1.41663546 5.80454354 4.20784794 8 8 C8.8125 10.9375 8.8125 10.9375 9 13 C6.08126143 11.05417429 5.45125509 10.37308173 3.9375 7.4375 C2.40523379 3.96945252 2.40523379 3.96945252 0 3 C0 2.01 0 1.02 0 0 Z " fill="#F7F2E9" transform="translate(274,49)"/>
<path d="M0 0 C0.99 0.33 1.98 0.66 3 1 C2.04454634 2.46022163 1.08553322 3.91811468 0.125 5.375 C-0.40867187 6.18710938 -0.94234375 6.99921875 -1.4921875 7.8359375 C-3 10 -3 10 -5 12 C-5.33 10.35 -5.66 8.7 -6 7 C-5.38125 6.5875 -4.7625 6.175 -4.125 5.75 C-1.93231719 3.94426121 -1.07211583 2.5909466 0 0 Z " fill="#F8F1E8" transform="translate(48,67)"/>
<path d="M0 0 C0.33 0 0.66 0 1 0 C1 5.94 1 11.88 1 18 C0.01 18 -0.98 18 -2 18 C-2 16.68 -2 15.36 -2 14 C-1.34 14 -0.68 14 0 14 C0 9.38 0 4.76 0 0 Z " fill="#EDBC7C" transform="translate(193,54)"/>
<path d="M0 0 C-1.36983503 3.16115776 -1.9890638 3.9927092 -5 6 C-7.6875 5.625 -7.6875 5.625 -10 5 C-8.02805885 3.02805885 -6.49095467 2.167635 -4 1 C-2 0 -2 0 0 0 Z " fill="#F7F1EA" transform="translate(661,120)"/>
<path d="M0 0 C0.66 1.32 1.32 2.64 2 4 C2.99 5.485 2.99 5.485 4 7 C4 8.32 4 9.64 4 11 C2.68 10.67 1.36 10.34 0 10 C0 6.7 0 3.4 0 0 Z " fill="#F6EFE8" transform="translate(595,85)"/>
<path d="M0 0 C4.29 0 8.58 0 13 0 C13 1.32 13 2.64 13 4 C12.34 4 11.68 4 11 4 C11 3.34 11 2.68 11 2 C8.02148438 2.09765625 8.02148438 2.09765625 5.04296875 2.1953125 C3 2 3 2 0 0 Z " fill="#E6DFD8" transform="translate(413,89)"/>
<path d="M0 0 C1.9375 0.375 1.9375 0.375 4 1 C4.33 1.66 4.66 2.32 5 3 C4.34 3 3.68 3 3 3 C3 3.66 3 4.32 3 5 C3.66 5 4.32 5 5 5 C5.33 6.65 5.66 8.3 6 10 C2.51668565 6.98112756 1.20842856 4.43090471 0 0 Z " fill="#E3AC5D" transform="translate(522,192)"/>
<path d="M0 0 C0.66 1.32 1.32 2.64 2 4 C3.32 4 4.64 4 6 4 C5.01 4.99 4.02 5.98 3 7 C1.68 6.34 0.36 5.68 -1 5 C-1 1 -1 1 0 0 Z " fill="#F9F2E6" transform="translate(781,125)"/>
<path d="M0 0 C1.051875 0.78375 2.10375 1.5675 3.1875 2.375 C6.01696802 4.40508579 8.67338936 5.89112979 12 7 C9 8 9 8 5.4375 6.875 C2 5 2 5 0.5625 2.3125 C0.376875 1.549375 0.19125 0.78625 0 0 Z " fill="#F9F3E9" transform="translate(48,112)"/>
<path d="M0 0 C0.66 0 1.32 0 2 0 C2 1.98 2 3.96 2 6 C1.34 6 0.68 6 0 6 C0 7.65 0 9.3 0 11 C-1.125 9.4375 -1.125 9.4375 -2 7 C-1.125 3.25 -1.125 3.25 0 0 Z " fill="#E2B074" transform="translate(179,23)"/>
<path d="M0 0 C1.65 0 3.3 0 5 0 C4.01 0.33 3.02 0.66 2 1 C2 1.99 2 2.98 2 4 C2.99 4.66 3.98 5.32 5 6 C2.69 6 0.38 6 -2 6 C-2 5.01 -2 4.02 -2 3 C-1.34 3 -0.68 3 0 3 C0 2.01 0 1.02 0 0 Z " fill="#E2A456" transform="translate(341,182)"/>
<path d="M0 0 C0 1.32 0 2.64 0 4 C-2.5 6.25 -2.5 6.25 -5 8 C-5.1875 5.125 -5.1875 5.125 -5 2 C-2 0 -2 0 0 0 Z " fill="#EAB25D" transform="translate(470,169)"/>
<path d="M0 0 C2.31 0.66 4.62 1.32 7 2 C7 2.66 7 3.32 7 4 C7.66 4.33 8.32 4.66 9 5 C9 6.32 9 7.64 9 9 C8.34 9 7.68 9 7 9 C6.773125 8.236875 6.54625 7.47375 6.3125 6.6875 C4.72993166 3.44700291 3.13206406 2.64845477 0 1 C0 0.67 0 0.34 0 0 Z " fill="#FAF3E9" transform="translate(818,102)"/>
<path d="M0 0 C0.66 0 1.32 0 2 0 C3.4783226 2.95664519 3.06032783 5.74229737 3 9 C1.02 9.99 1.02 9.99 -1 11 C-0.9278125 10.37351562 -0.855625 9.74703125 -0.78125 9.1015625 C-0.6884375 8.28429687 -0.595625 7.46703125 -0.5 6.625 C-0.4071875 5.81289062 -0.314375 5.00078125 -0.21875 4.1640625 C0.03352351 2.03087175 0.03352351 2.03087175 0 0 Z " fill="#F7EDE5" transform="translate(347,68)"/>
<path d="M0 0 C1.98 0.99 1.98 0.99 4 2 C3.67 3.65 3.34 5.3 3 7 C2.01 7 1.02 7 0 7 C0 4.69 0 2.38 0 0 Z " fill="#F3AA48" transform="translate(321,179)"/>
<path d="M0 0 C2.97 1.98 2.97 1.98 6 4 C5.34 5.32 4.68 6.64 4 8 C2.68 8 1.36 8 0 8 C0.99 7.67 1.98 7.34 3 7 C3 5.68 3 4.36 3 3 C2.01 2.67 1.02 2.34 0 2 C0 1.34 0 0.68 0 0 Z " fill="#D1AA6E" transform="translate(551,168)"/>
<path d="M0 0 C2.64 0.66 5.28 1.32 8 2 C8 2.66 8 3.32 8 4 C5.36 4.33 2.72 4.66 0 5 C0 3.35 0 1.7 0 0 Z " fill="#F0AD46" transform="translate(538,166)"/>
<path d="M0 0 C0.66 0 1.32 0 2 0 C0.55922954 3.36179774 -1.24750021 5.59156268 -4 8 C-4.66 8 -5.32 8 -6 8 C-5.67 6.68 -5.34 5.36 -5 4 C-4.01 4 -3.02 4 -2 4 C-1.34 2.68 -0.68 1.36 0 0 Z " fill="#F7F2E8" transform="translate(768,88)"/>
<path d="M0 0 C2.64 0.33 5.28 0.66 8 1 C8 1.66 8 2.32 8 3 C5.03 3 2.06 3 -1 3 C-0.67 2.01 -0.34 1.02 0 0 Z " fill="#F6AA48" transform="translate(268,202)"/>
<path d="M0 0 C0.66 0 1.32 0 2 0 C1.39009109 3.55780196 0.4216319 6.6828589 -1 10 C-1.33 10 -1.66 10 -2 10 C-2.1953125 3.9453125 -2.1953125 3.9453125 -2 2 C-1.34 1.34 -0.68 0.68 0 0 Z " fill="#E4A961" transform="translate(391,192)"/>
<path d="M0 0 C0.66 0 1.32 0 2 0 C2.33 0.66 2.66 1.32 3 2 C3.99 2.33 4.98 2.66 6 3 C7.6875 6.5625 7.6875 6.5625 9 10 C8.34 10 7.68 10 7 10 C5.2734375 8.06640625 5.2734375 8.06640625 3.375 5.5625 C2.74335938 4.73878906 2.11171875 3.91507813 1.4609375 3.06640625 C0 1 0 1 0 0 Z " fill="#E1AF6E" transform="translate(432,185)"/>
<path d="M0 0 C1.32 0 2.64 0 4 0 C4 1.98 4 3.96 4 6 C3.01 6.495 3.01 6.495 2 7 C2 6.01 2 5.02 2 4 C1.34 4 0.68 4 0 4 C0 2.68 0 1.36 0 0 Z " fill="#F3A945" transform="translate(361,174)"/>
<path d="M0 0 C4.43458973 1.3937282 6.87378374 3.60582235 10 7 C9.01 7.495 9.01 7.495 8 8 C8 7.34 8 6.68 8 6 C5.66785852 4.79371992 3.50357861 3.8345262 1 3 C0.67 2.01 0.34 1.02 0 0 Z " fill="#DAAE6C" transform="translate(587,168)"/>
<path d="M0 0 C3.125 -0.1875 3.125 -0.1875 6 0 C5.67 1.98 5.34 3.96 5 6 C4.67 4.68 4.34 3.36 4 2 C2.68 2 1.36 2 0 2 C0 2.66 0 3.32 0 4 C-0.66 3.67 -1.32 3.34 -2 3 C-1.34 2.01 -0.68 1.02 0 0 Z " fill="#DAA66F" transform="translate(383,167)"/>
<path d="M0 0 C0.33 0.66 0.66 1.32 1 2 C0.328125 3.91015625 0.328125 3.91015625 -0.75 6.0625 C-1.09546875 6.77535156 -1.4409375 7.48820312 -1.796875 8.22265625 C-3 10 -3 10 -6 11 C-4.54955729 6.89041233 -2.48889248 3.56741255 0 0 Z " fill="#F6F1E7" transform="translate(423,61)"/>
<path d="M0 0 C2.97 0.99 5.94 1.98 9 3 C9 3.33 9 3.66 9 4 C5.7 4 2.4 4 -1 4 C-1.33 3.34 -1.66 2.68 -2 2 C-1.34 2 -0.68 2 0 2 C0 1.34 0 0.68 0 0 Z " fill="#F4EDE0" transform="translate(234,58)"/>
<path d="M0 0 C0.66 0 1.32 0 2 0 C1.46930939 3.82097239 0.50298434 6.06171403 -2 9 C-2.66 8.34 -3.32 7.68 -4 7 C-3.67 6.34 -3.34 5.68 -3 5 C-2.34 5 -1.68 5 -1 5 C-0.67 3.35 -0.34 1.7 0 0 Z " fill="#F8F3EA" transform="translate(189,117)"/>
<path d="M0 0 C0.99 0.33 1.98 0.66 3 1 C2.67 1.66 2.34 2.32 2 3 C1.34 3 0.68 3 0 3 C0 6.3 0 9.6 0 13 C-2 10 -2 10 -1.7578125 7.51953125 C-1.54898438 6.62621094 -1.34015625 5.73289062 -1.125 4.8125 C-0.92132813 3.91144531 -0.71765625 3.01039062 -0.5078125 2.08203125 C-0.34023437 1.39496094 -0.17265625 0.70789062 0 0 Z " fill="#DAAE6C" transform="translate(171,38)"/>
<path d="M0 0 C0.66 0.33 1.32 0.66 2 1 C2.73075648 3.3140622 3.40138258 5.64828869 4 8 C3.34 8.66 2.68 9.32 2 10 C2 9.01 2 8.02 2 7 C1.34 7 0.68 7 0 7 C-0.38133299 5.0085944 -0.71325582 3.00720923 -1 1 C-0.67 0.67 -0.34 0.34 0 0 Z " fill="#F8AB4B" transform="translate(383,192)"/>
<path d="M0 0 C1.98 0 3.96 0 6 0 C6 0.99 6 1.98 6 3 C4.68 2.67 3.36 2.34 2 2 C1.67 3.32 1.34 4.64 1 6 C0.67 4.02 0.34 2.04 0 0 Z " fill="#D3AC78" transform="translate(370,167)"/>
<path d="M0 0 C3.465 1.98 3.465 1.98 7 4 C6.01 4.99 5.02 5.98 4 7 C3.34 6.34 2.68 5.68 2 5 C2 4.01 2 3.02 2 2 C1.34 2 0.68 2 0 2 C0 1.34 0 0.68 0 0 Z " fill="#F9F1E6" transform="translate(832,86)"/>
<path d="M0 0 C1.65 0.33 3.3 0.66 5 1 C4.67 1.99 4.34 2.98 4 4 C1.9375 4.6875 1.9375 4.6875 0 5 C0 3.33333333 0 1.66666667 0 0 Z " fill="#F0AE44" transform="translate(474,203)"/>
<path d="M0 0 C0.99 0.33 1.98 0.66 3 1 C3 2.65 3 4.3 3 6 C1.68 6.33 0.36 6.66 -1 7 C-0.34 6.67 0.32 6.34 1 6 C0.67 4.02 0.34 2.04 0 0 Z " fill="#DAAC72" transform="translate(348,181)"/>
<path d="M0 0 C1.32 0 2.64 0 4 0 C4 0.99 4 1.98 4 3 C4.99 3.33 5.98 3.66 7 4 C6.34 4.66 5.68 5.32 5 6 C5 5.34 5 4.68 5 4 C4.360625 3.896875 3.72125 3.79375 3.0625 3.6875 C2.381875 3.460625 1.70125 3.23375 1 3 C0.67 2.01 0.34 1.02 0 0 Z " fill="#E2A855" transform="translate(429,181)"/>
<path d="M0 0 C1.875 0.25 1.875 0.25 4 1 C5.25 3.0625 5.25 3.0625 6 5 C4.68 5 3.36 5 2 5 C1.34 3.35 0.68 1.7 0 0 Z " fill="#F5EEE7" transform="translate(345,133)"/>
<path d="M0 0 C0.99 0.33 1.98 0.66 3 1 C2.34 3.31 1.68 5.62 1 8 C0.67 8 0.34 8 0 8 C-0.38063221 5.6739143 -0.71269945 3.33944736 -1 1 C-0.67 0.67 -0.34 0.34 0 0 Z " fill="#E7AC59" transform="translate(377,190)"/>
<path d="M0 0 C0.99 0 1.98 0 3 0 C3 1.98 3 3.96 3 6 C2.01 5.67 1.02 5.34 0 5 C0 3.35 0 1.7 0 0 Z " fill="#F4A94F" transform="translate(392,181)"/>
<path d="M0 0 C0.33 0.99 0.66 1.98 1 3 C1.66 3 2.32 3 3 3 C2.34 5.31 1.68 7.62 1 10 C-0.04005702 6.61981469 -0.08004482 3.5219721 0 0 Z " fill="#EFB35A" transform="translate(411,169)"/>
<path d="M0 0 C1.98 0 3.96 0 6 0 C5.67 1.65 5.34 3.3 5 5 C4.67 4.01 4.34 3.02 4 2 C2.35 2.33 0.7 2.66 -1 3 C-0.67 2.01 -0.34 1.02 0 0 Z " fill="#CEAB6D" transform="translate(397,167)"/>
<path d="M0 0 C-3.465 1.485 -3.465 1.485 -7 3 C-7.66 2.01 -8.32 1.02 -9 0 C-5.62182575 -0.84454356 -3.32534757 -1.10844919 0 0 Z " fill="#FAF0E7" transform="translate(74,121)"/>
<path d="M0 0 C2.0625 2.25 2.0625 2.25 4 5 C3.75 7.3125 3.75 7.3125 3 9 C1.3372974 6.32521756 0.00016187 4.0004856 -1 1 C-0.67 0.67 -0.34 0.34 0 0 Z " fill="#F9F2E7" transform="translate(118,117)"/>
<path d="M0 0 C4 4.625 4 4.625 4 8 C3.01 7.67 2.02 7.34 1 7 C0.67 4.69 0.34 2.38 0 0 Z " fill="#FAF2EC" transform="translate(355,107)"/>
<path d="M0 0 C0.33 0 0.66 0 1 0 C0.67 2.31 0.34 4.62 0 7 C-1.32 7.33 -2.64 7.66 -4 8 C-2.68 5.36 -1.36 2.72 0 0 Z " fill="#F4EFE9" transform="translate(171,108)"/>
<path d="M0 0 C0.99 0.33 1.98 0.66 3 1 C1.71937515 2.7074998 0.38232443 4.37373596 -1 6 C-1.66 6 -2.32 6 -3 6 C-3 4.68 -3 3.36 -3 2 C-2.01 1.34 -1.02 0.68 0 0 Z " fill="#FAF8EB" transform="translate(417,101)"/>
<path d="M0 0 C1.65 0.33 3.3 0.66 5 1 C2.6875 3.0625 2.6875 3.0625 0 5 C-0.99 4.67 -1.98 4.34 -3 4 C-2.34 4 -1.68 4 -1 4 C-0.67 2.68 -0.34 1.36 0 0 Z " fill="#F9F2E7" transform="translate(357,92)"/>
<path d="M0 0 C0.99 0.33 1.98 0.66 3 1 C1.12050295 4.57104439 -0.17053157 6.54744301 -4 8 C-3.2884375 7.13375 -3.2884375 7.13375 -2.5625 6.25 C-1.0515133 4.07417916 -0.45963849 2.57397552 0 0 Z " fill="#EDEBE4" transform="translate(844,50)"/>
</svg>
